<?xml version="1.0" encoding="UTF-8" standalone="no"?>
<!-- Created with Inkscape (http://www.inkscape.org/) -->

<svg
   xmlns:dc="http://purl.org/dc/elements/1.1/"
   xmlns:cc="http://creativecommons.org/ns#"
   xmlns:rdf="http://www.w3.org/1999/02/22-rdf-syntax-ns#"
   xmlns:svg="http://www.w3.org/2000/svg"
   xmlns="http://www.w3.org/2000/svg"
   xmlns:sodipodi="http://sodipodi.sourceforge.net/DTD/sodipodi-0.dtd"
   xmlns:inkscape="http://www.inkscape.org/namespaces/inkscape"
   width="210mm"
   height="297mm"
   viewBox="0 0 210 297"
   version="1.1"
   id="svg4855"
   inkscape:version="0.92.3 (2405546, 2018-03-11)"
   sodipodi:docname="dog1.svg">
  <defs
     id="defs4849">
    <clipPath
       clipPathUnits="userSpaceOnUse"
       id="clipPath198">
      <path
         d="m 3026.39,1095.96 c 0,0 573.71,-93.91 1147.42,0 0,0 520.36,-207.241 258.23,371.54 -54.85,121.12 -504.87,201.31 -830.17,201.31 -306.78,0 -779.15,-18.25 -830.66,-134.21 -220.2,-495.6 255.18,-438.64 255.18,-438.64"
         id="path196"
         inkscape:connector-curvature="0" />
    </clipPath>
  </defs>
  <sodipodi:namedview
     id="base"
     pagecolor="#ffffff"
     bordercolor="#666666"
     borderopacity="1.0"
     inkscape:pageopacity="0.0"
     inkscape:pageshadow="2"
     inkscape:zoom="1.0834071"
     inkscape:cx="133.62579"
     inkscape:cy="588.84589"
     inkscape:document-units="mm"
     inkscape:current-layer="layer1"
     showgrid="false"
     inkscape:window-width="2400"
     inkscape:window-height="1284"
     inkscape:window-x="2391"
     inkscape:window-y="-9"
     inkscape:window-maximized="1" />
  <metadata
     id="metadata4852">
    <rdf:RDF>
      <cc:Work
         rdf:about="">
        <dc:format>image/svg+xml</dc:format>
        <dc:type
           rdf:resource="http://purl.org/dc/dcmitype/StillImage" />
        <dc:title></dc:title>
      </cc:Work>
    </rdf:RDF>
  </metadata>
  <g
     inkscape:label="Layer 1"
     inkscape:groupmode="layer"
     id="layer1">
    <path
       d="m 105.86665,248.24898 c -43.995958,0 -79.661841,-12.25778 -79.661841,-27.37887 0,-15.1215 35.665883,-27.37809 79.661841,-27.37809 43.99598,0 79.66221,12.25659 79.66221,27.37809 0,15.12109 -35.66623,27.37887 -79.66221,27.37887"
       style="fill:#eae3d7;fill-opacity:1;fill-rule:nonzero;stroke:none;stroke-width:0.10780448"
       id="path20"
       inkscape:connector-curvature="0" />
    <path
       d="m 144.20242,199.98238 c 1.61361,1.58939 3.33578,3.12005 4.95852,4.70866 2.28557,2.23818 4.61686,4.53743 5.90478,7.33619 0.82965,1.80428 1.22163,3.80367 2.50039,5.38515 2.45014,3.02948 7.23954,3.54509 11.43124,3.44663 2.89011,-0.0671 6.04991,-0.40922 8.05665,-2.26083 1.77816,-1.63825 2.21355,-4.06708 2.42383,-6.33584 0.2423,-2.62788 0.24457,-5.45192 -1.35994,-7.66902 -1.25819,-1.7372 -3.3232,-2.84875 -5.2282,-4.03129 -1.87989,-1.16749 -3.7129,-2.50991 -4.79512,-4.30792 -4.13002,-6.85947 5.51622,-16.9916 8.67713,-22.79447 3.13693,-5.76014 5.49221,-12.15895 4.45228,-18.49164 -3.53005,-21.48767 -30.21515,-13.37728 -41.00187,-2.12752 -7.01325,7.28154 -7.93548,17.51435 -6.11275,26.60509 0.92795,4.62826 2.59983,9.2687 4.70027,13.57559 1.27192,2.60957 3.23523,4.83776 5.39279,6.96122"
       style="fill:#b99874;fill-opacity:1;fill-rule:nonzero;stroke:none;stroke-width:0.10780448"
       id="path128"
       inkscape:connector-curvature="0" />
    <path
       d="m 73.321369,172.9054 c 2.252422,3.52891 3.590618,7.28461 2.519834,12.1081 -1.615894,7.26527 -7.300092,13.9905 -15.248141,16.54201 -1.414764,0.45571 -2.938093,0.82274 -4.020305,1.75114 -3.240931,2.77837 -0.24114,7.58166 -0.67196,11.56811 -0.316551,2.91778 -2.709535,5.48688 -5.730593,6.65517 -3.021286,1.16952 -6.554538,1.03924 -9.643138,0.0202 -3.884087,-1.2836 -7.20261,-4.01835 -8.631086,-7.48004 -1.427563,-3.46168 -0.816976,-7.59875 1.819991,-10.4435 2.377905,-2.56663 6.42495,-4.44601 6.581624,-7.77053 0.05266,-1.11764 -0.38203,-2.20376 -0.841885,-3.24515 -3.863973,-8.75006 -6.513857,-16.04481 -4.503247,-25.62879 1.817708,-8.66157 6.986168,-16.81871 14.701203,-22.39378 0.815149,-0.58883 1.702176,-1.16851 2.738677,-1.3119 6.453406,-0.89089 8.645259,9.08361 9.892036,12.85557 2.101575,6.35508 7.431513,11.12265 11.03699,16.774"
       style="fill:#b99874;fill-opacity:1;fill-rule:nonzero;stroke:none;stroke-width:0.10780448"
       id="path130"
       inkscape:connector-curvature="0" />
    <path
       d="m 170.79267,129.53957 c -0.40569,1.90375 -1.28677,3.72415 -1.47304,5.65539 -0.23771,2.46006 0.66853,4.87537 1.30961,7.27744 1.24108,4.64861 1.50849,9.52907 0.50625,14.22343 -1.40104,6.56255 -5.19963,12.52404 -9.46906,18.01776 -9.86794,12.69692 -23.18136,23.93145 -39.70484,28.63598 -17.40228,4.95449 -45.888402,0.67607 -60.304598,-9.52805 -11.298911,-7.99851 -16.983341,-21.11341 -17.506049,-33.95476 -0.16877,-4.1462 0.154036,-8.34428 1.481617,-12.32267 1.772684,-5.31268 6.728129,-9.34195 8.37008,-14.53462 1.149637,-3.63671 -0.231972,-8.10834 2.656967,-10.87655 1.994155,-1.90989 5.377932,-2.23225 7.406372,-4.11162 1.124495,-1.04241 1.7016,-2.44276 2.258132,-3.79842 3.39635,-8.26799 7.231526,-16.592945 13.672247,-23.274474 17.986245,-18.66048 92.988172,-34.132736 91.273992,5.159107 -0.22739,5.202867 -2.217,10.230777 -2.35755,15.411257 -0.16341,6.04692 3.17006,11.97588 1.87987,18.0208"
       style="fill:#d7b28b;fill-opacity:1;fill-rule:nonzero;stroke:none;stroke-width:0.10780448"
       id="path132"
       inkscape:connector-curvature="0" />
    <path
       d="m 73.391076,199.62336 -5.06938,-1.94954 c 0,0 -3.287783,-5.20385 -3.188361,-12.87999 0.100556,-7.67611 -6.782412,-14.0861 -7.712636,-22.70802 -0.929082,-8.62192 3.768896,-15.7194 3.768896,-15.7194 l 12.201481,53.25695"
       style="fill:#cba781;fill-opacity:1;fill-rule:nonzero;stroke:none;stroke-width:0.10780448"
       id="path134"
       inkscape:connector-curvature="0" />
    <path
       d="m 93.073213,155.76429 c 0,0 9.057687,6.37643 10.610727,24.35555 0.34513,3.99363 -0.1177,9.49141 -2.07186,15.65832 -2.358698,7.44541 -1.926727,9.2605 -1.926727,9.2605 l -5.265943,-0.61211 -1.346197,-48.66226"
       style="fill:#cba781;fill-opacity:1;fill-rule:nonzero;stroke:none;stroke-width:0.10780448"
       id="path136"
       inkscape:connector-curvature="0" />
    <path
       d="m 134.7779,198.61858 -5.16537,2.00549 c 0,0 -5.31395,-8.5792 -4.45458,-16.835 0.85938,-8.2558 2.23415,-23.48706 12.5489,-28.72345 10.31475,-5.23844 -2.92895,43.55296 -2.92895,43.55296"
       style="fill:#cba781;fill-opacity:1;fill-rule:nonzero;stroke:none;stroke-width:0.10780448"
       id="path138"
       inkscape:connector-curvature="0" />
    <path
       d="m 170.97438,90.673821 v 12.865739 c 0,0 -14.14994,27.39221 -49.68475,31.28418 -35.534794,3.89198 -56.156295,-18.11537 -56.156295,-18.11537 l 3.365491,-7.58356 102.475554,-18.450989"
       style="fill:#cba781;fill-opacity:1;fill-rule:nonzero;stroke:none;stroke-width:0.10780448"
       id="path140"
       inkscape:connector-curvature="0" />
    <path
       d="m 48.686759,65.948123 c -2.273907,-13.606126 21.0897,-20.096468 21.0897,-20.096468 12.182054,-4.791959 13.913368,-3.160748 25.420043,-7.544911 11.505528,-4.384195 11.058698,-5.311666 23.678428,-11.162322 0,0 21.40203,-10.566367 30.89625,0.288825 9.49538,10.854153 38.24892,40.664754 22.4054,68.649873 -1.0342,1.826485 -2.10729,3.53498 -3.2032,5.15706 -13.76483,20.36595 -31.49623,24.94844 -31.49623,24.94844 0,0 -19.26503,10.33449 -48.428817,1.56717 -0.985077,-0.29595 -1.940441,-0.62038 -2.875241,-0.96411 C 55.415119,115.49209 50.893814,79.152507 48.686759,65.948123"
       style="fill:#d7b28b;fill-opacity:1;fill-rule:nonzero;stroke:none;stroke-width:0.10780448"
       id="path142"
       inkscape:connector-curvature="0" />
    <path
       d="m 151.26823,110.19872 c 0,0 -1.66161,11.52537 -17.14286,17.42487 -15.48242,5.89845 -26.16742,-0.92139 -26.16742,-0.92139 l 15.65612,-20.92528 27.65416,4.4218"
       style="fill:#211d1d;fill-opacity:1;fill-rule:nonzero;stroke:none;stroke-width:0.10780448"
       id="path144"
       inkscape:connector-curvature="0" />
    <path
       d="m 110.80461,92.679301 c 2.26728,-1.803111 6.21788,-4.065881 10.57532,-4.17165 0,0 38.27176,-3.288887 38.20776,13.807479 -0.0582,15.04412 -24.32411,15.65226 -33.97947,7.61718 -0.12906,11.76331 -17.37258,26.97115 -29.646054,16.62444 C 82.015652,114.80054 110.80461,92.679301 110.80461,92.679301"
       style="fill:#3c3a3e;fill-opacity:1;fill-rule:nonzero;stroke:none;stroke-width:0.10780448"
       id="path146"
       inkscape:connector-curvature="0" />
    <path
       d="m 135.11731,22.622951 c 0,0 19.10959,-10.853172 26.29428,-3.655025 7.18581,7.199181 6.40986,16.417051 17.66397,25.884047 11.25413,9.467024 2.73352,16.025512 -11.96379,9.702977 C 152.4156,48.23037 111.60341,39.790501 135.11731,22.622951"
       style="fill:#3c3a3e;fill-opacity:1;fill-rule:nonzero;stroke:none;stroke-width:0.10780448"
       id="path148"
       inkscape:connector-curvature="0" />
    <path
       d="m 60.786192,49.676508 c 0,0 4.940248,3.202462 -0.820517,14.889531 C 54.204911,76.254148 63.64429,102.08022 57.58069,106.31082 51.516515,110.54146 33.812311,86.281495 31.625823,76.803314 27.919897,60.734068 38.274986,46.533055 60.786192,49.676508"
       style="fill:#3c3a3e;fill-opacity:1;fill-rule:nonzero;stroke:none;stroke-width:0.10780448"
       id="path150"
       inkscape:connector-curvature="0" />
    <path
       d="m 110.35321,99.299802 c 0.27312,-5.176411 6.97669,-7.337478 6.97669,-7.337478 0,0 6.38472,-2.826172 10.7833,0.570528 3.42604,2.648191 -0.90737,9.186328 -3.55291,11.004698 -3.35864,2.30851 -14.4482,0.33559 -14.20708,-4.237748"
       style="fill:#211d1d;fill-opacity:1;fill-rule:nonzero;stroke:none;stroke-width:0.10780448"
       id="path152"
       inkscape:connector-curvature="0" />
    <path
       d="m 125.30652,96.23565 0.0982,0.01438 0.24456,-0.09456 c 0.37826,-0.22572 1.11078,-0.85935 1.58047,-0.400672 0.47996,0.468822 0.0182,1.47462 -0.208,1.98411 -0.28568,0.641715 -1.21361,2.222095 -2.17355,1.74616 -0.33369,-0.164907 -0.56797,-0.449515 -0.77596,-0.73427 -0.69137,-0.9529 -1.1965,-2.012603 -1.48789,-3.116007 -0.0606,-0.228891 -0.0869,-0.519681 0.13366,-0.648826 0.12343,-0.07406 0.28456,-0.06715 0.4297,-0.03975 0.79994,0.157682 1.31533,0.835941 2.00901,1.224428 l 0.14965,0.06602"
       style="fill:#3c3a3e;fill-opacity:1;fill-rule:nonzero;stroke:none;stroke-width:0.10780448"
       id="path154"
       inkscape:connector-curvature="0" />
    <path
       d="m 115.29802,100.0493 -0.057,0.0712 -0.24456,0.0925 c -0.44454,0.0885 -1.46504,0.12196 -1.41704,0.74238 0.0504,0.63359 1.1862,1.02815 1.75644,1.23361 0.71995,0.26031 2.64556,0.75357 2.92097,-0.19315 0.096,-0.32849 0.0263,-0.6763 -0.0628,-1.0068 -0.29711,-1.102406 -0.80908,-2.159051 -1.50619,-3.108895 -0.14396,-0.196321 -0.36226,-0.41391 -0.62052,-0.362044 -0.14395,0.02888 -0.25026,0.13722 -0.32682,0.250227 -0.42398,0.623391 -0.22972,1.423774 -0.39314,2.137682 l -0.049,0.14327"
       style="fill:#3c3a3e;fill-opacity:1;fill-rule:nonzero;stroke:none;stroke-width:0.10780448"
       id="path156"
       inkscape:connector-curvature="0" />
    <path
       d="m 134.48193,79.86847 c -2.53584,-5.268942 0.21025,-11.369793 6.13102,-13.62645 5.92188,-2.256686 12.77744,0.186227 15.31328,5.456063 2.53469,5.26998 -0.21028,11.370801 -6.13217,13.626449 -5.92076,2.256658 -12.7763,-0.186226 -15.31213,-5.456062"
       style="fill:#3c3a3e;fill-opacity:1;fill-rule:nonzero;stroke:none;stroke-width:0.10780448"
       id="path158"
       inkscape:connector-curvature="0" />
    <path
       d="m 136.84519,78.968442 c -1.97702,-4.108572 0.16342,-8.86395 4.78024,-10.623331 4.61684,-1.758342 9.96051,0.145581 11.9375,4.254008 1.97588,4.107564 -0.16342,8.863951 -4.78023,10.623331 -4.61571,1.75935 -9.96049,-0.14558 -11.93751,-4.254008"
       style="fill:#211d1d;fill-opacity:1;fill-rule:nonzero;stroke:none;stroke-width:0.10780448"
       id="path160"
       inkscape:connector-curvature="0" />
    <path
       d="m 139.51587,75.484277 c -0.55427,-1.151203 0.0456,-2.484453 1.33934,-2.977694 1.29477,-0.492233 2.79182,0.04064 3.34607,1.192916 0.5531,1.151205 -0.0456,2.483443 -1.33934,2.976684 -1.29363,0.493241 -2.7918,-0.04064 -3.34607,-1.191906"
       style="fill:#ffffff;fill-opacity:1;fill-rule:nonzero;stroke:none;stroke-width:0.10780448"
       id="path162"
       inkscape:connector-curvature="0" />
    <path
       d="m 74.157885,102.85313 c -2.534692,-5.269988 0.210268,-11.370807 6.132165,-13.627468 5.920756,-2.255677 12.776305,0.18709 15.312139,5.457069 2.535826,5.268944 -0.210269,11.370799 -6.131027,13.626459 -5.921894,2.25665 -12.777444,-0.18622 -15.313277,-5.45606"
       style="fill:#3c3a3e;fill-opacity:1;fill-rule:nonzero;stroke:none;stroke-width:0.10780448"
       id="path164"
       inkscape:connector-curvature="0" />
    <path
       d="m 76.521156,101.9531 c -1.975867,-4.108588 0.163427,-8.864972 4.780261,-10.623341 4.616836,-1.759353 9.961628,0.144432 11.937497,4.252999 1.977014,4.108578 -0.163427,8.864962 -4.779112,10.624332 -4.616839,1.75835 -9.961632,-0.14644 -11.938646,-4.25399"
       style="fill:#211d1d;fill-opacity:1;fill-rule:nonzero;stroke:none;stroke-width:0.10780448"
       id="path166"
       inkscape:connector-curvature="0" />
    <path
       d="m 79.192981,98.467915 c -0.554248,-1.151204 0.04569,-2.483442 1.33934,-2.975674 1.29363,-0.494247 2.790674,0.04065 3.344923,1.190897 0.554249,1.151205 -0.04569,2.484462 -1.339342,2.976681 -1.293627,0.494251 -2.791815,-0.04054 -3.344921,-1.191904"
       style="fill:#ffffff;fill-opacity:1;fill-rule:nonzero;stroke:none;stroke-width:0.10780448"
       id="path168"
       inkscape:connector-curvature="0" />
    <path
       d="m 149.41007,99.946613 c -0.38855,-0.806463 0.0321,-1.741087 0.93823,-2.085828 0.90738,-0.345771 1.95644,0.02888 2.34498,0.835964 0.38855,0.806453 -0.0321,1.741041 -0.93935,2.086821 -0.90622,0.34578 -1.95645,-0.0294 -2.34386,-0.836957"
       style="fill:#211d1d;fill-opacity:1;fill-rule:nonzero;stroke:none;stroke-width:0.10780448"
       id="path170"
       inkscape:connector-curvature="0" />
    <path
       d="m 145.44348,108.65598 c -0.38855,-0.80646 0.0332,-1.74108 0.93938,-2.08684 0.90735,-0.34579 1.95644,0.0288 2.34498,0.83595 0.38741,0.80648 -0.0321,1.74108 -0.93938,2.08684 -0.90622,0.34475 -1.95643,-0.0287 -2.34498,-0.83595"
       style="fill:#211d1d;fill-opacity:1;fill-rule:nonzero;stroke:none;stroke-width:0.10780448"
       id="path172"
       inkscape:connector-curvature="0" />
    <path
       d="m 140.57523,102.57447 c -0.38854,-0.8075 0.0321,-1.74107 0.93822,-2.08582 0.90738,-0.34576 1.95759,0.0289 2.34499,0.83493 0.38855,0.8075 -0.0321,1.74108 -0.93822,2.08684 -0.90737,0.34575 -1.95757,-0.0295 -2.34499,-0.83595"
       style="fill:#211d1d;fill-opacity:1;fill-rule:nonzero;stroke:none;stroke-width:0.10780448"
       id="path174"
       inkscape:connector-curvature="0" />
    <path
       d="m 101.06126,118.36911 c -0.3874,-0.80648 -1.43762,-1.18074 -2.34385,-0.83595 -0.907368,0.34575 -1.326769,1.27934 -0.939364,2.08685 0.388539,0.80643 1.438761,1.18068 2.344994,0.83489 0.90736,-0.34476 1.32676,-1.27833 0.93822,-2.08579"
       style="fill:#211d1d;fill-opacity:1;fill-rule:nonzero;stroke:none;stroke-width:0.10780448"
       id="path176"
       inkscape:connector-curvature="0" />
    <path
       d="m 110.88118,121.8258 c -0.38854,-0.8075 -1.43876,-1.18175 -2.34613,-0.83595 -0.90624,0.34576 -1.32676,1.28036 -0.93822,2.08684 0.38855,0.80747 1.43762,1.1807 2.34498,0.83594 0.90622,-0.34578 1.32678,-1.28038 0.93937,-2.08683"
       style="fill:#211d1d;fill-opacity:1;fill-rule:nonzero;stroke:none;stroke-width:0.10780448"
       id="path178"
       inkscape:connector-curvature="0" />
    <path
       d="m 109.29501,114.4924 c -0.38741,-0.80646 -1.43763,-1.18072 -2.34386,-0.83495 -0.90737,0.34578 -1.32676,1.28039 -0.93936,2.08683 0.38855,0.80747 1.43762,1.1807 2.34499,0.83494 0.90736,-0.34475 1.32675,-1.27934 0.93823,-2.08682"
       style="fill:#211d1d;fill-opacity:1;fill-rule:nonzero;stroke:none;stroke-width:0.10780448"
       id="path180"
       inkscape:connector-curvature="0" />
    <path
       d="m 134.4522,157.71791 c 4.15744,-6.14052 11.14212,-7.11377 18.23308,-10.06805 3.4455,-1.436 6.11162,-3.28486 10.08277,-3.52384 2.27871,-0.13629 4.74369,0.52475 6.04647,2.06954 0.26971,0.31934 0.0182,0.11506 -0.38969,0.31017 3.45463,7.60394 1.11079,16.1089 -1.94846,23.82672 -1.18162,2.98179 -2.46954,5.94624 -3.21462,9.02057 -0.67768,2.79262 -0.90167,5.64829 -1.59192,8.43685 -1.58389,6.39064 -5.55505,12.21689 -7.57893,18.52125 -1.34618,4.19695 -1.81016,8.54654 -2.26956,12.87059 -0.72338,6.82097 -1.19763,8.28043 3.95175,13.6589 2.5781,2.69499 6.46472,4.69357 7.76977,7.95111 1.81589,4.53225 -2.62382,9.5246 -8.14116,10.99443 -5.51851,1.47023 -11.55697,0.27531 -16.96233,-1.4563 -1.11307,-0.35595 -2.25472,-0.75685 -3.05351,-1.48693 -0.98508,-0.90022 -1.30049,-2.15915 -1.49134,-3.36008 -0.45253,-2.85264 -0.42282,-5.757 0.0902,-8.60248 0.25598,-1.42104 0.62166,-2.91588 -0.0131,-4.25313 -0.30968,-0.65306 -0.83994,-1.22034 -1.18163,-1.86226 -0.8411,-1.57836 -0.45597,-3.39143 -0.0972,-5.08771 2.5107,-11.86322 3.02152,-18.07471 -0.52909,-29.75672 -0.95309,-3.13837 -2.19873,-6.22895 -2.74384,-9.43343 -0.47768,-2.80585 -0.41024,-5.65234 -0.27427,-8.48464 0.33598,-6.97747 1.17592,-14.18475 5.30593,-20.28456"
       style="fill:#d7b28b;fill-opacity:1;fill-rule:nonzero;stroke:none;stroke-width:0.10780448"
       id="path182"
       inkscape:connector-curvature="0" />
    <path
       d="m 95.553047,157.71791 c -4.158583,-6.14052 -11.142123,-7.11377 -18.233086,-10.06805 -3.446629,-1.436 -6.112739,-3.28486 -10.083908,-3.52384 -2.276421,-0.13629 -4.741402,0.52475 -6.044174,2.06751 -0.532536,0.63052 -0.561103,1.93428 -0.802234,2.67975 -2.486692,7.6812 0.22057,14.09831 3.139224,21.45917 1.180492,2.98179 2.468409,5.94624 3.214647,9.02057 0.676525,2.79262 0.901652,5.64829 1.591893,8.43685 1.582753,6.39064 5.555065,12.21689 7.578929,18.52125 1.346199,4.19695 1.810167,8.54654 2.268424,12.87059 0.724522,6.82097 1.198777,8.28043 -3.950594,13.6589 -2.579263,2.69499 -6.46472,4.69357 -7.76978,7.95111 -1.815876,4.53225 2.622684,9.5246 8.141181,10.99443 5.518494,1.47023 11.555812,0.27531 16.96117,-1.4563 1.113068,-0.35595 2.254708,-0.75685 3.054657,-1.48693 0.985076,-0.90022 1.299341,-2.15915 1.490187,-3.36008 0.453686,-2.85264 0.423973,-5.757 -0.08915,-8.60248 -0.255974,-1.42104 -0.622813,-2.91588 0.01143,-4.25313 0.309686,-0.65306 0.84109,-1.22034 1.182779,-1.86226 0.841092,-1.57836 0.455975,-3.39143 0.09715,-5.08771 -2.51069,-11.86322 -3.021515,-18.07471 0.529108,-29.75672 0.953082,-3.13837 2.19757,-6.22895 2.74268,-9.43343 0.47768,-2.80585 0.41139,-5.65234 0.2754,-8.48464 -0.33711,-6.97747 -1.175917,-14.18475 -5.305927,-20.28456"
       style="fill:#d7b28b;fill-opacity:1;fill-rule:nonzero;stroke:none;stroke-width:0.10780448"
       id="path184"
       inkscape:connector-curvature="0" />
  </g>
</svg>
