<?xml version="1.0" encoding="UTF-8" standalone="no"?>
<!-- Created with Inkscape (http://www.inkscape.org/) -->

<svg
   xmlns:dc="http://purl.org/dc/elements/1.1/"
   xmlns:cc="http://creativecommons.org/ns#"
   xmlns:rdf="http://www.w3.org/1999/02/22-rdf-syntax-ns#"
   xmlns:svg="http://www.w3.org/2000/svg"
   xmlns="http://www.w3.org/2000/svg"
   xmlns:sodipodi="http://sodipodi.sourceforge.net/DTD/sodipodi-0.dtd"
   xmlns:inkscape="http://www.inkscape.org/namespaces/inkscape"
   width="210mm"
   height="297mm"
   viewBox="0 0 210 297"
   version="1.1"
   id="svg4855"
   inkscape:version="0.92.3 (2405546, 2018-03-11)"
   sodipodi:docname="dog2.svg">
  <defs
     id="defs4849">
    <clipPath
       clipPathUnits="userSpaceOnUse"
       id="clipPath198">
      <path
         d="m 3026.39,1095.96 c 0,0 573.71,-93.91 1147.42,0 0,0 520.36,-207.241 258.23,371.54 -54.85,121.12 -504.87,201.31 -830.17,201.31 -306.78,0 -779.15,-18.25 -830.66,-134.21 -220.2,-495.6 255.18,-438.64 255.18,-438.64"
         id="path196"
         inkscape:connector-curvature="0" />
    </clipPath>
  </defs>
  <sodipodi:namedview
     id="base"
     pagecolor="#ffffff"
     bordercolor="#666666"
     borderopacity="1.0"
     inkscape:pageopacity="0.0"
     inkscape:pageshadow="2"
     inkscape:zoom="1.0834071"
     inkscape:cx="133.62579"
     inkscape:cy="515.00477"
     inkscape:document-units="mm"
     inkscape:current-layer="layer1"
     showgrid="false"
     inkscape:window-width="2400"
     inkscape:window-height="1284"
     inkscape:window-x="2391"
     inkscape:window-y="-9"
     inkscape:window-maximized="1" />
  <metadata
     id="metadata4852">
    <rdf:RDF>
      <cc:Work
         rdf:about="">
        <dc:format>image/svg+xml</dc:format>
        <dc:type
           rdf:resource="http://purl.org/dc/dcmitype/StillImage" />
        <dc:title></dc:title>
      </cc:Work>
    </rdf:RDF>
  </metadata>
  <g
     inkscape:label="Layer 1"
     inkscape:groupmode="layer"
     id="layer1">
    <path
       d="m 90.678709,220.89292 c -46.391804,0 -83.9998575,-4.58484 -83.9998575,-10.24093 0,-5.65609 37.6080535,-10.24092 83.9998575,-10.24092 46.392441,0 83.999611,4.58483 83.999611,10.24092 0,5.65609 -37.60717,10.24093 -83.999611,10.24093"
       style="fill:#eae3d7;fill-opacity:1;fill-rule:nonzero;stroke:none;stroke-width:0.08386736"
       id="path16"
       inkscape:connector-curvature="0" />
    <path
       d="m 27.592127,120.04735 c 0,0 -10.269102,-9.15923 -3.995701,-26.927656 5.346377,-15.142187 16.945741,-18.564268 24.479358,-16.737281 11.680537,2.83282 14.396737,10.439661 13.487308,14.677568 -1.069213,4.981452 -6.282113,0.515149 -9.619675,-0.515132 -3.337467,-1.030265 -15.825685,5.149661 -2.675843,14.570381 l -21.675447,14.93212"
       style="fill:#d7b28b;fill-opacity:1;fill-rule:nonzero;stroke:none;stroke-width:0.08386736"
       id="path22"
       inkscape:connector-curvature="0" />
    <path
       d="m 114.22875,146.40582 c 0,0 -1.17327,12.7103 1.85762,25.23754 2.65891,10.98967 4.37045,25.91656 13.84326,27.46111 9.47443,1.54453 16.08739,1.93068 20.91376,0 4.82638,-1.93157 2.68149,-9.07468 -6.43463,-11.19888 0,0 -4.67144,-1.01196 -5.363,-6.95046 -0.90782,-7.80818 1.63732,-47.48624 1.63732,-47.48624 l -26.45433,12.93693"
       style="fill:#b99874;fill-opacity:1;fill-rule:nonzero;stroke:none;stroke-width:0.08386736"
       id="path24"
       inkscape:connector-curvature="0" />
    <path
       d="m 28.897454,131.46673 c 0,0 0.396536,15.55184 -5.301028,22.89632 -5.69748,7.34358 -2.297874,35.42528 -2.297874,35.42528 0,0 -0.200195,10.79967 5.9992,11.23201 6.199324,0.43232 17.397633,2.3761 18.397525,-5.18455 1.000137,-7.55974 -8.599118,-3.23988 -9.798811,-8.20825 -1.199695,-4.96836 1.5997,-9.50438 4.5993,-12.74429 2.999601,-3.23989 12.198935,-8.42354 11.398429,-24.4086 -0.799687,-15.98418 -22.996741,-19.00792 -22.996741,-19.00792"
       style="fill:#b99874;fill-opacity:1;fill-rule:nonzero;stroke:none;stroke-width:0.08386736"
       id="path26"
       inkscape:connector-curvature="0" />
    <path
       d="m 125.02337,88.997681 c 0,0 -6.33781,3.587687 -11.33686,3.587687 -4.99908,0 -10.79862,0 -13.998191,1.511428 -3.199565,1.512307 -20.997688,-4.751314 -39.19444,1.944637 -18.198207,6.695967 -33.196127,11.880497 -36.595732,38.232867 -3.399607,26.35324 22.797267,39.74517 34.795428,39.96133 11.998555,0.21619 32.399083,8.22744 71.790425,0 36.19583,-7.56064 29.49003,-58.77399 29.49003,-58.77399 L 125.02337,88.997681"
       style="fill:#d7b28b;fill-opacity:1;fill-rule:nonzero;stroke:none;stroke-width:0.08386736"
       id="path28"
       inkscape:connector-curvature="0" />
    <path
       d="m 123.48532,164.94741 c 0,0 4.79974,17.49647 10.99874,28.297 6.19902,10.79966 6.19902,25.92005 16.7975,27.64851 10.59932,1.72759 17.99826,2.15993 23.39756,0 5.39932,-2.15995 2.99945,-10.1529 -7.19962,-12.52813 0,0 -5.22582,-1.13313 -5.99888,-7.77679 -1.01675,-8.73561 -8.39874,-50.11335 -8.39874,-50.11335 l -29.59656,14.47276"
       style="fill:#d7b28b;fill-opacity:1;fill-rule:nonzero;stroke:none;stroke-width:0.08386736"
       id="path30"
       inkscape:connector-curvature="0" />
    <path
       d="m 63.979915,130.24643 c 0,0 19.574209,1.56723 23.290237,24.84793 2.684725,16.82009 -2.202196,22.36983 -2.202196,22.36983 L 80.64829,176.89676 63.979915,130.24643"
       style="fill:#cba781;fill-opacity:1;fill-rule:nonzero;stroke:none;stroke-width:0.08386736"
       id="path32"
       inkscape:connector-curvature="0" />
    <path
       d="m 41.154562,136.78026 c -0.416711,0.54827 -0.798076,1.12616 -1.137236,1.73633 -2.092748,3.76374 -2.409557,8.48194 -1.42419,12.74078 0.13774,0.59536 0.299782,1.18369 0.482639,1.76421 1.840494,5.85309 6.367976,9.99078 7.582196,16.11842 1.003606,5.06425 0.429621,10.4353 -0.527666,15.45334 -1.297739,6.80492 -3.420749,13.62378 -6.234024,19.88305 0,0 -3.999815,15.23719 1.999709,17.87914 5.999198,2.64107 18.397762,3.9372 21.796648,-3.19107 3.399691,-7.12744 -6.798562,-7.34359 -6.798562,-7.34359 0,0 0.799686,-7.7768 6.798562,-12.31284 7.67975,-5.80602 17.228414,-16.81223 20.192338,-26.97297 1.660712,-5.69097 1.414581,-13.3257 0.238844,-19.1404 -1.335477,-6.60705 -4.606053,-12.78963 -9.386451,-17.18706 -7.739463,-7.12046 -19.540322,-9.19585 -28.448579,-3.90322 -1.937246,1.15058 -3.734975,2.63846 -5.134228,4.47588"
       style="fill:#d7b28b;fill-opacity:1;fill-rule:nonzero;stroke:none;stroke-width:0.08386736"
       id="path34"
       inkscape:connector-curvature="0" />
    <path
       d="m 110.97839,93.796935 c 0,0 -3.78382,25.819825 14.52187,39.671955 18.76728,14.20168 32.60327,11.7149 32.60327,11.7149 l 3.81365,-17.63769 -50.93879,-33.749165"
       style="fill:#cba781;fill-opacity:1;fill-rule:nonzero;stroke:none;stroke-width:0.08386736"
       id="path36"
       inkscape:connector-curvature="0" />
    <path
       d="m 192.93721,70.774235 c -2.64841,-10.887659 -19.06423,-9.07378 -19.06423,-9.07378 -8.97975,-0.112458 -9.56639,1.610791 -18.00551,1.610791 -8.43829,0 -8.43829,-0.826316 -18.0047,-1.610791 0,0 -16.41583,-1.813879 -19.06424,9.07378 -2.6476,10.887704 -11.57975,41.556465 6.58554,58.067985 1.18541,1.07821 2.36034,2.0562 3.52314,2.96185 14.60421,11.37667 26.96026,9.74148 26.96026,9.74148 0,0 15.02302,2.25232 30.4842,-12.70333 0.5221,-0.50469 1.01758,-1.0233 1.49528,-1.54979 15.69359,-17.31778 7.65877,-45.95212 5.09026,-56.518195"
       style="fill:#d7b28b;fill-opacity:1;fill-rule:nonzero;stroke:none;stroke-width:0.08386736"
       id="path38"
       inkscape:connector-curvature="0" />
    <path
       d="m 142.55196,133.46889 c 0,0 4.4665,8.1943 15.8211,8.1943 11.35542,0 15.94455,-8.1943 15.94455,-8.1943 l -15.94455,-11.25378 -15.8211,11.25378"
       style="fill:#211d1d;fill-opacity:1;fill-rule:nonzero;stroke:none;stroke-width:0.08386736"
       id="path40"
       inkscape:connector-curvature="0" />
    <path
       d="m 162.40701,108.69071 c -1.94314,-0.70693 -5.06604,-1.27782 -7.79839,-0.10721 0,0 -24.70159,8.49589 -19.56371,21.33955 4.52133,11.30085 19.74366,4.80275 23.3322,-4.01044 3.5877,8.81319 18.81003,15.31129 23.33057,4.01044 5.13947,-12.84366 -19.30067,-21.23235 -19.30067,-21.23235"
       style="fill:#3c3a3e;fill-opacity:1;fill-rule:nonzero;stroke:none;stroke-width:0.08386736"
       id="path42"
       inkscape:connector-curvature="0" />
    <path
       d="m 126.44765,62.954756 c 0,0 -15.08033,-2.686425 -17.38741,4.788811 -2.30707,7.474326 0.92236,14.186852 -3.22941,24.535854 -4.15257,10.347259 3.08499,12.839289 10.308,3.869231 7.22302,-8.970088 30.00246,-27.018316 10.30882,-33.193896"
       style="fill:#3c3a3e;fill-opacity:1;fill-rule:nonzero;stroke:none;stroke-width:0.08386736"
       id="path44"
       inkscape:connector-curvature="0" />
    <path
       d="m 179.78931,67.588313 c 0,0 -2.10614,3.826529 4.94904,10.967904 7.05516,7.140481 8.90712,29.276733 13.92637,30.721053 5.02004,1.44515 8.75865,-21.881724 7.28757,-29.639366 -2.4951,-13.151335 -13.14767,-20.866228 -26.16298,-12.049591"
       style="fill:#3c3a3e;fill-opacity:1;fill-rule:nonzero;stroke:none;stroke-width:0.08386736"
       id="path46"
       inkscape:connector-curvature="0" />
    <path
       d="m 164.66083,113.54141 c -1.71236,-3.81607 -6.5121,-3.52057 -6.5121,-3.52057 0,0 -4.79974,-0.2955 -6.51292,3.52057 -1.33388,2.97402 3.30123,6.65063 5.48324,7.26077 2.77026,0.77402 9.05561,-3.88927 7.54178,-7.26077"
       style="fill:#211d1d;fill-opacity:1;fill-rule:nonzero;stroke:none;stroke-width:0.08386736"
       id="path48"
       inkscape:connector-curvature="0" />
    <path
       d="m 154.47952,115.52264 -0.0574,0.0376 h -0.1791 c -0.30261,-0.0618 -0.94494,-0.32863 -1.09906,0.15066 -0.15807,0.49072 0.42768,1.11482 0.71981,1.433 0.36875,0.40183 1.41539,1.32403 1.86888,0.6912 0.15737,-0.21965 0.21799,-0.50121 0.26063,-0.77576 0.14454,-0.91438 0.14272,-1.85661 -0.007,-2.77009 -0.0307,-0.18901 -0.10086,-0.41579 -0.27598,-0.45065 -0.0984,-0.0197 -0.19694,0.0324 -0.27838,0.0952 -0.44868,0.34692 -0.56648,1.00503 -0.88039,1.49575 l -0.0726,0.0932"
       style="fill:#3c3a3e;fill-opacity:1;fill-rule:nonzero;stroke:none;stroke-width:0.08386736"
       id="path50"
       inkscape:connector-curvature="0" />
    <path
       d="m 161.81955,115.52264 0.0574,0.0376 h 0.17842 c 0.3026,-0.0618 0.94572,-0.32863 1.09985,0.15066 0.15807,0.49072 -0.42848,1.11482 -0.71979,1.433 -0.36876,0.40183 -1.4154,1.32403 -1.8689,0.6912 -0.15737,-0.21965 -0.218,-0.50121 -0.26063,-0.77576 -0.14531,-0.91438 -0.14272,-1.85661 0.004,-2.77009 0.0307,-0.18901 0.10173,-0.41579 0.27678,-0.45065 0.0984,-0.0197 0.19695,0.0324 0.27758,0.0952 0.44867,0.34692 0.56648,1.00503 0.8804,1.49575 l 0.0735,0.0932"
       style="fill:#3c3a3e;fill-opacity:1;fill-rule:nonzero;stroke:none;stroke-width:0.08386736"
       id="path52"
       inkscape:connector-curvature="0" />
    <path
       d="m 143.91247,105.83956 c 0,-4.69119 -3.52153,-8.494159 -7.86454,-8.494159 -4.34302,0 -7.86374,3.802969 -7.86374,8.494159 0,4.69119 3.52072,8.49417 7.86374,8.49417 4.34301,0 7.86454,-3.80298 7.86454,-8.49417"
       style="fill:#3c3a3e;fill-opacity:1;fill-rule:nonzero;stroke:none;stroke-width:0.08386736"
       id="path54"
       inkscape:connector-curvature="0" />
    <path
       d="m 142.17835,105.83956 c 0,-3.6574 -2.74443,-6.621865 -6.13042,-6.621865 -3.38516,0 -6.1304,2.964465 -6.1304,6.621865 0,3.65743 2.74524,6.62187 6.1304,6.62187 3.38599,0 6.13042,-2.96444 6.13042,-6.62187"
       style="fill:#211d1d;fill-opacity:1;fill-rule:nonzero;stroke:none;stroke-width:0.08386736"
       id="path56"
       inkscape:connector-curvature="0" />
    <path
       d="m 139.48393,103.98385 c 0,-1.02506 -0.76902,-1.85486 -1.71798,-1.85486 -0.94819,0 -1.71802,0.8298 -1.71802,1.85486 0,1.02504 0.76983,1.85571 1.71802,1.85571 0.94896,0 1.71798,-0.83067 1.71798,-1.85571"
       style="fill:#ffffff;fill-opacity:1;fill-rule:nonzero;stroke:none;stroke-width:0.08386736"
       id="path58"
       inkscape:connector-curvature="0" />
    <path
       d="m 188.15441,105.83956 c 0,-4.69119 -3.52072,-8.494159 -7.86375,-8.494159 -4.34301,0 -7.86373,3.802969 -7.86373,8.494159 0,4.69119 3.52072,8.49417 7.86373,8.49417 4.34303,0 7.86375,-3.80298 7.86375,-8.49417"
       style="fill:#3c3a3e;fill-opacity:1;fill-rule:nonzero;stroke:none;stroke-width:0.08386736"
       id="path60"
       inkscape:connector-curvature="0" />
    <path
       d="m 186.42106,105.83956 c 0,-3.6574 -2.74442,-6.621865 -6.1304,-6.621865 -3.38597,0 -6.13041,2.964465 -6.13041,6.621865 0,3.65743 2.74444,6.62187 6.13041,6.62187 3.38598,0 6.1304,-2.96444 6.1304,-6.62187"
       style="fill:#211d1d;fill-opacity:1;fill-rule:nonzero;stroke:none;stroke-width:0.08386736"
       id="path62"
       inkscape:connector-curvature="0" />
    <path
       d="m 183.72667,103.98385 c 0,-1.02506 -0.76903,-1.85486 -1.71719,-1.85486 -0.94979,0 -1.71882,0.8298 -1.71882,1.85486 0,1.02504 0.76903,1.85571 1.71882,1.85571 0.94816,0 1.71719,-0.83067 1.71719,-1.85571"
       style="fill:#ffffff;fill-opacity:1;fill-rule:nonzero;stroke:none;stroke-width:0.08386736"
       id="path64"
       inkscape:connector-curvature="0" />
    <path
       d="m 140.64755,125.22403 c 0,-0.71823 -0.53983,-1.3005 -1.20476,-1.3005 -0.66493,0 -1.20399,0.58227 -1.20399,1.3005 0,0.71824 0.53906,1.30049 1.20399,1.30049 0.66493,0 1.20476,-0.58225 1.20476,-1.30049"
       style="fill:#211d1d;fill-opacity:1;fill-rule:nonzero;stroke:none;stroke-width:0.08386736"
       id="path66"
       inkscape:connector-curvature="0" />
    <path
       d="m 145.70229,130.63866 c 0,-0.71823 -0.53902,-1.30047 -1.20396,-1.30047 -0.66573,0 -1.20479,0.58224 -1.20479,1.30047 0,0.71825 0.53906,1.30138 1.20479,1.30138 0.66494,0 1.20396,-0.58313 1.20396,-1.30138"
       style="fill:#211d1d;fill-opacity:1;fill-rule:nonzero;stroke:none;stroke-width:0.08386736"
       id="path68"
       inkscape:connector-curvature="0" />
    <path
       d="m 146.90628,124.66791 c 0,-0.71821 -0.53906,-1.30047 -1.20399,-1.30047 -0.66491,0 -1.20396,0.58226 -1.20396,1.30047 0,0.71823 0.53905,1.3005 1.20396,1.3005 0.66493,0 1.20399,-0.58227 1.20399,-1.3005"
       style="fill:#211d1d;fill-opacity:1;fill-rule:nonzero;stroke:none;stroke-width:0.08386736"
       id="path70"
       inkscape:connector-curvature="0" />
    <path
       d="m 176.10663,125.22403 c 0,-0.71823 0.53903,-1.3005 1.20396,-1.3005 0.66492,0 1.20397,0.58227 1.20397,1.3005 0,0.71824 -0.53905,1.30049 -1.20397,1.30049 -0.66493,0 -1.20396,-0.58225 -1.20396,-1.30049"
       style="fill:#211d1d;fill-opacity:1;fill-rule:nonzero;stroke:none;stroke-width:0.08386736"
       id="path72"
       inkscape:connector-curvature="0" />
    <path
       d="m 171.05106,130.63866 c 0,-0.71823 0.53905,-1.30047 1.20478,-1.30047 0.66494,0 1.20397,0.58224 1.20397,1.30047 0,0.71825 -0.53903,1.30138 -1.20397,1.30138 -0.66573,0 -1.20478,-0.58313 -1.20478,-1.30138"
       style="fill:#211d1d;fill-opacity:1;fill-rule:nonzero;stroke:none;stroke-width:0.08386736"
       id="path74"
       inkscape:connector-curvature="0" />
    <path
       d="m 169.84709,124.66791 c 0,-0.71821 0.53906,-1.30047 1.20397,-1.30047 0.66573,0 1.20478,0.58226 1.20478,1.30047 0,0.71823 -0.53905,1.3005 -1.20478,1.3005 -0.66491,0 -1.20397,-0.58227 -1.20397,-1.3005"
       style="fill:#211d1d;fill-opacity:1;fill-rule:nonzero;stroke:none;stroke-width:0.08386736"
       id="path76"
       inkscape:connector-curvature="0" />
    <path
       d="m 126.64372,174.99744 c 0,0 -11.22954,-14.46839 -12.41497,-28.59162 0,0 -1.24267,14.83012 9.25657,29.15904 l 3.1584,-0.56742"
       style="fill:#cba781;fill-opacity:1;fill-rule:nonzero;stroke:none;stroke-width:0.08386736"
       id="path78"
       inkscape:connector-curvature="0" />
  </g>
</svg>
