<?xml version="1.0" encoding="UTF-8" standalone="no"?>
<!-- Created with Inkscape (http://www.inkscape.org/) -->

<svg
   xmlns:dc="http://purl.org/dc/elements/1.1/"
   xmlns:cc="http://creativecommons.org/ns#"
   xmlns:rdf="http://www.w3.org/1999/02/22-rdf-syntax-ns#"
   xmlns:svg="http://www.w3.org/2000/svg"
   xmlns="http://www.w3.org/2000/svg"
   xmlns:sodipodi="http://sodipodi.sourceforge.net/DTD/sodipodi-0.dtd"
   xmlns:inkscape="http://www.inkscape.org/namespaces/inkscape"
   version="1.1"
   id="svg2"
   xml:space="preserve"
   width="666.66669"
   height="666.66669"
   viewBox="0 0 666.66669 666.66669"
   sodipodi:docname="dog3.svg"
   inkscape:version="0.92.3 (2405546, 2018-03-11)"><metadata
     id="metadata8"><rdf:RDF><cc:Work
         rdf:about=""><dc:format>image/svg+xml</dc:format><dc:type
           rdf:resource="http://purl.org/dc/dcmitype/StillImage" /><dc:title></dc:title></cc:Work></rdf:RDF></metadata><defs
     id="defs6"><clipPath
       clipPathUnits="userSpaceOnUse"
       id="clipPath198"><path
         d="m 3026.39,1095.96 c 0,0 573.71,-93.91 1147.42,0 0,0 520.36,-207.241 258.23,371.54 -54.85,121.12 -504.87,201.31 -830.17,201.31 -306.78,0 -779.15,-18.25 -830.66,-134.21 -220.2,-495.6 255.18,-438.64 255.18,-438.64"
         id="path196"
         inkscape:connector-curvature="0" /></clipPath></defs><sodipodi:namedview
     pagecolor="#ffffff"
     bordercolor="#666666"
     borderopacity="1"
     objecttolerance="10"
     gridtolerance="10"
     guidetolerance="10"
     inkscape:pageopacity="0"
     inkscape:pageshadow="2"
     inkscape:window-width="2400"
     inkscape:window-height="1284"
     id="namedview4"
     showgrid="false"
     inkscape:zoom="1.5208438"
     inkscape:cx="134.1808"
     inkscape:cy="331.45476"
     inkscape:window-x="2391"
     inkscape:window-y="-9"
     inkscape:window-maximized="1"
     inkscape:current-layer="g12" /><g
     id="g10"
     inkscape:groupmode="layer"
     inkscape:label="ink_ext_XXXXXX"
     transform="matrix(1.3333333,0,0,-1.3333333,0,666.66667)"><g
       id="g12"
       transform="scale(0.1)"><path
         d="m 2694.746,587.87372 c -1179.1556,0 -2135.03648,96.78183 -2135.03648,216.15834 0,119.39502 955.88088,216.17684 2135.03648,216.17684 1179.1351,0 2134.9954,-96.78182 2134.9954,-216.17684 0,-119.37651 -955.8603,-216.15834 -2134.9954,-216.15834"
         style="fill:#eae3d7;fill-opacity:1;fill-rule:nonzero;stroke:none;stroke-width:1.94262838"
         id="path18"
         inkscape:connector-curvature="0" /><path
         d="m 2631.718,1559.3537 c -15.2391,-170.8401 -119.1647,-332.0757 -271.2072,-435.8679 -159.8571,-109.128 -361.3703,-153.9494 -556.6691,-196.19481 -179.875,-38.91519 -369.4308,-77.75675 -547.4805,-32.53054 -79.6619,20.22116 -158.4008,61.19703 -193.4528,128.46605 -35.0725,67.2872 -8.0811,162.3763 69.6119,188.0254 82.3897,27.1946 166.2356,-29.2921 249.015,-55.5668 101.3618,-32.1624 226.3513,-13.1188 295.4094,60.8106 60.9154,65.2451 69.017,157.1326 68.1351,242.2306 -1.5383,152.8823 -22.6023,309.0028 22.6843,456.4203 42.5998,138.549 221.2443,346.7955 412.1743,282.121 218.7419,-74.1135 469.9107,-434.7455 451.7796,-637.9139"
         style="fill:#b99874;fill-opacity:1;fill-rule:nonzero;stroke:none;stroke-width:1.94262838"
         id="path80"
         inkscape:connector-curvature="0" /><path
         d="M 851.32455,3173.5867 C 735.0929,2873.2502 702.68667,2528.773 864.57421,2245.9529 c 75.9084,-132.6058 189.88399,-244.1809 281.19559,-368.7277 135.9625,-185.4127 223.4593,-401.6448 394.7201,-561.7765 89.3837,-83.5708 198.0266,-148.2638 306.813,-210.5648 199.8521,-114.46394 411.3128,-225.91029 646.5245,-252.62645 106.6739,-12.1254 214.763,-6.29266 322.0727,-0.44169 339.5065,18.51005 695.9749,41.80386 981.6418,207.40024 73.4063,42.5583 141.8489,95.2547 184.8385,163.5173 66.3917,105.448 64.3817,233.3988 60.5667,354.4497 -5.0455,160.4444 -12.8803,329.555 -107.8223,465.62 -37.78,54.1132 -88.5223,101.5106 -115.5344,160.5733 -31.8935,69.808 -30.9295,155.4029 -90.7784,208.3937 -59.7054,52.8804 -158.5444,52.6228 -223.2748,100.4986 -81.6718,60.4243 -81.0359,172.4594 -134.9165,254.2088 -26.4172,40.0743 -65.5302,72.016 -96.952,109.0727 -38.5388,45.4471 -64.9765,97.9778 -94.5728,148.5031 -197.76,337.7981 -553.3875,598.2812 -961.8699,704.5389 -129.2146,33.616 -253.4863,60.5898 -385.6544,54.6651 -122.2207,-5.5015 -170.8095,42.7975 -245.713,129.5147 -39.7078,46.0174 -83.6409,89.1093 -131.1632,128.7236 -14.07,11.739 -29.4732,23.625 -48.3632,26.6794 -40.6717,6.587 -73.119,-28.7402 -95.5573,-59.8723 -94.0395,-130.4531 -158.9751,-259.1031 -238.5548,-395.2416 -83.21019,-142.3944 -162.05169,-287.3464 -220.89555,-439.4743"
         style="fill:#d7b28b;fill-opacity:1;fill-rule:nonzero;stroke:none;stroke-width:1.94262838"
         id="path82"
         inkscape:connector-curvature="0" /><path
         d="m 2051.3185,3748.5188 c -143.1616,29.8809 -305.0696,42.6871 -437.5454,103.3873 -79.6004,36.4864 -165.0872,157.574 -257.1578,153.011 -55.3776,-2.76 -90.7168,-52.954 -113.8318,-98.1803 -99.803,-195.1828 -187.7305,-478.3709 -59.2952,-677.9696 38.5183,-59.8355 95.3111,-108.2265 151.5913,-155.3847 93.5268,-78.4006 187.9765,-155.918 283.2878,-232.5708 101.8744,-81.8966 208.6304,-164.8236 338.7065,-202.8003 134.8754,-39.3751 280.9701,-26.3849 421.8755,-11.7573 142.6489,14.8116 285.3183,30.9113 425.8752,57.3515 142.7515,26.8634 298.4038,75.3095 364.2623,192.0549 50.2706,89.1461 33.5342,199.838 -19.6898,287.5857 -53.2652,87.7476 -138.5469,156.1572 -227.0281,216.8391 -256.9526,176.1946 -556.0334,302.7101 -871.0505,368.4335"
         style="fill:#cba781;fill-opacity:1;fill-rule:nonzero;stroke:none;stroke-width:1.94262838"
         id="path84"
         inkscape:connector-curvature="0" /><path
         d="m 3013.332,4264.1121 c 18.7053,-18.7675 38.2721,-37.0016 52.26,-57.0019 35.8316,-51.2613 60.1361,-109.6431 85.8356,-165.302 49.2656,-106.7728 97.9775,-219.783 198.1496,-297.2453 18.767,-14.4989 44.897,-28.0043 66.8839,-17.8292 15.5674,7.2125 22.3973,23.6803 26.7866,38.8967 15.8953,55.2539 17.126,112.9919 15.5057,170.0307 -3.5688,125.5771 -28.6119,264.5677 -138.1162,342.8763 -82.4512,58.9339 -260.4598,94.4451 -362.3548,70.3416 6.194,-33.0824 29.822,-59.4306 55.0496,-84.7669"
         style="fill:#3c3a3e;fill-opacity:1;fill-rule:nonzero;stroke:none;stroke-width:1.94262838"
         id="path86"
         inkscape:connector-curvature="0" /><path
         d="m 2406.7408,4513.6474 c 0,0 -787.0813,126.0003 -873.0603,-100.7745 -50.0041,-131.9436 -168.7174,-247.217 -232.7915,-376.4925 -70.0221,-141.2169 -115.5343,-293.8231 -111.7809,-449.2812 3.261,-134.7218 44.8559,-270.9709 134.3422,-379.1972 54.824,-66.3121 125.7073,-120.3701 197.2677,-172.2754 89.158,-64.6745 180.4288,-127.0124 273.648,-186.903 72.1756,-46.3487 146.7303,-91.814 230.8635,-117.0951 65.7148,-19.7611 135.5728,-26.6242 204.8975,-26.5138 105.3202,0.2024 205.1642,28.9978 308.741,32.5857 109.1556,3.7903 215.3783,34.2417 317.5399,69.0169 158.1136,53.8556 462.3219,159.322 535.0513,305.8747 25.1866,50.7462 35.0521,106.3682 43.7893,161.3645 24.9611,157.4453 41.5744,322.1769 -18.0489,471.9312 -29.2271,73.5431 -76.1751,141.2351 -98.2032,216.784 -15.6699,53.7635 -18.3157,110.2135 -36.6313,163.2963 -41.3488,119.8918 -167.4868,207.5474 -287.6359,261.6974 -365.4725,164.6579 -587.9884,125.982 -587.9884,125.982"
         style="fill:#d7b28b;fill-opacity:1;fill-rule:nonzero;stroke:none;stroke-width:1.94262838"
         id="path88"
         inkscape:connector-curvature="0" /><path
         d="m 2406.7408,4513.6474 c 0,0 -184.941,169.129 -477.4583,116.6534 -292.5175,-52.4756 -500.6556,-51.206 -455.0818,-333.9342 45.5533,-282.7465 254.3683,-282.7465 254.3683,-282.7465 0,0 70.5758,-196.8204 208.774,-223.0583 138.1982,-26.2378 268.1921,730.1143 469.3978,723.0856"
         style="fill:#3c3a3e;fill-opacity:1;fill-rule:nonzero;stroke:none;stroke-width:1.94262838"
         id="path90"
         inkscape:connector-curvature="0" /><path
         d="m 2951.473,2782.7794 c 85.2202,12.1253 160.4313,57.002 224.7515,108.5944 45.943,36.8175 88.6248,78.5663 114.037,128.9076 43.6049,86.3308 31.4628,186.3878 11.9985,279.5449 -10.1321,48.575 -28.4887,104.0497 -79.5798,122.5046 -31.2986,11.3157 -67.8069,4.8206 -97.2802,-9.9359 -29.4733,-14.7564 -53.2856,-36.9464 -76.6468,-58.7866 -91.6809,-85.7973 -183.3618,-171.5762 -275.0631,-257.3736 -72.0321,-67.3977 -107.7815,-143.3511 -50.7014,-229.7373 45.5533,-68.9616 143.6949,-95.7882 228.4843,-83.7181"
         style="fill:#211d1d;fill-opacity:1;fill-rule:nonzero;stroke:none;stroke-width:1.94262838"
         id="path92"
         inkscape:connector-curvature="0" /><path
         d="m 3253.2815,3027.2548 c -2.3586,-25.0786 -4.061,-53.874 15.9981,-71.464 18.8488,-16.5044 50.7013,-15.3821 73.4266,-3.4224 22.7254,11.9782 38.1697,32.3282 51.809,52.5492 78.7389,116.7639 121.7284,254.0616 109.4222,390.8626 -11.9985,133.3971 -90.0194,264.9357 -215.6448,340.2452 -6.0916,3.6432 -12.5523,7.2495 -19.8335,8.0223 -7.3836,0.7911 -14.7879,-1.472 -21.4537,-4.4896 -20.5924,-9.2733 -41.041,-30.3777 -54.5983,-47.1213 -58.7209,-72.6416 14.6238,-219.4519 33.2266,-294.9823 29.904,-121.3637 39.2566,-246.3337 27.6478,-370.1997"
         style="fill:#3c3a3e;fill-opacity:1;fill-rule:nonzero;stroke:none;stroke-width:1.94262838"
         id="path94"
         inkscape:connector-curvature="0" /><path
         d="m 3263.2291,3774.1126 c 0,0 -701.1435,-230.8597 -807.8584,-531.785 -106.7354,-300.9069 243.9286,-410.3477 426.9007,-300.9069 182.972,109.4224 335.8556,297.0063 383.7265,553.9565 47.8709,256.9502 -2.7688,278.7354 -2.7688,278.7354"
         style="fill:#3c3a3e;fill-opacity:1;fill-rule:nonzero;stroke:none;stroke-width:1.94262838"
         id="path96"
         inkscape:connector-curvature="0" /><path
         d="m 3215.1325,3789.8811 c -67.2737,-33.5425 -172.4093,-108.4105 -156.7395,-186.5535 3.5483,-17.6085 14.2956,-34.7016 31.6884,-43.4966 14.8084,-7.4703 32.8369,-8.3719 47.6658,-15.7869 26.6018,-13.2844 35.7904,-42.963 42.5384,-69.6056 5.3941,-21.3067 10.8088,-42.6318 16.2031,-63.957 4.3276,-17.0932 12.4702,-37.572 31.7498,-40.2952 16.4082,-2.2999 30.4373,10.1015 40.5694,21.8772 58.6593,68.244 95.5982,153.1398 81.4256,239.5259 -19.3206,117.4998 -45.0404,170.2513 -135.101,158.2917"
         style="fill:#211d1d;fill-opacity:1;fill-rule:nonzero;stroke:none;stroke-width:1.94262838"
         id="path98"
         inkscape:connector-curvature="0" /><path
         d="m 3279.3501,3663.2367 c 0.5128,-1.84 0.9845,-3.7167 1.3742,-5.575 11.855,-55.1805 -31.6473,-116.764 -99.7825,-76.0641 l -2.8509,2.1712 c -4.3686,5.0415 2.5023,11.5366 8.0195,15.5661 13.6598,9.9541 23.1766,24.3427 26.3557,39.8719 2.5433,12.4565 1.2102,25.741 6.9735,37.3328 9.1886,18.51 35.0931,21.7115 49.3477,6.5503 5.3327,-5.6488 8.4913,-12.6406 10.5628,-19.8532"
         style="fill:#3c3a3e;fill-opacity:1;fill-rule:nonzero;stroke:none;stroke-width:1.94262838"
         id="path100"
         inkscape:connector-curvature="0" /><path
         d="m 2643.5114,3171.5444 c -1.5794,19.8347 -20.7975,34.7568 -42.9075,33.34 -22.0895,-1.4351 -38.7438,-18.6571 -37.1645,-38.492 1.5997,-19.8347 20.8178,-34.7568 42.9074,-33.34 22.11,1.4168 38.7644,18.6572 37.1646,38.492"
         style="fill:#211d1d;fill-opacity:1;fill-rule:nonzero;stroke:none;stroke-width:1.94262838"
         id="path102"
         inkscape:connector-curvature="0" /><path
         d="m 2823.5094,3032.8666 c -1.5793,19.8348 -20.7974,34.7569 -42.9074,33.3217 -22.0895,-1.4167 -38.7234,-18.6388 -37.144,-38.4735 1.5996,-19.8348 20.7973,-34.7569 42.9074,-33.3401 22.11,1.4352 38.7439,18.6572 37.144,38.4919"
         style="fill:#211d1d;fill-opacity:1;fill-rule:nonzero;stroke:none;stroke-width:1.94262838"
         id="path104"
         inkscape:connector-curvature="0" /><path
         d="m 2837.2718,3207.5524 c -1.5793,19.8347 -20.7974,34.7568 -42.9074,33.34 -22.11,-1.4351 -38.744,-18.6756 -37.1442,-38.492 1.5793,-19.8347 20.777,-34.7568 42.887,-33.34 22.1307,1.4168 38.744,18.6572 37.1646,38.492"
         style="fill:#211d1d;fill-opacity:1;fill-rule:nonzero;stroke:none;stroke-width:1.94262838"
         id="path106"
         inkscape:connector-curvature="0" /><path
         d="m 2951.514,3820.9396 c 0,96.3219 -87.0251,174.4097 -194.3962,174.4097 -107.3918,0 -194.4169,-78.0878 -194.4169,-174.4097 0,-96.3034 87.0251,-174.4098 194.4169,-174.4098 107.3711,0 194.3962,78.1064 194.3962,174.4098"
         style="fill:#3c3a3e;fill-opacity:1;fill-rule:nonzero;stroke:none;stroke-width:1.94262838"
         id="path108"
         inkscape:connector-curvature="0" /><path
         d="m 2908.6681,3820.9396 c 0,75.1071 -67.848,135.973 -151.5503,135.973 -83.7025,0 -151.571,-60.8659 -151.571,-135.973 0,-75.0888 67.8685,-135.9546 151.571,-135.9546 83.7023,0 151.5503,60.8658 151.5503,135.9546"
         style="fill:#211d1d;fill-opacity:1;fill-rule:nonzero;stroke:none;stroke-width:1.94262838"
         id="path110"
         inkscape:connector-curvature="0" /><path
         d="m 2842.0508,3859.0451 c 0,21.0492 -18.9926,38.1056 -42.4562,38.1056 -23.4844,0 -42.4768,-17.0564 -42.4768,-38.1056 0,-21.0308 18.9924,-38.1055 42.4768,-38.1055 23.4636,0 42.4562,17.0747 42.4562,38.1055"
         style="fill:#ffffff;fill-opacity:1;fill-rule:nonzero;stroke:none;stroke-width:1.94262838"
         id="path112"
         inkscape:connector-curvature="0" /><path
         d="m 1258.4942,1704.4898 99.844,-162.5788 c 0,0 244.667,754.5672 15.5673,1076.3208 -229.1202,321.7721 -115.4113,-913.742 -115.4113,-913.742"
         style="fill:#cba781;fill-opacity:1;fill-rule:nonzero;stroke:none;stroke-width:1.94262838"
         id="path114"
         inkscape:connector-curvature="0" /><path
         d="m 1373.9055,2618.2318 c 80.4618,-246.7936 49.6759,-511.895 -10.6243,-763.2886 C 1302.9606,1603.568 1213.8435,1357.2159 1177.93,1102.087 1161.6038,986.07763 1152.7229,860.40845 1069.3691,770.47119 958.20341,650.54264 756.7312,640.11011 585.65505,667.89349 c -52.03453,8.44546 -113.29871,27.96735 -123.59478,74.51836 -9.51687,43.03668 31.25761,80.60856 68.31957,109.29355 54.55742,42.17194 109.07368,84.34374 163.61045,126.51555 54.96747,42.52155 111.4527,86.79105 142.5053,145.63295 26.86846,50.9116 32.34468,108.5023 35.6878,164.7498 9.84499,164.9708 4.71741,330.6407 -15.28004,494.8387 -28.63241,235.0915 -87.61989,466.7976 -109.58644,702.4411 -12.44968,133.2132 -12.63432,268.4133 11.09605,400.6696 11.9986,66.8825 14.89051,235.2572 105.46385,261.127 126.5279,36.1184 289.70749,-222.7823 343.89559,-294.8902 35.1751,-46.7903 70.3297,-93.5804 105.5048,-140.389 34.4572,-45.8517 43.3381,-41.0862 60.6283,-94.1691"
         style="fill:#d7b28b;fill-opacity:1;fill-rule:nonzero;stroke:none;stroke-width:1.94262838"
         id="path116"
         inkscape:connector-curvature="0" /><path
         d="m 2092.4416,2372.3213 c 0,0 -210.5993,-247.5848 -155.0986,-723.1959 43.8509,-375.7749 -90.0401,-544.2415 -90.0401,-544.2415 l 122.5694,-68.2257 122.5693,1335.6631"
         style="fill:#cba781;fill-opacity:1;fill-rule:nonzero;stroke:none;stroke-width:1.94262838"
         id="path118"
         inkscape:connector-curvature="0" /><path
         d="m 2777.6075,2101.1849 c 1.8664,163.1309 -90.0811,378.5901 -292.7635,409.8878 -82.0821,12.6588 -166.1536,-2.7785 -246.5949,-22.1164 -31.1757,-7.4886 -63.1306,-16.0444 -88.0095,-34.4992 -28.1197,-20.8283 -43.933,-51.8685 -57.798,-82.1358 -176.0601,-384.1835 -12.819,-829.2327 -143.6129,-1227.6207 -53.5728,-163.14928 -150.2172,-314.79874 -279.7395,-438.99589 -40.5282,-38.82319 -87.4558,-82.08058 -84.3382,-135.20022 4.5533,-78.49263 110.0991,-115.07104 197.1036,-124.36287 81.8361,-8.73979 164.6565,-10.26693 246.8411,-4.56305 74.924,5.20707 154.0321,18.36268 209.4098,63.93847 66.925,55.08847 82.7384,142.57847 98.9825,222.7271 66.8635,329.81276 204.2002,644.15136 331.6304,959.26276 54.1472,133.8754 107.2482,271.2835 108.8891,413.678"
         style="fill:#d7b28b;fill-opacity:1;fill-rule:nonzero;stroke:none;stroke-width:1.94262838"
         id="path120"
         inkscape:connector-curvature="0" /><path
         d="m 4235.8257,1393.3527 c 88.3787,-57.9955 119.3082,-161.2357 155.837,-253.8408 7.6299,-19.3563 18.1721,-40.792 39.7899,-47.5631 33.3497,-10.4692 63.9306,20.7365 79.4158,49.2374 82.5333,151.9623 59.2541,340.4476 -38.0876,485.2156 -112.8474,167.7859 -322.3803,279.913 -540.5686,289.2785 -50.2706,2.1526 -61.264,-9.9359 -89.5887,-47.2318 -71.1297,-93.5251 -70.904,-221.3471 4.2045,-313.0507 99.5773,-121.5844 264.5619,-80.3878 388.9977,-162.0451"
         style="fill:#b99874;fill-opacity:1;fill-rule:nonzero;stroke:none;stroke-width:1.94262838"
         id="path122"
         inkscape:connector-curvature="0" /><path
         d="m 3170.0509,2108.2687 c 0,0 -323.8366,-206.8114 -162.7284,-631.3451 161.0875,-424.497 558.1663,-519.19977 558.1663,-519.19977 l 115.1856,53.54287 -510.6235,1097.002"
         style="fill:#cba781;fill-opacity:1;fill-rule:nonzero;stroke:none;stroke-width:1.94262838"
         id="path124"
         inkscape:connector-curvature="0" /><path
         d="m 4139.7351,1384.5024 c 45.738,288.3216 1.2717,688.4943 -357.617,793.648 -109.3606,32.0521 -226.8024,35.6032 -341.5163,27.6546 -292.5175,-20.2947 -416.2558,-209.7554 -409.3029,-465.3808 6.83,-250.2529 174.0296,-480.9654 394.3303,-634.5836 73.3447,-51.1325 153.3963,-95.7515 215.8911,-157.37173 62.4948,-61.63858 106.3252,-145.98232 87.4762,-227.5661 -17.0645,-73.8376 -78.8209,-160.20528 -19.4641,-213.56413 19.9154,-17.88439 48.7733,-24.96818 76.6673,-28.62975 128.8044,-16.96441 265.731,28.20657 351.587,115.99103 85.897,87.78446 118.0365,215.42247 82.5743,327.80717 -23.5458,74.59185 -74.1857,141.12481 -92.5218,216.87601 -19.4643,80.3877 -1.0255,163.6644 11.8959,245.1193"
         style="fill:#d7b28b;fill-opacity:1;fill-rule:nonzero;stroke:none;stroke-width:1.94262838"
         id="path126"
         inkscape:connector-curvature="0" /></g></g></svg>