<?xml version="1.0" encoding="UTF-8" standalone="no"?>
<!-- Created with Inkscape (http://www.inkscape.org/) -->

<svg
   xmlns:dc="http://purl.org/dc/elements/1.1/"
   xmlns:cc="http://creativecommons.org/ns#"
   xmlns:rdf="http://www.w3.org/1999/02/22-rdf-syntax-ns#"
   xmlns:svg="http://www.w3.org/2000/svg"
   xmlns="http://www.w3.org/2000/svg"
   xmlns:sodipodi="http://sodipodi.sourceforge.net/DTD/sodipodi-0.dtd"
   xmlns:inkscape="http://www.inkscape.org/namespaces/inkscape"
   width="210mm"
   height="297mm"
   viewBox="0 0 210 297"
   version="1.1"
   id="svg2073"
   inkscape:version="0.92.3 (2405546, 2018-03-11)"
   sodipodi:docname="dog4.svg">
  <defs
     id="defs2067" />
  <sodipodi:namedview
     id="base"
     pagecolor="#ffffff"
     bordercolor="#666666"
     borderopacity="1.0"
     inkscape:pageopacity="0.0"
     inkscape:pageshadow="2"
     inkscape:zoom="0.58"
     inkscape:cx="37.401575"
     inkscape:cy="560"
     inkscape:document-units="mm"
     inkscape:current-layer="layer1"
     showgrid="false"
     inkscape:window-width="2400"
     inkscape:window-height="1284"
     inkscape:window-x="2391"
     inkscape:window-y="-9"
     inkscape:window-maximized="1" />
  <metadata
     id="metadata2070">
    <rdf:RDF>
      <cc:Work
         rdf:about="">
        <dc:format>image/svg+xml</dc:format>
        <dc:type
           rdf:resource="http://purl.org/dc/dcmitype/StillImage" />
        <dc:title></dc:title>
      </cc:Work>
    </rdf:RDF>
  </metadata>
  <g
     inkscape:label="Layer 1"
     inkscape:groupmode="layer"
     id="layer1">
    <path
       d="m 139.57832,214.71555 c -6.51559,0 -12.92455,-1.4623 -17.33694,-6.06241 -1.94098,-2.02416 -3.43672,-4.60771 -5.91703,-5.90255 -1.73279,-0.90461 -3.72046,-1.05811 -5.69254,-1.05811 -0.44674,0 -0.89271,0.009 -1.33499,0.017 -8.80405,0.17308 -17.607363,0.346 -26.4114,0.51899 -2.141746,0.0417 -4.298308,0.0813 -6.455611,0.0813 -7.929125,0 -15.874548,-0.53443 -23.196191,-3.4512 -9.312999,-3.70923 -17.458448,-12.29382 -17.506601,-22.37464 -0.03112,-6.58416 3.307075,-12.99757 2.375107,-19.51389 -0.153364,-1.06766 -0.142989,-1.34352 0.07037,-1.34352 0.114097,0 0.285961,0.079 0.523028,0.15808 0.236325,0.0782 0.537844,0.15724 0.908999,0.15724 0.375604,0 0.823806,-0.0806 1.349798,-0.32282 10.643533,-4.8999 22.35016,-7.43634 34.052343,-7.43634 3.004815,0 6.007407,0.16696 8.993704,0.50399 l -20.809234,5.19516 c 16.632419,-3.97763 33.265581,-7.95452 49.898758,-11.93139 9.00925,-2.15398 18.34298,-4.21696 27.66712,-4.21696 1.10381,0 2.20618,0.0291 3.30926,0.0902 13.59798,0.75375 14.45662,3.2671 15.65082,15.72338 0.54674,5.70586 3.86864,10.69077 6.17188,15.93289 3.84269,8.74483 1.98321,31.64584 -4.8354,38.99204 -3.40487,3.66814 -8.62478,4.90744 -13.56167,5.62588 -2.56995,0.37368 -5.25029,0.6183 -7.91358,0.6183"
       style="fill:#eae3d7;fill-opacity:1;fill-rule:nonzero;stroke:none;stroke-width:0.07431987"
       id="path1275"
       inkscape:connector-curvature="0" />
    <path
       d="m 131.84998,118.19135 c 3.74564,2.39628 5.4977,6.89657 6.96678,11.11129 3.54341,10.16737 6.88826,20.60764 13.08384,29.39494 1.33201,1.88928 2.84182,3.73609 4.8554,4.85891 2.01432,1.12209 4.63761,1.389 6.5734,0.13421 3.3293,-2.1592 2.93592,-7.03897 2.78479,-11.02256 -0.26966,-7.12023 1.51056,-14.32245 0.19488,-21.32412 -1.63502,-8.70905 -8.37583,-16.24456 -16.81095,-18.79291 -2.12099,-0.64047 -4.35387,-0.99685 -6.31263,-2.03765 -1.9195,-1.01921 -3.46709,-2.64082 -5.36436,-3.70253 -4.38648,-2.45294 -9.83899,-1.54334 -14.63588,-0.0605 -0.55785,0.17224 -0.69861,0.14096 -0.56452,0.71127 0.13335,0.57112 0.53193,1.03635 0.91788,1.47624 3.40637,3.88965 3.96272,6.47231 8.31141,9.25329"
       style="fill:#b99874;fill-opacity:1;fill-rule:nonzero;stroke:none;stroke-width:0.07431987"
       id="path1277"
       inkscape:connector-curvature="0" />
    <path
       d="m 140.59995,173.28249 c 1.17644,-3.69432 1.95356,-7.5176 2.31435,-11.38044 0.0593,-0.63969 -0.11405,-1.53437 -0.75119,-1.51351 -1.6254,3.38492 -3.25005,6.76908 -4.87542,10.15398 -0.94754,1.97426 -2.00025,4.04099 -3.35894,5.74985 0.35116,-0.0932 0.69934,-0.21029 1.04457,-0.35863 0.67045,-0.28929 1.35572,-0.6919 2.07581,-0.57782 1.03348,0.16337 1.57352,1.35771 1.45204,2.42162 0.12224,-0.16632 0.25187,-0.32804 0.36447,-0.5025 0.78826,-1.22199 1.29203,-2.60428 1.73431,-3.99255"
       style="fill:#cba781;fill-opacity:1;fill-rule:nonzero;stroke:none;stroke-width:0.07431987"
       id="path1279"
       inkscape:connector-curvature="0" />
    <path
       d="m 137.50401,199.17855 c -0.37264,0.14624 -0.60379,0.51808 -0.78084,0.87978 -0.86531,1.7588 -1.07126,3.73808 -1.11867,5.71853 l 0.10291,0.0216 c 0.64603,0.18408 1.20314,0.56731 1.72616,1.00071 -0.0147,-0.33727 -0.0223,-0.67279 -0.021,-1.00651 0.0128,-2.20616 0.28373,-4.41609 0.0902,-6.61405"
       style="fill:#cba781;fill-opacity:1;fill-rule:nonzero;stroke:none;stroke-width:0.07431987"
       id="path1281"
       inkscape:connector-curvature="0" />
    <path
       d="m 150.19223,200.01442 c -0.61268,0.20711 -0.66749,1.0429 -0.62081,1.69237 0.20811,2.95373 0.12518,5.92791 -0.24002,8.86619 0.61415,-0.24147 1.22977,-0.47268 1.88466,-0.52106 0.50303,-0.0375 0.99421,0.0366 1.48019,0.15829 -0.15771,-1.48392 -0.34671,-2.96544 -0.57341,-4.43996 -0.30966,-2.02207 -0.71713,-4.11408 -1.93061,-5.75576"
       style="fill:#cba781;fill-opacity:1;fill-rule:nonzero;stroke:none;stroke-width:0.07431987"
       id="path1283"
       inkscape:connector-curvature="0" />
    <path
       d="m 164.47622,199.57661 c -0.24596,-0.29904 -0.77121,-0.55188 -0.94901,-0.20732 -0.0675,0.13272 -0.0334,0.293 0.003,0.43832 0.69936,2.80491 1.1757,5.66494 1.44017,8.54441 0.769,-0.42579 1.53871,-0.85309 2.31363,-1.24652 -0.23929,-0.95582 -0.4808,-1.91113 -0.74306,-2.85942 -0.45782,-1.65361 -0.97865,-3.34688 -2.06469,-4.66945"
       style="fill:#cba781;fill-opacity:1;fill-rule:nonzero;stroke:none;stroke-width:0.07431987"
       id="path1285"
       inkscape:connector-curvature="0" />
    <path
       d="m 129.54895,198.78423 c 0.004,0.10648 0.004,0.21315 0.0102,0.31975 0.16234,2.65932 1.22313,5.7767 3.8027,6.37839 0.73489,0.17056 1.5113,0.11181 2.24174,0.29449 0.0243,-1.00449 0.0902,-2.0093 0.26151,-2.98518 -0.98825,-0.17394 -1.98837,-0.30144 -2.91145,-0.68385 -1.54243,-0.64134 -2.61811,-1.85431 -3.40561,-3.3236"
       style="fill:#b99874;fill-opacity:1;fill-rule:nonzero;stroke:none;stroke-width:0.07431987"
       id="path1287"
       inkscape:connector-curvature="0" />
    <path
       d="m 152.24063,206.60423 c 0.17261,1.19903 0.32745,2.40097 0.45562,3.60588 0.87269,0.2184 1.72911,0.59699 2.60995,0.80492 3.37448,0.79949 6.5097,-0.91533 9.66414,-2.66303 -0.13103,-1.42852 -0.31485,-2.85272 -0.55191,-4.26757 -0.90826,0.61799 -1.7691,1.31727 -2.76627,1.77222 -2.88627,1.31816 -6.27113,0.34223 -9.41153,0.74758"
       style="fill:#b99874;fill-opacity:1;fill-rule:nonzero;stroke:none;stroke-width:0.07431987"
       id="path1289"
       inkscape:connector-curvature="0" />
    <path
       d="m 176.45991,200.31756 c -0.0577,-1.04439 -0.60673,-1.98829 -1.14162,-2.88528 -0.12595,-0.21174 -0.25114,-0.4226 -0.37708,-0.63434 -0.60303,1.78416 -1.4913,3.41539 -3.03814,4.40991 -1.69208,1.08719 -3.82568,1.17137 -5.69331,1.90412 0.11776,0.37748 0.22595,0.75699 0.33116,1.13408 0.26226,0.9483 0.50375,1.9036 0.74306,2.85943 0.64673,-0.32968 1.29792,-0.63605 1.95429,-0.89699 1.55354,-0.61801 3.213,-0.999 4.65094,-1.85581 1.43722,-0.8551 2.66258,-2.35669 2.5707,-4.03512"
       style="fill:#b99874;fill-opacity:1;fill-rule:nonzero;stroke:none;stroke-width:0.07431987"
       id="path1291"
       inkscape:connector-curvature="0" />
    <path
       d="m 137.50401,203.1799 c -0.0407,0.87075 -0.0859,1.74157 -0.0902,2.61271 -0.003,0.33371 0.006,0.66922 0.021,1.00652 0.26447,0.21897 0.52154,0.45025 0.77712,0.67683 2.74554,2.43795 6.39118,4.57417 9.90567,3.53998 0.41118,-0.12153 0.8127,-0.28392 1.21497,-0.44296 0.13482,-1.08315 0.21705,-2.17176 0.27484,-3.26187 -0.85861,0.31306 -1.71502,0.62412 -2.62179,0.67043 -3.59231,0.18492 -6.07038,-3.64809 -9.48044,-4.80164"
       style="fill:#b99874;fill-opacity:1;fill-rule:nonzero;stroke:none;stroke-width:0.07431987"
       id="path1293"
       inkscape:connector-curvature="0" />
    <path
       d="m 174.94121,196.79794 c -2.68255,-4.5026 -5.36511,-9.0043 -8.04767,-13.50612 6.05039,-2.08239 9.01816,-9.46581 8.02544,-15.82331 -0.99197,-6.35749 -5.00063,-11.79795 -9.27078,-16.58675 -4.27089,-4.79032 -8.99739,-9.31296 -11.9822,-15.00317 -2.42697,-4.62927 -3.61527,-9.88407 -6.45043,-14.27175 -2.53511,-3.92248 -6.23708,-6.91742 -9.97233,-9.7044 -6.26671,-4.67548 -13.4424,-9.1504 -21.22782,-8.66055 -8.96703,0.56439 -16.441276,7.8807 -19.73577,16.29299 -3.29374,8.41156 -3.157407,17.75434 -2.482511,26.77055 0.743797,9.91983 2.741818,23.85982 11.191751,30.53493 3.57969,2.82797 7.82244,1.96309 11.8622,0.67176 3.18038,-1.01621 5.64513,-1.79384 9.03001,-1.48367 2.66773,0.24378 5.42214,0.96402 8.04765,0.26392 1.35869,-1.70886 2.4114,-3.77559 3.35894,-5.74985 1.62537,-3.3849 3.25002,-6.76906 4.87542,-10.15398 0.63712,-0.0212 0.81046,0.87382 0.75119,1.51351 -0.36079,3.86284 -1.13791,7.68612 -2.31435,11.38044 -0.44228,1.38827 -0.94605,2.77056 -1.73431,3.99255 -0.11251,0.17435 -0.24223,0.33624 -0.36447,0.5025 -0.0168,0.15281 -0.0481,0.30272 -0.0941,0.44659 -0.36004,1.14745 -1.29941,1.99444 -2.13878,2.85257 -4.53389,4.63143 -7.02234,11.21431 -6.71936,17.70753 0.78752,1.46929 1.86321,2.68226 3.40561,3.3236 0.92307,0.38241 1.9232,0.50998 2.91148,0.68385 0.1659,-0.94771 0.43117,-1.86714 0.85713,-2.73335 0.17702,-0.3617 0.4082,-0.73357 0.78084,-0.87978 0.11775,1.33061 0.063,2.66542 0,4.00135 3.41006,1.15355 5.88814,4.98654 9.48043,4.80164 0.90678,-0.0463 1.76318,-0.35737 2.62181,-0.67043 0.0984,-1.86772 0.0964,-3.73978 -0.0348,-5.60432 -0.0466,-0.64947 0.009,-1.48532 0.62082,-1.69237 1.21348,1.64167 1.62092,3.73367 1.93061,5.75574 0.0422,0.27728 0.0777,0.55598 0.11776,0.83407 3.14037,-0.40535 6.52523,0.57058 9.41151,-0.74758 0.99716,-0.45495 1.85802,-1.15423 2.76629,-1.77222 -0.24079,-1.43696 -0.53563,-2.86375 -0.88828,-4.27684 -0.0363,-0.14519 -0.0704,-0.30554 -0.003,-0.43833 0.17788,-0.34453 0.70306,-0.0918 0.94901,0.20733 0.83788,1.02054 1.33796,2.26207 1.73356,3.53536 1.86762,-0.73275 4.00122,-0.81693 5.69329,-1.90412 1.54686,-0.99452 2.43512,-2.62576 3.03816,-4.40991"
       style="fill:#d7b28b;fill-opacity:1;fill-rule:nonzero;stroke:none;stroke-width:0.07431987"
       id="path1295"
       inkscape:connector-curvature="0" />
    <path
       d="m 110.5644,104.14998 c 2.4114,3.0986 5.5703,5.60448 9.12704,7.24101 3.98271,1.83187 8.98036,3.07922 10.57167,7.18433 1.70984,4.41083 -1.71355,9.06246 -2.22323,13.76924 -0.24819,2.29488 0.21113,4.59945 0.49339,6.89061 1.77133,14.36941 -3.90196,29.4613 -14.67885,39.05309 0,0 -6.39856,1.92134 -11.07988,-3.51239 l 7.78986,-70.62589"
       style="fill:#cba781;fill-opacity:1;fill-rule:nonzero;stroke:none;stroke-width:0.07431987"
       id="path1297"
       inkscape:connector-curvature="0" />
    <path
       d="m 29.324005,120.89928 c -4.732433,3.2358 -5.962956,9.80205 -5.320655,15.52282 0.643783,5.72154 2.722558,11.2425 2.954438,16.99533 0.144459,3.59069 -0.436349,7.17465 -0.410421,10.76832 0.0067,0.91706 0.16298,2.01157 0.985308,2.40598 0.448943,0.21472 0.974933,0.14835 1.463143,0.0552 5.781453,-1.1094 10.57834,-5.39794 13.63353,-10.46113 3.055192,-5.06243 4.607975,-10.88015 6.005186,-16.63449 1.294975,-5.33231 5.188046,-16.93643 -1.020868,-20.6695 -4.427953,-2.66394 -14.393624,-0.64791 -18.289661,2.01751"
       style="fill:#3c3a3e;fill-opacity:1;fill-rule:nonzero;stroke:none;stroke-width:0.07431987"
       id="path1299"
       inkscape:connector-curvature="0" />
    <path
       d="m 33.724547,125.78875 c -2.375848,4.57335 -2.890727,9.88555 -2.950734,15.04642 -0.176315,15.09709 4.122731,31.62495 16.479067,40.18563 7.580195,5.25174 17.110999,6.74378 26.307687,7.06646 12.345965,0.43393 25.488327,-1.28469 35.142123,-9.04148 6.31632,-5.07513 10.60055,-12.35565 13.31496,-20.01716 4.06347,-11.46987 4.79097,-24.35562 0.65787,-35.79943 -4.13311,-11.44379 -13.44462,-21.18693 -25.089777,-24.490572 -12.509687,-3.54818 -25.955784,3.961972 -36.744521,9.625352 -9.252991,4.85741 -21.878251,7.34463 -27.116675,17.42478"
       style="fill:#d7b28b;fill-opacity:1;fill-rule:nonzero;stroke:none;stroke-width:0.07431987"
       id="path1301"
       inkscape:connector-curvature="0" />
    <path
       d="m 112.14015,136.50188 c 1.41202,3.04269 2.39213,6.30979 4.21087,9.12582 1.81801,2.81528 4.75615,5.20634 8.09286,5.18098 -2.21806,-5.30027 -2.47216,-11.40651 -0.70528,-16.87604 1.10903,-3.43336 2.96926,-6.58043 4.11828,-10.00185 4.30942,-12.83059 -7.31645,-15.04642 -16.18644,-19.31183 -6.81341,-3.27679 -12.007403,-7.135152 -19.903179,-5.687232 -15.53081,2.847342 -5.624407,11.050872 1.723174,16.790292 7.360155,5.74911 14.632905,12.12078 18.649715,20.77986"
       style="fill:#3c3a3e;fill-opacity:1;fill-rule:nonzero;stroke:none;stroke-width:0.07431987"
       id="path1303"
       inkscape:connector-curvature="0" />
    <path
       d="m 86.84294,194.1631 c 4.396845,-1.15126 9.270033,-3.01757 10.939866,-7.27024 1.438707,-3.66219 -0.17556,-8.00813 -3.050013,-10.68027 -2.874413,-2.67215 -6.761562,-3.94782 -10.600553,-4.7098 -4.988023,-0.99009 -10.326458,-1.20408 -15.001848,0.80747 -3.756759,1.61566 -6.791208,4.53532 -9.627111,7.49526 -5.545871,5.79161 -8.96481,13.54764 0.911221,15.87256 8.701072,2.04659 17.897763,0.71709 26.428438,-1.51498"
       style="fill:#211d1d;fill-opacity:1;fill-rule:nonzero;stroke:none;stroke-width:0.07431987"
       id="path1305"
       inkscape:connector-curvature="0" />
    <path
       d="m 64.590574,186.42456 c 0.933448,-0.6099 2.115815,0.19316 2.959623,0.92465 2.966291,2.56933 6.261512,4.75362 9.778983,6.48038 1.336461,0.65559 2.777382,1.25933 4.258302,1.12596 -3.863439,-2.48866 -7.420914,-5.45842 -10.566487,-8.8173 -0.343745,-0.3681 -0.660823,-1.01755 -0.244475,-1.29802 0.188915,-0.12661 0.439313,-0.0879 0.661565,-0.0417 3.44783,0.71492 6.771943,2.01447 10.262743,2.46993 3.064823,0.40052 6.417088,0.0359 8.902573,-1.72496 -0.171149,-1.10433 -0.206638,-2.24208 -0.554146,-3.30378 -0.866026,-2.64454 -3.451527,-4.26767 -5.891084,-5.58135 -3.728609,-2.0086 -7.677985,-3.85313 -11.897023,-4.14316 -5.856278,-0.40187 -12.610444,3.54671 -13.369797,9.45536 -0.145949,1.13177 -0.07186,2.33738 0.271887,3.5959 0.491911,1.8072 1.441659,3.43254 2.640326,4.87388 0.700825,-1.07578 1.401652,-2.15254 2.103222,-3.22833 0.191141,-0.29301 0.391157,-0.59593 0.683788,-0.78756"
       style="fill:#d24b5d;fill-opacity:1;fill-rule:nonzero;stroke:none;stroke-width:0.07431987"
       id="path1307"
       inkscape:connector-curvature="0" />
    <path
       d="m 94.101618,193.36829 c -0.17031,-2.43503 -2.414367,-4.19002 -3.194473,-6.50222 -0.145109,-0.42959 -0.234843,-0.87373 -0.303744,-1.32249 -2.485485,1.76083 -5.83775,2.12547 -8.902573,1.72496 -3.4908,-0.45547 -6.814913,-1.75499 -10.262743,-2.46993 -0.222252,-0.0463 -0.472653,-0.085 -0.661565,0.0417 -0.416348,0.2805 -0.09926,0.92995 0.244475,1.29805 3.145573,3.35888 6.703048,6.32864 10.566487,8.81729 -1.48092,0.13336 -2.921841,-0.47039 -4.258302,-1.12598 -3.517471,-1.72673 -6.812692,-3.91104 -9.778983,-6.48036 -0.843808,-0.73156 -2.026175,-1.53454 -2.959623,-0.92467 -0.292631,0.19169 -0.492655,0.49455 -0.683788,0.78756 -0.70157,1.07579 -1.402397,2.15254 -2.103222,3.22833 0.888256,1.06914 1.913568,2.03697 2.994441,2.9002 6.01852,4.80895 16.004936,8.11714 23.605873,6.01089 2.871459,-0.79478 5.905912,-2.99282 5.69774,-5.98322"
       style="fill:#f4687a;fill-opacity:1;fill-rule:nonzero;stroke:none;stroke-width:0.07431987"
       id="path1309"
       inkscape:connector-curvature="0" />
    <path
       d="m 38.378454,174.77289 c -0.595628,7.59514 6.011111,17.29065 13.32016,19.30951 1.225336,0.33783 2.570688,0.50558 3.737499,0.001 0.963823,-0.41765 1.686874,-1.24009 2.351399,-2.05793 2.513643,-3.09473 4.664279,-6.48879 6.393382,-10.08828 8.754412,1.77224 17.509563,3.54388 26.263979,5.31601 3.24187,0.6559 6.641554,1.30684 9.810087,0.35417 6.50155,-1.95505 9.39302,-10.51043 6.84159,-16.8381 -3.1189,-7.73308 -11.095444,-10.88165 -18.682304,-12.11107 -7.432766,-1.20435 -16.730947,-2.87071 -22.792435,-7.58944 -3.038151,-2.36569 -6.084454,-5.68797 -9.90048,-5.24956 -3.4908,0.40185 -5.750337,3.80017 -7.478697,6.8794 -1.974318,3.51911 -3.899,7.06803 -5.771084,10.64304 -1.866896,3.56683 -3.716013,7.27306 -4.081241,11.28798 l -0.01178,0.14307"
       style="fill:#3c3a3e;fill-opacity:1;fill-rule:nonzero;stroke:none;stroke-width:0.07431987"
       id="path1311"
       inkscape:connector-curvature="0" />
    <path
       d="m 49.108666,159.89723 c -1.181628,6.1532 3.249289,4.1834 6.797134,7.23875 0.942337,0.81193 1.76466,1.93403 2.989998,2.13085 1.280898,0.205 2.492899,-0.72618 3.195948,-1.82293 0.704532,-1.09525 1.070503,-2.37911 1.737252,-3.49822 1.100135,-1.8453 3.155204,-1.39868 4.201999,-2.86672 0.681565,-0.95509 0.555623,-2.31054 0,-3.34541 -0.555625,-1.03409 -1.467588,-1.81769 -2.359551,-2.57744 -3.164833,-2.69299 -4.904306,-4.92525 -9.015183,-3.27977 -4.469442,1.78714 -6.585998,3.01435 -7.547597,8.02089"
       style="fill:#211d1d;fill-opacity:1;fill-rule:nonzero;stroke:none;stroke-width:0.07431987"
       id="path1313"
       inkscape:connector-curvature="0" />
    <path
       d="m 64.38314,160.77327 c -0.44598,-1.62684 -2.881096,-3.4095 -4.590195,-3.73235 -0.520063,-0.0985 -1.135697,-0.009 -1.438697,0.42872 -0.152606,0.22068 -0.20225,0.49654 -0.225952,0.76569 -0.17113,1.94223 0.929001,3.93737 2.657364,4.82013 0.53414,-0.15216 0.317818,-0.97446 0.537844,-1.48667 0.361526,-0.83876 2.308432,-0.43913 3.059636,-0.79552"
       style="fill:#3c3a3e;fill-opacity:1;fill-rule:nonzero;stroke:none;stroke-width:0.07431987"
       id="path1315"
       inkscape:connector-curvature="0" />
    <path
       d="m 52.356473,163.0823 c 0.415607,0.3467 1.240894,0.26991 1.659465,0.0746 0.690456,-0.31986 0.7838,-0.19085 1.234965,0.32583 0.143724,0.16547 0.381529,0.29448 0.574887,0.19379 0.131124,-0.0685 0.194837,-0.2192 0.239288,-0.36161 0.348931,-1.14444 -0.126666,-3.51314 -1.723917,-3.38937 -1.014937,0.079 -1.2646,1.08108 -1.725396,1.79608 -0.168903,0.26097 -0.529694,0.49134 -0.511917,0.83429 0.01254,0.23488 0.108171,0.40636 0.252625,0.5264"
       style="fill:#3c3a3e;fill-opacity:1;fill-rule:nonzero;stroke:none;stroke-width:0.07431987"
       id="path1317"
       inkscape:connector-curvature="0" />
    <path
       d="m 84.313741,143.49611 c 0,-4.49357 -3.620439,-8.1372 -8.085437,-8.1372 -4.465737,0 -8.086184,3.64363 -8.086184,8.1372 0,4.4943 3.620447,8.13719 8.086184,8.13719 4.464998,0 8.085437,-3.64289 8.085437,-8.13719"
       style="fill:#3c3a3e;fill-opacity:1;fill-rule:nonzero;stroke:none;stroke-width:0.07431987"
       id="path1319"
       inkscape:connector-curvature="0" />
    <path
       d="m 82.53056,143.49611 c 0,-3.50345 -2.821086,-6.34333 -6.302256,-6.34333 -3.481912,0 -6.30374,2.83988 -6.30374,6.34333 0,3.50344 2.821828,6.34408 6.30374,6.34408 3.48117,0 6.302256,-2.84064 6.302256,-6.34408"
       style="fill:#211d1d;fill-opacity:1;fill-rule:nonzero;stroke:none;stroke-width:0.07431987"
       id="path1321"
       inkscape:connector-curvature="0" />
    <path
       d="m 79.760589,141.71866 c 0,-0.98191 -0.790467,-1.77744 -1.766884,-1.77744 -0.974933,0 -1.765401,0.79553 -1.765401,1.77744 0,0.98192 0.790468,1.77745 1.765401,1.77745 0.976417,0 1.766884,-0.79553 1.766884,-1.77745"
       style="fill:#ffffff;fill-opacity:1;fill-rule:nonzero;stroke:none;stroke-width:0.07431987"
       id="path1323"
       inkscape:connector-curvature="0" />
    <path
       d="m 46.110519,152.78146 c 0,-3.50269 -2.82183,-6.34259 -6.302999,-6.34259 -3.48117,0 -6.303,2.8399 -6.303,6.34259 0,3.50421 2.82183,6.34409 6.303,6.34409 3.481169,0 6.302999,-2.83988 6.302999,-6.34409"
       style="fill:#3c3a3e;fill-opacity:1;fill-rule:nonzero;stroke:none;stroke-width:0.07431987"
       id="path1325"
       inkscape:connector-curvature="0" />
    <path
       d="m 44.721457,152.78146 c 0,-2.73102 -2.20027,-4.94387 -4.913937,-4.94387 -2.713667,0 -4.913199,2.21285 -4.913199,4.94387 0,2.73179 2.199532,4.9454 4.913199,4.9454 2.713667,0 4.913937,-2.21361 4.913937,-4.9454"
       style="fill:#211d1d;fill-opacity:1;fill-rule:nonzero;stroke:none;stroke-width:0.07431987"
       id="path1327"
       inkscape:connector-curvature="0" />
    <path
       d="m 42.561932,151.39619 c 0,-0.76495 -0.617114,-1.38527 -1.377207,-1.38527 -0.760833,0 -1.377205,0.62032 -1.377205,1.38527 0,0.76496 0.616372,1.38527 1.377205,1.38527 0.760093,0 1.377207,-0.62031 1.377207,-1.38527"
       style="fill:#ffffff;fill-opacity:1;fill-rule:nonzero;stroke:none;stroke-width:0.07431987"
       id="path1329"
       inkscape:connector-curvature="0" />
    <path
       d="m 80.430302,129.0029 c 2.374368,0.37876 4.769476,0.89693 6.87714,2.06078 2.106927,1.16458 3.916782,3.0628 4.493882,5.41136 0.343748,1.39795 0.19404,2.99795 -0.734894,4.09394 -1.719475,2.02796 -4.897645,1.40839 -7.495741,0.89246 -2.998888,-0.59572 -6.10001,-0.8082 -9.115196,-0.30495 -2.035808,0.33999 -4.013089,1.00206 -6.061488,1.26301 -2.046919,0.26021 -4.262008,0.0694 -5.93851,-1.14072 -1.559451,-1.12433 -2.473638,-3.09488 -2.330658,-5.01994 0.277071,-3.7182 3.247067,-5.02592 6.066673,-6.71836 4.011606,-2.40895 9.787873,-1.24885 14.238792,-0.53758"
       style="fill:#cba781;fill-opacity:1;fill-rule:nonzero;stroke:none;stroke-width:0.07431987"
       id="path1331"
       inkscape:connector-curvature="0" />
    <path
       d="m 49.092369,144.93506 c 0.886775,1.87436 -0.640821,4.10363 -2.496605,5.00802 -1.855785,0.90438 -3.999753,0.99608 -5.936288,1.70809 -2.115815,0.77764 -3.946411,2.31351 -5.087293,4.26767 -0.397827,0.68071 -0.719347,1.41732 -1.243116,2.00634 -0.523028,0.58825 -1.319421,1.01546 -2.082478,0.83133 -1.056427,-0.25426 -1.534264,-1.47998 -1.734289,-2.55585 -0.834918,-4.48312 0.443018,-9.46206 3.794543,-12.53381 3.352264,-3.07178 8.812936,-3.79647 12.542286,-1.20261 1.057907,0.73588 0.10149,-0.0619 1.03272,0.82982 0.931224,0.89244 0.657857,0.47269 1.21052,1.641"
       style="fill:#cba781;fill-opacity:1;fill-rule:nonzero;stroke:none;stroke-width:0.07431987"
       id="path1333"
       inkscape:connector-curvature="0" />
    <path
       d="m 96.305585,169.92368 c -0.319305,-0.9931 0.222998,-2.05852 1.209786,-2.37987 0.986789,-0.32059 2.045439,0.22442 2.363987,1.21752 0.319302,0.99311 -0.222242,2.05854 -1.20903,2.37912 -0.987524,0.32134 -2.045439,-0.22367 -2.364743,-1.21677"
       style="fill:#211d1d;fill-opacity:1;fill-rule:nonzero;stroke:none;stroke-width:0.07431987"
       id="path1335"
       inkscape:connector-curvature="0" />
    <path
       d="m 91.209398,179.8495 c -0.318548,-0.99311 0.222263,-2.05854 1.209052,-2.37912 0.986788,-0.32135 2.045438,0.22367 2.363986,1.21677 0.319305,0.99384 -0.221508,2.05852 -1.208295,2.37987 -0.986789,0.32059 -2.045439,-0.22442 -2.364743,-1.21752"
       style="fill:#211d1d;fill-opacity:1;fill-rule:nonzero;stroke:none;stroke-width:0.07431987"
       id="path1337"
       inkscape:connector-curvature="0" />
    <path
       d="m 42.934573,184.31176 c -0.319301,-0.9931 0.222248,-2.05779 1.209036,-2.37914 0.98753,-0.32133 2.046178,0.22366 2.363996,1.21677 0.319298,0.9931 -0.22151,2.05929 -1.208298,2.37907 -0.98753,0.32148 -2.045436,-0.22368 -2.364734,-1.2167"
       style="fill:#211d1d;fill-opacity:1;fill-rule:nonzero;stroke:none;stroke-width:0.07431987"
       id="path1339"
       inkscape:connector-curvature="0" />
    <path
       d="m 50.316223,182.42171 c -0.3193,-0.9931 0.222248,-2.05776 1.209037,-2.37911 0.986788,-0.32135 2.045436,0.22366 2.363995,1.21677 0.319299,0.9931 -0.22225,2.05778 -1.209039,2.37913 -0.986788,0.32135 -2.044695,-0.22368 -2.363993,-1.21679"
       style="fill:#211d1d;fill-opacity:1;fill-rule:nonzero;stroke:none;stroke-width:0.07431987"
       id="path1341"
       inkscape:connector-curvature="0" />
    <path
       d="m 50.473277,190.62019 c -0.319298,-0.99316 0.222993,-2.05793 1.209779,-2.3792 0.986789,-0.32058 2.044698,0.22428 2.363996,1.21745 0.319299,0.9931 -0.222991,2.05846 -1.209779,2.37913 -0.986789,0.32118 -2.044695,-0.22457 -2.363996,-1.21738"
       style="fill:#211d1d;fill-opacity:1;fill-rule:nonzero;stroke:none;stroke-width:0.07431987"
       id="path1343"
       inkscape:connector-curvature="0" />
    <path
       d="m 86.771822,172.17606 c -0.319296,-0.99311 0.222249,-2.05854 1.209037,-2.37912 0.986789,-0.32061 2.045442,0.22367 2.363992,1.21677 0.319304,0.99384 -0.222243,2.05852 -1.209034,2.37987 -0.986788,0.32133 -2.044695,-0.22442 -2.363995,-1.21752"
       style="fill:#211d1d;fill-opacity:1;fill-rule:nonzero;stroke:none;stroke-width:0.07431987"
       id="path1345"
       inkscape:connector-curvature="0" />
    <path
       d="m 172.01789,145.37495 c 1.878,0.0566 3.67896,0.29301 5.16506,1.39869 1.59577,1.1877 2.42697,3.13888 3.02039,5.04456 0.16148,0.51741 0.39191,1.11984 0.91493,1.24435 0.74897,0.17964 1.27051,-0.79404 1.22608,-1.56794 -0.15771,-2.70047 -0.3971,-5.40988 -1.41943,-7.94632 -1.37573,-3.41174 -4.17016,-6.08162 -7.28611,-8.01043 -3.53597,-2.18751 -10.02936,-5.94147 -14.241,-6.15246 -0.26596,-0.0148 -0.55933,0.002 -0.75861,0.18112 -0.21039,0.18936 -0.25337,0.49953 -0.27929,0.78359 -0.30151,3.26338 -1.02457,6.13533 0.65934,9.12432 1.6565,2.93831 4.63465,5.17129 7.97654,5.69021 1.62315,0.25052 3.35301,0.15957 5.0221,0.21029"
       style="fill:#b99874;fill-opacity:1;fill-rule:nonzero;stroke:none;stroke-width:0.07431987"
       id="path1347"
       inkscape:connector-curvature="0" />
  </g>
</svg>
