<?xml version="1.0" encoding="UTF-8" standalone="no"?>
<!-- Created with Inkscape (http://www.inkscape.org/) -->

<svg
   xmlns:dc="http://purl.org/dc/elements/1.1/"
   xmlns:cc="http://creativecommons.org/ns#"
   xmlns:rdf="http://www.w3.org/1999/02/22-rdf-syntax-ns#"
   xmlns:svg="http://www.w3.org/2000/svg"
   xmlns="http://www.w3.org/2000/svg"
   xmlns:sodipodi="http://sodipodi.sourceforge.net/DTD/sodipodi-0.dtd"
   xmlns:inkscape="http://www.inkscape.org/namespaces/inkscape"
   width="210mm"
   height="297mm"
   viewBox="0 0 210 297"
   version="1.1"
   id="svg2073"
   inkscape:version="0.92.3 (2405546, 2018-03-11)"
   sodipodi:docname="dog5.svg">
  <defs
     id="defs2067" />
  <sodipodi:namedview
     id="base"
     pagecolor="#ffffff"
     bordercolor="#666666"
     borderopacity="1.0"
     inkscape:pageopacity="0.0"
     inkscape:pageshadow="2"
     inkscape:zoom="0.58"
     inkscape:cx="37.401575"
     inkscape:cy="560"
     inkscape:document-units="mm"
     inkscape:current-layer="layer1"
     showgrid="false"
     inkscape:window-width="2400"
     inkscape:window-height="1284"
     inkscape:window-x="2391"
     inkscape:window-y="-9"
     inkscape:window-maximized="1" />
  <metadata
     id="metadata2070">
    <rdf:RDF>
      <cc:Work
         rdf:about="">
        <dc:format>image/svg+xml</dc:format>
        <dc:type
           rdf:resource="http://purl.org/dc/dcmitype/StillImage" />
        <dc:title></dc:title>
      </cc:Work>
    </rdf:RDF>
  </metadata>
  <g
     inkscape:label="Layer 1"
     inkscape:groupmode="layer"
     id="layer1">
    <path
       d="m 127.90118,249.64415 c -0.15805,0 -0.31847,-0.006 -0.48162,-0.0213 -2.52289,-0.22307 -4.29917,-2.21132 -5.56882,-4.11586 -7.47373,-11.21047 -8.15301,-24.88761 -6.60974,-37.76749 0.41343,-3.45412 0.94336,-7.09161 -0.64648,-10.2777 -1.21786,-2.43973 -4.21632,-4.37863 -7.11468,-4.37863 -0.88642,0 -1.76333,0.18123 -2.57725,0.58541 -1.2265,0.60712 -2.1224,1.614 -2.85778,2.65982 -4.12398,5.86987 -3.958262,13.21748 -3.227212,20.06131 0.731935,6.84458 1.869522,13.93535 -0.668907,20.44768 -2.246696,5.7611 -8.492207,10.84201 -15.243511,10.84141 -0.879514,0 -1.767665,-0.0862 -2.656673,-0.26817 -8.60191,-1.76288 -11.996365,-10.59995 -13.926976,-18.08113 -3.110597,-12.05026 -6.22014,-24.10217 -9.330395,-36.15335 -2.214396,-8.57909 -4.516846,-17.34908 -9.917365,-24.78954 -8.560392,-11.7929 -22.815632,-21.03301 -14.085738,-35.97757 4.981485,-8.52743 13.886092,-18.33352 23.564472,-23.15981 13.673334,-6.81836 34.139712,-10.389244 53.712605,-10.389244 14.46325,0 28.43799,1.949384 38.823,5.978424 16.59601,6.43806 29.88973,21.49041 27.47386,37.1177 -1.84963,11.9703 -12.06723,21.7457 -15.72081,33.39933 -2.11807,6.75698 -1.94806,13.90024 -3.57416,20.75978 -1.50871,6.36246 -4.53224,12.36782 -7.53501,18.31853 -4.89558,9.69993 -9.79119,19.4003 -14.6868,29.10008 -1.42154,2.81843 -3.72002,6.11025 -7.14401,6.11025"
       style="fill:#eae3d7;fill-opacity:1;fill-rule:nonzero;stroke:none;stroke-width:0.08038285"
       id="path1157"
       inkscape:connector-curvature="0" />
    <path
       d="m 78.192139,70.778877 c 2.972141,10.989634 -7.21582,19.1757 -11.699637,28.276583 -4.747148,9.63538 -5.917444,21.12285 -5.708037,31.48438 0.122086,6.0398 0.09909,13.35675 -5.871887,16.46724 -1.904286,0.99191 -4.160471,1.35648 -6.378609,1.45531 -7.379648,0.32787 -16.19395,-4.05897 -15.238053,-10.41397 0.637494,-4.23936 5.310141,-7.15897 6.990903,-11.17901 2.287942,-5.47085 -1.368572,-11.28608 -3.856744,-16.69181 -7.038124,-15.289678 -4.498326,-33.615689 6.517209,-47.024101 2.685765,-3.26919 6.074176,-6.388647 10.522246,-7.499582 7.40798,-1.849835 15.33621,2.431487 21.010166,6.149087 6.640569,4.350184 2.244807,3.531963 3.712443,8.975873"
       style="fill:#cba781;fill-opacity:1;fill-rule:nonzero;stroke:none;stroke-width:0.08038285"
       id="path1159"
       inkscape:connector-curvature="0" />
    <path
       d="m 128.97317,70.778877 c -2.97256,10.989634 7.21567,19.1757 11.69956,28.276583 4.74713,9.63538 5.91753,21.12285 5.70777,31.48438 -0.12256,6.0398 -0.0993,13.35675 5.87179,16.46724 1.90405,0.99191 4.16108,1.35648 6.37844,1.45531 7.37965,0.32787 16.19466,-4.05897 15.23832,-10.41397 -0.63783,-4.23936 -5.30991,-7.15897 -6.99039,-11.17901 -2.28812,-5.47085 1.36807,-11.28608 3.85642,-16.69181 7.03786,-15.289678 4.49856,-33.615689 -6.5174,-47.024101 -2.68601,-3.26919 -6.07461,-6.388647 -10.52225,-7.499582 -7.40815,-1.849835 -15.33587,2.431487 -21.00999,6.149087 -6.64082,4.350184 -2.24496,3.531963 -3.71227,8.975873"
       style="fill:#cba781;fill-opacity:1;fill-rule:nonzero;stroke:none;stroke-width:0.08038285"
       id="path1161"
       inkscape:connector-curvature="0" />
    <path
       d="m 141.37876,131.80202 c 8.35668,-4.84203 12.71629,-13.38671 15.73807,-21.69929 2.10253,-5.78003 3.77958,-11.755458 3.72176,-17.816232 -0.14508,-15.233502 -11.84283,-29.415211 -27.47645,-36.358604 -15.63366,-6.943371 -34.497942,-7.197911 -51.303665,-2.770612 -7.162412,1.886502 -14.176263,4.658622 -19.605433,9.127831 -10.28896,8.469063 -12.906634,19.733418 -14.481823,31.345154 -1.010091,7.449443 -1.974724,15.246243 1.132839,22.246513 3.933936,8.85908 13.900601,14.8667 24.411372,17.51678 18.491312,4.66387 51.01441,8.17185 67.86333,-1.59154"
       style="fill:#cba781;fill-opacity:1;fill-rule:nonzero;stroke:none;stroke-width:0.08038285"
       id="path1163"
       inkscape:connector-curvature="0" />
    <path
       d="m 112.47816,56.308951 c -1.81255,-2.751155 -3.67861,-5.678989 -3.60697,-8.847106 0.0717,-3.167374 2.91647,-6.51667 6.56228,-6.310067 2.74557,0.15491 5.64046,2.162752 7.93462,0.845935 -0.75954,-6.267372 -9.06359,-9.821043 -16.33015,-9.819537 -5.24603,0 -10.904635,1.485245 -13.848718,5.250761 -4.189559,5.356332 -1.244625,12.67849 2.699833,18.172565 1.073708,1.494241 3.846056,2.91436 4.685855,1.311575 4.0886,5.970921 4.97846,2.881406 11.90325,-0.604126"
       style="fill:#cba781;fill-opacity:1;fill-rule:nonzero;stroke:none;stroke-width:0.08038285"
       id="path1165"
       inkscape:connector-curvature="0" />
    <path
       d="m 158.16895,157.94431 c 0.0666,-5.56818 -0.17444,-11.12963 -0.58433,-16.68582 -0.60417,-8.17933 -0.5705,-16.992 -4.98879,-24.39129 -1.36029,-2.27654 -3.09343,-4.29555 -5.12691,-6.08396 -15.15894,-13.325325 -47.03987,-13.785725 -65.802298,-11.881243 -9.690317,0.984419 -19.150505,2.498863 -24.78069,9.410813 -8.860765,10.87884 -12.073874,25.08598 -8.6082,38.06243 2.46799,9.24088 8.089979,17.70394 10.194863,27.01219 1.039108,4.59574 1.204305,9.33368 2.598762,13.85831 3.267058,10.60036 13.094437,19.49761 13.734353,30.4558 0.451477,7.72562 -6.630808,21.71408 -0.06263,28.73849 -0.22411,-1.56677 -0.116948,-3.43981 1.031671,-5.07126 0,0 -0.278182,3.37198 0.611265,6.48083 l 0.14998,0.11013 c 0.873202,0.57877 1.883659,0.97529 2.853724,1.42296 0.828575,0.38338 1.651988,0.81001 2.496981,1.17324 -0.595534,-1.57732 -1.445714,-4.84052 0.40827,-7.47265 0,0 -0.390141,4.63375 1.176412,8.04517 0.480764,0.13095 0.972731,0.22461 1.481117,0.25971 1.481973,0.10417 2.900063,-0.28949 4.250848,-0.86442 -0.595558,-1.5893 -1.421565,-4.82562 0.420331,-7.44046 0,0 -0.303822,3.68309 0.73969,6.8998 0.44969,-0.22375 0.892482,-0.45649 1.325755,-0.69013 4.129152,-2.22279 5.190794,-4.8391 5.562779,-8.87197 0.133827,-1.44924 -0.565341,-10.97593 -1.059903,-12.1737 0.46434,0.12202 1.550152,0.54858 2.015386,0.67143 1.042631,0.27309 1.336959,-0.94482 0.900207,-1.81014 -5.146749,-10.1976 -8.353228,-21.12883 -9.465785,-32.21879 -0.258927,-0.16106 -0.488518,-0.3481 -0.633529,-0.59665 -0.267564,-0.46115 0.09664,0.13857 0.624893,0.50458 -0.01468,-0.15492 -0.02936,-0.30919 -0.04306,-0.46417 -1.158308,-1.72702 -0.983081,-4.00729 -0.807022,-6.06449 0.739715,-8.67193 0.07242,-17.43295 -1.976535,-25.94466 1.736594,1.14912 3.089972,2.7287 3.85814,4.50216 0.919224,2.12082 0.996048,4.44226 1.655464,6.63496 0.658559,2.19266 2.160374,4.437 4.663426,5.08533 1.947171,0.50529 4.016075,-0.0658 6.009035,-0.41175 3.3463,-0.58093 6.83933,-0.51355 10.15283,0.19396 0.18985,0.0403 0.38064,0.0838 0.57137,0.12647 0.18473,0.042 0.36943,0.0853 0.55501,0.12584 l 0.21138,0.0466 c 0.11988,0.0263 0.24002,0.0524 0.3599,0.077 0.0775,0.017 0.15634,0.0293 0.23389,0.045 0.11304,0.0217 0.22608,0.0441 0.33923,0.0636 0.0795,0.0128 0.15977,0.0231 0.23903,0.0352 0.11133,0.017 0.22265,0.0344 0.33403,0.048 0.0837,0.0108 0.16661,0.0148 0.25028,0.0231 0.1079,0.009 0.21579,0.0213 0.32369,0.0263 0.0854,0.004 0.17175,0.004 0.25721,0.004 0.10619,5.4e-4 0.21238,0.004 0.31763,5.4e-4 0.0871,-0.002 0.17444,-0.0109 0.26237,-0.017 0.10271,-0.009 0.20723,-0.0148 0.31073,-0.0269 0.13456,-0.017 0.26325,-0.045 0.39358,-0.071 1.2869,-0.26276 2.57985,-1.03231 3.87109,-2.76612 0.92783,-1.40066 1.49318,-3.11421 1.8013,-4.69379 l 6.7e-4,-0.004 0.0147,-0.0658 c 0.0196,-0.0912 0.039,-0.18335 0.0639,-0.277 l 0.0338,-0.12053 c 0.0221,-0.0764 0.0433,-0.1528 0.0683,-0.22985 l 0.0485,-0.14005 c 0.025,-0.0719 0.0492,-0.14303 0.0768,-0.21485 l 0.0605,-0.146 c 0.0283,-0.069 0.0569,-0.13709 0.0881,-0.20521 l 0.0708,-0.14811 0.0984,-0.19396 0.083,-0.14749 0.10693,-0.17824 0.0942,-0.14367 0.11744,-0.16552 0.10178,-0.13029 0.12943,-0.1513 0.11059,-0.1182 0.13897,-0.13094 0.11914,-0.10253 0.14926,-0.10929 0.12599,-0.0832 0.16222,-0.0847 0.1304,-0.0614 0.17518,-0.0562 0.13284,-0.0376 0.19427,-0.0231 0.13041,-0.0128 0.22361,0.017 0.11574,0.0109 c 0.11572,0.0213 0.23316,0.0524 0.35299,0.0981 0.75523,9.00431 0.33491,18.07974 -1.21181,27.00771 0.87951,4.10314 0.50579,8.55513 -1.02624,12.46288 -3.30055,8.4219 -10.33927,15.2262 -16.27148,22.51227 -0.58173,0.71494 -0.0639,1.71274 0.9365,1.82446 l 1.27135,0.14217 c 0.35906,3.48488 -1.37407,6.90452 -1.32574,10.40339 0.056,4.04776 2.88799,7.871 6.85575,9.93782 1.91695,-3.14414 2.30884,-7.39455 2.30884,-7.39455 1.55013,3.20084 -0.42727,6.75152 -1.18422,7.92092 1.51737,0.63047 3.16505,1.00831 4.86453,1.06153 0.28398,0.009 0.56534,-0.004 0.84844,-0.0148 2.27257,-3.16782 2.71623,-8.01216 2.71623,-8.01216 1.52943,3.15817 -0.37632,6.66114 -1.15484,7.87676 1.74695,-0.26576 3.41706,-0.86526 4.9094,-1.71418 2.51167,-3.1474 2.98898,-8.3763 2.98898,-8.3763 1.12117,2.31545 0.3953,4.80984 -0.37805,6.45918 2.06371,-1.93007 3.40671,-4.41921 3.47923,-7.06182 0.0905,-3.27083 -1.49234,-6.39105 -2.03264,-9.62881 -1.45867,-8.72947 4.64271,-16.91474 10.42384,-24.17103 11.83076,-14.84799 13.64503,-33.57079 13.85562,-51.3114"
       style="fill:#d7b28b;fill-opacity:1;fill-rule:nonzero;stroke:none;stroke-width:0.08038285"
       id="path1167"
       inkscape:connector-curvature="0" />
    <path
       d="m 89.008275,194.29316 c 0.145084,0.24857 0.374602,0.43571 0.633529,0.59666 l -0.0098,-0.0921 c -0.528226,-0.36607 -0.892456,-0.96571 -0.624894,-0.50456"
       style="fill:#d7b28b;fill-opacity:1;fill-rule:nonzero;stroke:none;stroke-width:0.08038285"
       id="path1169"
       inkscape:connector-curvature="0" />
    <path
       d="m 127.29527,168.02137 c -0.11989,-0.0456 -0.23732,-0.077 -0.353,-0.098 l -0.11572,-0.0109 -0.22362,-0.017 -0.13041,0.0128 -0.19427,0.0231 -0.13285,0.0375 -0.17518,0.0562 -0.13039,0.0614 -0.16221,0.0847 -0.12601,0.0832 -0.14925,0.1093 -0.11915,0.10253 -0.13896,0.13093 -0.1106,0.11819 -0.12942,0.15131 -0.10179,0.13029 -0.11744,0.16552 -0.0942,0.14367 -0.10692,0.17824 -0.0829,0.14749 -0.0984,0.19396 -0.0708,0.14833 c -0.0311,0.0682 -0.0594,0.13623 -0.0881,0.2052 l -0.0605,0.14599 c -0.0276,0.0719 -0.0519,0.14303 -0.0768,0.21486 l -0.0485,0.14006 c -0.0249,0.0764 -0.0465,0.15343 -0.0683,0.22982 l -0.0338,0.12053 c -0.0249,0.0936 -0.0447,0.18569 -0.0639,0.27699 l -0.0147,0.0658 c -0.0221,0.11459 -0.0405,0.22609 -0.0544,0.33389 -0.16318,1.28762 -0.53515,2.55951 -1.27051,3.68768 -0.15976,0.24329 -0.3185,0.46189 -0.47731,0.67599 -0.90626,1.36697 -2.16297,2.42626 -3.87109,2.76612 -0.13113,0.0269 -0.26237,0.0539 -0.39356,0.071 l -0.051,0.009 c -0.0864,0.0109 -0.17347,0.0109 -0.25981,0.017 -0.0881,0.006 -0.17518,0.0148 -0.26237,0.017 -0.1052,0.004 -0.21139,0 -0.31762,-5.7e-4 -0.0855,-0.002 -0.17175,-5.5e-4 -0.25722,-0.004 -0.10789,-0.004 -0.21579,-0.017 -0.32369,-0.0263 -0.0837,-0.009 -0.16661,-0.0128 -0.25029,-0.0231 -0.11132,-0.0128 -0.22264,-0.0314 -0.33401,-0.048 -0.0795,-0.0128 -0.15978,-0.0224 -0.23903,-0.0352 -0.11305,-0.019 -0.22607,-0.042 -0.33924,-0.0636 -0.0775,-0.0148 -0.15609,-0.0284 -0.23389,-0.045 -0.11989,-0.0246 -0.24001,-0.0508 -0.3599,-0.077 l -0.21139,-0.0465 c -0.18569,-0.0403 -0.37029,-0.0838 -0.55498,-0.12584 -0.19085,-0.0427 -0.38152,-0.0862 -0.5714,-0.12648 -3.3135,-0.70743 -6.80653,-0.77481 -10.15283,-0.19395 -1.99294,0.34587 -4.06182,0.91706 -6.009021,0.41174 -2.503049,-0.64829 -4.004864,-2.89263 -4.663423,-5.08532 -0.659416,-2.19269 -0.73624,-4.51415 -1.655464,-6.63496 -0.768168,-1.77346 -2.121546,-3.35303 -3.858115,-4.50214 2.049028,8.51172 2.716224,17.27273 1.976534,25.94466 -0.176157,2.05718 -0.351287,4.33745 0.806997,6.0645 -0.11915,-1.26366 -0.220196,-2.52881 -0.2831,-3.79545 -0.08979,-1.77347 -0.07952,-3.68991 1.114293,-5.13174 1.374077,-1.66193 3.894375,-2.20769 6.200619,-2.63512 6.39915,-1.18731 13.29978,-2.33716 19.29413,-0.0599 5.7095,2.16797 9.01525,6.94413 10.16751,12.31768 1.5467,-8.92796 1.96703,-18.0034 1.21181,-27.0077"
       style="fill:#cba781;fill-opacity:1;fill-rule:nonzero;stroke:none;stroke-width:0.08038285"
       id="path1171"
       inkscape:connector-curvature="0" />
    <path
       d="m 123.79275,171.30629 c 0.0196,-0.0912 0.0389,-0.18335 0.0639,-0.277 -0.025,0.0936 -0.0447,0.18568 -0.0639,0.277"
       style="fill:#cba781;fill-opacity:1;fill-rule:nonzero;stroke:none;stroke-width:0.08038285"
       id="path1173"
       inkscape:connector-curvature="0" />
    <path
       d="m 123.89027,170.90878 c 0.0221,-0.0764 0.0432,-0.15342 0.0683,-0.22983 -0.025,0.0771 -0.0458,0.15342 -0.0683,0.22983"
       style="fill:#cba781;fill-opacity:1;fill-rule:nonzero;stroke:none;stroke-width:0.08038285"
       id="path1175"
       inkscape:connector-curvature="0" />
    <path
       d="m 116.56327,178.94589 c 0.0855,0.004 0.17176,0.004 0.25721,0.004 -0.0854,-0.002 -0.17174,-5.7e-4 -0.25721,-0.004"
       style="fill:#cba781;fill-opacity:1;fill-rule:nonzero;stroke:none;stroke-width:0.08038285"
       id="path1177"
       inkscape:connector-curvature="0" />
    <path
       d="m 114.8431,178.70481 c 0.0775,0.017 0.15634,0.0293 0.23389,0.045 -0.0775,-0.0148 -0.15633,-0.0284 -0.23389,-0.045"
       style="fill:#cba781;fill-opacity:1;fill-rule:nonzero;stroke:none;stroke-width:0.08038285"
       id="path1179"
       inkscape:connector-curvature="0" />
    <path
       d="m 113.14533,178.32903 c 0.18986,0.0403 0.38065,0.0838 0.57139,0.12647 -0.19083,-0.0427 -0.38148,-0.0862 -0.57139,-0.12647"
       style="fill:#cba781;fill-opacity:1;fill-rule:nonzero;stroke:none;stroke-width:0.08038285"
       id="path1181"
       inkscape:connector-curvature="0" />
    <path
       d="m 115.98933,178.89646 c 0.0837,0.0108 0.16661,0.0148 0.25029,0.0231 -0.0837,-0.009 -0.16663,-0.0128 -0.25029,-0.0231"
       style="fill:#cba781;fill-opacity:1;fill-rule:nonzero;stroke:none;stroke-width:0.08038285"
       id="path1183"
       inkscape:connector-curvature="0" />
    <path
       d="m 115.41619,178.81336 c 0.0795,0.0128 0.15978,0.0231 0.23904,0.0352 -0.0795,-0.0128 -0.15976,-0.0224 -0.23904,-0.0352"
       style="fill:#cba781;fill-opacity:1;fill-rule:nonzero;stroke:none;stroke-width:0.08038285"
       id="path1185"
       inkscape:connector-curvature="0" />
    <path
       d="m 117.71124,178.90694 c 0.13114,-0.017 0.26238,-0.0441 0.39358,-0.071 -0.1304,0.0263 -0.25895,0.0533 -0.39358,0.071"
       style="fill:#cba781;fill-opacity:1;fill-rule:nonzero;stroke:none;stroke-width:0.08038285"
       id="path1187"
       inkscape:connector-curvature="0" />
    <path
       d="m 114.27172,178.58129 0.21138,0.0464 -0.21138,-0.0464"
       style="fill:#cba781;fill-opacity:1;fill-rule:nonzero;stroke:none;stroke-width:0.08038285"
       id="path1189"
       inkscape:connector-curvature="0" />
    <path
       d="m 126.60308,167.89485 0.22361,0.017 -0.22361,-0.017"
       style="fill:#cba781;fill-opacity:1;fill-rule:nonzero;stroke:none;stroke-width:0.08038285"
       id="path1191"
       inkscape:connector-curvature="0" />
    <path
       d="m 126.27853,167.93081 0.19426,-0.0231 -0.19426,0.0231"
       style="fill:#cba781;fill-opacity:1;fill-rule:nonzero;stroke:none;stroke-width:0.08038285"
       id="path1193"
       inkscape:connector-curvature="0" />
    <path
       d="m 125.97039,168.02437 0.17518,-0.0563 -0.17518,0.0563"
       style="fill:#cba781;fill-opacity:1;fill-rule:nonzero;stroke:none;stroke-width:0.08038285"
       id="path1195"
       inkscape:connector-curvature="0" />
    <path
       d="m 124.00681,170.53894 c 0.0249,-0.0719 0.0492,-0.14301 0.0768,-0.21485 -0.0276,0.0719 -0.0519,0.14303 -0.0768,0.21485"
       style="fill:#cba781;fill-opacity:1;fill-rule:nonzero;stroke:none;stroke-width:0.08038285"
       id="path1197"
       inkscape:connector-curvature="0" />
    <path
       d="m 117.40051,178.9339 c -0.0881,0.006 -0.17518,0.0148 -0.2624,0.017 0.0871,-0.002 0.17444,-0.0109 0.2624,-0.017"
       style="fill:#cba781;fill-opacity:1;fill-rule:nonzero;stroke:none;stroke-width:0.08038285"
       id="path1199"
       inkscape:connector-curvature="0" />
    <path
       d="m 125.40246,168.36274 0.14924,-0.10928 -0.14924,0.10928"
       style="fill:#cba781;fill-opacity:1;fill-rule:nonzero;stroke:none;stroke-width:0.08038285"
       id="path1201"
       inkscape:connector-curvature="0" />
    <path
       d="m 126.94227,167.92331 c 0.11572,0.0213 0.23316,0.0524 0.353,0.098 -0.11989,-0.0456 -0.23732,-0.0771 -0.353,-0.098"
       style="fill:#cba781;fill-opacity:1;fill-rule:nonzero;stroke:none;stroke-width:0.08038285"
       id="path1203"
       inkscape:connector-curvature="0" />
    <path
       d="m 123.72371,171.70604 c 0.0147,-0.10777 0.0318,-0.21934 0.0544,-0.33388 l -6.5e-4,0.004 c -0.30814,1.57957 -0.87349,3.29314 -1.80133,4.6938 0.15879,-0.21408 0.31763,-0.43269 0.47729,-0.676 0.73539,-1.12814 1.1074,-2.40003 1.27052,-3.68764"
       style="fill:#cba781;fill-opacity:1;fill-rule:nonzero;stroke:none;stroke-width:0.08038285"
       id="path1205"
       inkscape:connector-curvature="0" />
    <path
       d="m 125.6778,168.17034 0.16223,-0.0847 -0.16223,0.0847"
       style="fill:#cba781;fill-opacity:1;fill-rule:nonzero;stroke:none;stroke-width:0.08038285"
       id="path1207"
       inkscape:connector-curvature="0" />
    <path
       d="m 124.30285,169.82477 0.0984,-0.19395 -0.0984,0.19395"
       style="fill:#cba781;fill-opacity:1;fill-rule:nonzero;stroke:none;stroke-width:0.08038285"
       id="path1209"
       inkscape:connector-curvature="0" />
    <path
       d="m 124.48411,169.48343 0.10693,-0.17826 -0.10693,0.17826"
       style="fill:#cba781;fill-opacity:1;fill-rule:nonzero;stroke:none;stroke-width:0.08038285"
       id="path1211"
       inkscape:connector-curvature="0" />
    <path
       d="m 124.14403,170.17813 c 0.0283,-0.0688 0.0571,-0.13709 0.0881,-0.20522 -0.0311,0.0681 -0.0594,0.13625 -0.0881,0.20522"
       style="fill:#cba781;fill-opacity:1;fill-rule:nonzero;stroke:none;stroke-width:0.08038285"
       id="path1213"
       inkscape:connector-curvature="0" />
    <path
       d="m 124.68521,169.16151 0.11743,-0.16552 -0.11743,0.16552"
       style="fill:#cba781;fill-opacity:1;fill-rule:nonzero;stroke:none;stroke-width:0.08038285"
       id="path1215"
       inkscape:connector-curvature="0" />
    <path
       d="m 124.90445,168.86581 0.12942,-0.15131 -0.12942,0.15131"
       style="fill:#cba781;fill-opacity:1;fill-rule:nonzero;stroke:none;stroke-width:0.08038285"
       id="path1217"
       inkscape:connector-curvature="0" />
    <path
       d="m 125.14438,168.59631 0.13898,-0.13094 -0.13898,0.13094"
       style="fill:#cba781;fill-opacity:1;fill-rule:nonzero;stroke:none;stroke-width:0.08038285"
       id="path1219"
       inkscape:connector-curvature="0" />
    <path
       d="m 75.774722,241.36877 c -1.148717,1.63145 -1.255928,3.50449 -1.031695,5.07126 0.474719,0.50831 1.017872,0.97994 1.642961,1.40957 -0.889448,-3.10885 -0.611266,-6.48083 -0.611266,-6.48083"
       style="fill:#cba781;fill-opacity:1;fill-rule:nonzero;stroke:none;stroke-width:0.08038285"
       id="path1221"
       inkscape:connector-curvature="0" />
    <path
       d="m 82.294967,243.08332 c -1.853984,2.63214 -1.003804,5.89533 -0.40827,7.47266 0.517879,0.22309 1.043512,0.42371 1.584682,0.57252 -1.566553,-3.41143 -1.176412,-8.04518 -1.176412,-8.04518"
       style="fill:#cba781;fill-opacity:1;fill-rule:nonzero;stroke:none;stroke-width:0.08038285"
       id="path1223"
       inkscape:connector-curvature="0" />
    <path
       d="m 89.623675,243.08332 c -1.841872,2.61483 -1.015889,5.85115 -0.420331,7.44047 0.392733,-0.16786 0.778542,-0.34976 1.160021,-0.54066 -1.043487,-3.21672 -0.73969,-6.89981 -0.73969,-6.89981"
       style="fill:#cba781;fill-opacity:1;fill-rule:nonzero;stroke:none;stroke-width:0.08038285"
       id="path1225"
       inkscape:connector-curvature="0" />
    <path
       d="m 132.82096,243.65819 c 0,0 -0.47731,5.2289 -2.98898,8.37628 0.95461,-0.54424 1.83327,-1.19104 2.61093,-1.9171 0.77336,-1.64935 1.49922,-4.14373 0.37805,-6.45918"
       style="fill:#cba781;fill-opacity:1;fill-rule:nonzero;stroke:none;stroke-width:0.08038285"
       id="path1227"
       inkscape:connector-curvature="0" />
    <path
       d="m 126.07742,245.87191 c 0,0 -0.44363,4.84434 -2.71624,8.01217 0.52479,-0.017 1.04611,-0.0577 1.5614,-0.1354 0.77852,-1.21559 2.68429,-4.71858 1.15484,-7.87673"
       style="fill:#cba781;fill-opacity:1;fill-rule:nonzero;stroke:none;stroke-width:0.08038285"
       id="path1229"
       inkscape:connector-curvature="0" />
    <path
       d="m 118.83243,244.91743 c 0,0 -0.39185,4.25038 -2.30884,7.39456 0.36594,0.19036 0.74054,0.36614 1.12464,0.52635 0.75694,-1.16941 2.73435,-4.72007 1.1842,-7.92091"
       style="fill:#cba781;fill-opacity:1;fill-rule:nonzero;stroke:none;stroke-width:0.08038285"
       id="path1231"
       inkscape:connector-curvature="0" />
    <path
       d="m 56.15806,109.23361 -3.894547,5.96343 c 0,0 6.927877,34.00273 51.206317,34.00273 44.27784,0 50.86258,-28.82608 50.86258,-28.82608 l -5.90201,-8.7011 -92.27234,-2.43898"
       style="fill:#cba781;fill-opacity:1;fill-rule:nonzero;stroke:none;stroke-width:0.08038285"
       id="path1233"
       inkscape:connector-curvature="0" />
    <path
       d="m 147.54744,77.826314 c -3.14087,-10.369784 -22.61021,-8.641246 -22.61021,-8.641246 -10.64998,-0.108652 -11.34565,1.53316 -21.35436,1.53316 -10.009552,0 -10.009552,-0.786792 -21.354379,-1.53316 0,0 -19.470354,-1.728538 -22.610873,8.641246 -3.140299,10.368277 -13.734354,39.576136 7.809814,55.300736 1.406617,1.0271 2.799704,1.95764 4.178355,2.82003 17.321357,10.83467 31.977083,9.27755 31.977083,9.27755 0,0 17.81732,2.14478 36.15511,-12.09758 0.61884,-0.4806 1.20663,-0.97395 1.77197,-1.47626 18.61398,-16.49193 9.08517,-43.762391 6.03749,-53.824476"
       style="fill:#d7b28b;fill-opacity:1;fill-rule:nonzero;stroke:none;stroke-width:0.08038285"
       id="path1235"
       inkscape:connector-curvature="0" />
    <path
       d="m 87.789559,137.53338 c 0,0 5.296953,7.80354 18.764161,7.80354 13.46807,0 18.91089,-7.80354 18.91089,-7.80354 l -18.91089,-10.71786 -18.764161,10.71786"
       style="fill:#211d1d;fill-opacity:1;fill-rule:nonzero;stroke:none;stroke-width:0.08038285"
       id="path1237"
       inkscape:connector-curvature="0" />
    <path
       d="m 111.33799,113.93562 c -2.30368,-0.67376 -6.00817,-1.21649 -9.24831,-0.10253 0,0 -29.297815,8.09175 -23.203677,20.32258 5.363063,10.7628 23.416007,4.57478 27.672027,-3.81867 4.25604,8.39345 22.30984,14.58147 27.67238,3.81867 6.09448,-12.23083 -22.89242,-20.22001 -22.89242,-20.22001"
       style="fill:#3c3a3e;fill-opacity:1;fill-rule:nonzero;stroke:none;stroke-width:0.08038285"
       id="path1239"
       inkscape:connector-curvature="0" />
    <path
       d="m 68.688694,70.379103 c 0,0 -17.886015,-2.558747 -20.621739,4.560563 -2.735992,7.118548 1.094085,13.51095 -3.830443,23.366434 -4.924406,9.85472 3.658836,12.22783 12.225981,3.68467 8.56712,-8.542427 35.583957,-25.730551 12.226201,-31.611667"
       style="fill:#3c3a3e;fill-opacity:1;fill-rule:nonzero;stroke:none;stroke-width:0.08038285"
       id="path1241"
       inkscape:connector-curvature="0" />
    <path
       d="m 132.89864,69.470292 c 0,0 -2.4996,3.644241 5.8692,10.44465 8.36791,6.801131 10.56367,27.881318 16.51744,29.258008 5.95378,1.3752 10.38848,-20.839111 8.64325,-28.227922 C 160.96978,68.42149 148.3346,61.073868 132.89864,69.470292"
       style="fill:#3c3a3e;fill-opacity:1;fill-rule:nonzero;stroke:none;stroke-width:0.08038285"
       id="path1243"
       inkscape:connector-curvature="0" />
    <path
       d="m 114.0119,118.55456 c -2.0309,-3.6345 -7.72403,-3.35228 -7.72403,-3.35228 0,0 -5.69311,-0.28222 -7.724012,3.35304 -1.582968,2.83198 3.915092,6.33327 6.502702,6.91418 3.28504,0.73739 10.74063,-3.70338 8.94534,-6.91494"
       style="fill:#211d1d;fill-opacity:1;fill-rule:nonzero;stroke:none;stroke-width:0.08038285"
       id="path1245"
       inkscape:connector-curvature="0" />
    <path
       d="m 101.93519,120.44183 -0.0673,0.0358 -0.21237,-5.9e-4 c -0.35822,-0.0584 -1.12119,-0.31292 -1.30417,0.14453 -0.18645,0.46787 0.5075,1.06078 0.85447,1.3647 0.43672,0.38255 1.67789,1.26067 2.21647,0.65802 0.18643,-0.20965 0.25808,-0.4776 0.30901,-0.73887 0.17176,-0.87137 0.16907,-1.76748 -0.007,-2.63808 -0.0372,-0.18039 -0.12087,-0.39529 -0.328,-0.42898 -0.11744,-0.019 -0.23389,0.0307 -0.3297,0.0906 -0.53254,0.33015 -0.67237,0.95672 -1.04437,1.42388 l -0.0871,0.0891"
       style="fill:#3c3a3e;fill-opacity:1;fill-rule:nonzero;stroke:none;stroke-width:0.08038285"
       id="path1247"
       inkscape:connector-curvature="0" />
    <path
       d="m 110.64145,120.44183 0.0673,0.0358 0.21237,-5.9e-4 c 0.35905,-0.0584 1.12117,-0.31292 1.30415,0.14453 0.18742,0.46787 -0.5075,1.06078 -0.85359,1.3647 -0.43761,0.38255 -1.6788,1.26067 -2.21651,0.65802 -0.18643,-0.20965 -0.25893,-0.4776 -0.30985,-0.73887 -0.17174,-0.87137 -0.1693,-1.76748 0.007,-2.63808 0.0363,-0.18039 0.11988,-0.39529 0.32797,-0.42898 0.11646,-0.019 0.23292,0.0307 0.3297,0.0906 0.53168,0.33015 0.67239,0.95672 1.04438,1.42388 l 0.0864,0.0891"
       style="fill:#3c3a3e;fill-opacity:1;fill-rule:nonzero;stroke:none;stroke-width:0.08038285"
       id="path1249"
       inkscape:connector-curvature="0" />
    <path
       d="m 89.40272,111.22041 c 0,-4.46772 -4.176618,-8.08951 -9.326822,-8.08951 -5.151185,0 -9.326848,3.62179 -9.326848,8.08951 0,4.46773 4.175663,8.08951 9.326848,8.08951 5.150204,0 9.326822,-3.62178 9.326822,-8.08951"
       style="fill:#3c3a3e;fill-opacity:1;fill-rule:nonzero;stroke:none;stroke-width:0.08038285"
       id="path1251"
       inkscape:connector-curvature="0" />
    <path
       d="m 87.346792,111.22041 c 0,-3.48254 -3.254825,-6.30631 -7.270894,-6.30631 -4.015654,0 -7.270822,2.82377 -7.270822,6.30631 0,3.48255 3.255168,6.30631 7.270822,6.30631 4.016069,0 7.270894,-2.82376 7.270894,-6.30631"
       style="fill:#211d1d;fill-opacity:1;fill-rule:nonzero;stroke:none;stroke-width:0.08038285"
       id="path1253"
       inkscape:connector-curvature="0" />
    <path
       d="m 84.150662,109.45368 c 0,-0.97693 -0.912324,-1.76822 -2.036942,-1.76822 -1.125524,0 -2.037822,0.79129 -2.037822,1.76822 0,0.97544 0.912298,1.76673 2.037822,1.76673 1.124618,0 2.036942,-0.79129 2.036942,-1.76673"
       style="fill:#ffffff;fill-opacity:1;fill-rule:nonzero;stroke:none;stroke-width:0.08038285"
       id="path1255"
       inkscape:connector-curvature="0" />
    <path
       d="m 141.87592,111.22041 c 0,-4.46772 -4.17577,-8.08951 -9.32686,-8.08951 -5.15108,0 -9.32684,3.62179 -9.32684,8.08951 0,4.46773 4.17576,8.08951 9.32684,8.08951 5.15109,0 9.32686,-3.62178 9.32686,-8.08951"
       style="fill:#3c3a3e;fill-opacity:1;fill-rule:nonzero;stroke:none;stroke-width:0.08038285"
       id="path1257"
       inkscape:connector-curvature="0" />
    <path
       d="m 139.81995,111.22041 c 0,-3.48254 -3.25567,-6.30631 -7.27089,-6.30631 -4.01607,0 -7.27089,2.82377 -7.27089,6.30631 0,3.48255 3.25482,6.30631 7.27089,6.30631 4.01522,0 7.27089,-2.82376 7.27089,-6.30631"
       style="fill:#211d1d;fill-opacity:1;fill-rule:nonzero;stroke:none;stroke-width:0.08038285"
       id="path1259"
       inkscape:connector-curvature="0" />
    <path
       d="m 136.62386,109.45368 c 0,-0.97693 -0.91147,-1.76822 -2.03783,-1.76822 -1.12464,0 -2.03697,0.79129 -2.03697,1.76822 0,0.97544 0.91233,1.76673 2.03697,1.76673 1.12636,0 2.03783,-0.79129 2.03783,-1.76673"
       style="fill:#ffffff;fill-opacity:1;fill-rule:nonzero;stroke:none;stroke-width:0.08038285"
       id="path1261"
       inkscape:connector-curvature="0" />
    <path
       d="m 85.530781,129.6812 c 0,-0.68424 -0.639574,-1.23897 -1.42844,-1.23897 -0.788892,0 -1.428464,0.55473 -1.428464,1.23897 0,0.68347 0.639572,1.23819 1.428464,1.23819 0.788866,0 1.42844,-0.55472 1.42844,-1.23819"
       style="fill:#211d1d;fill-opacity:1;fill-rule:nonzero;stroke:none;stroke-width:0.08038285"
       id="path1263"
       inkscape:connector-curvature="0" />
    <path
       d="m 91.526004,134.83764 c 0,-0.68349 -0.639574,-1.23897 -1.428466,-1.23897 -0.788892,0 -1.428465,0.55548 -1.428465,1.23897 0,0.68422 0.639573,1.23896 1.428465,1.23896 0.788892,0 1.428466,-0.55474 1.428466,-1.23896"
       style="fill:#211d1d;fill-opacity:1;fill-rule:nonzero;stroke:none;stroke-width:0.08038285"
       id="path1265"
       inkscape:connector-curvature="0" />
    <path
       d="m 92.953588,129.15192 c 0,-0.68425 -0.639575,-1.23894 -1.427584,-1.23894 -0.788892,0 -1.428466,0.55469 -1.428466,1.23894 0,0.68349 0.639574,1.23821 1.428466,1.23821 0.788009,0 1.427584,-0.55472 1.427584,-1.23821"
       style="fill:#211d1d;fill-opacity:1;fill-rule:nonzero;stroke:none;stroke-width:0.08038285"
       id="path1267"
       inkscape:connector-curvature="0" />
    <path
       d="m 127.58616,129.6812 c 0,-0.68424 0.63957,-1.23897 1.42846,-1.23897 0.78801,0 1.42844,0.55473 1.42844,1.23897 0,0.68347 -0.64043,1.23819 -1.42844,1.23819 -0.78889,0 -1.42846,-0.55472 -1.42846,-1.23819"
       style="fill:#211d1d;fill-opacity:1;fill-rule:nonzero;stroke:none;stroke-width:0.08038285"
       id="path1269"
       inkscape:connector-curvature="0" />
    <path
       d="m 121.59093,134.83764 c 0,-0.68349 0.63957,-1.23897 1.42847,-1.23897 0.78888,0 1.42761,0.55548 1.42761,1.23897 0,0.68422 -0.63873,1.23896 -1.42761,1.23896 -0.7889,0 -1.42847,-0.55474 -1.42847,-1.23896"
       style="fill:#211d1d;fill-opacity:1;fill-rule:nonzero;stroke:none;stroke-width:0.08038285"
       id="path1271"
       inkscape:connector-curvature="0" />
    <path
       d="m 120.16335,129.15192 c 0,-0.68425 0.63871,-1.23894 1.42758,-1.23894 0.78889,0 1.42847,0.55469 1.42847,1.23894 0,0.68349 -0.63958,1.23821 -1.42847,1.23821 -0.78887,0 -1.42758,-0.55472 -1.42758,-1.23821"
       style="fill:#211d1d;fill-opacity:1;fill-rule:nonzero;stroke:none;stroke-width:0.08038285"
       id="path1273"
       inkscape:connector-curvature="0" />
  </g>
</svg>
