<?xml version="1.0" encoding="UTF-8" standalone="no"?>
<!-- Created with Inkscape (http://www.inkscape.org/) -->

<svg
   xmlns:dc="http://purl.org/dc/elements/1.1/"
   xmlns:cc="http://creativecommons.org/ns#"
   xmlns:rdf="http://www.w3.org/1999/02/22-rdf-syntax-ns#"
   xmlns:svg="http://www.w3.org/2000/svg"
   xmlns="http://www.w3.org/2000/svg"
   xmlns:sodipodi="http://sodipodi.sourceforge.net/DTD/sodipodi-0.dtd"
   xmlns:inkscape="http://www.inkscape.org/namespaces/inkscape"
   version="1.1"
   id="svg1143"
   xml:space="preserve"
   width="666.66669"
   height="666.66669"
   viewBox="0 0 666.66669 666.66669"
   sodipodi:docname="dog6.svg"
   inkscape:version="0.92.3 (2405546, 2018-03-11)"><metadata
     id="metadata1149"><rdf:RDF><cc:Work
         rdf:about=""><dc:format>image/svg+xml</dc:format><dc:type
           rdf:resource="http://purl.org/dc/dcmitype/StillImage" /><dc:title /></cc:Work></rdf:RDF></metadata><defs
     id="defs1147" /><sodipodi:namedview
     pagecolor="#ffffff"
     bordercolor="#666666"
     borderopacity="1"
     objecttolerance="10"
     gridtolerance="10"
     guidetolerance="10"
     inkscape:pageopacity="0"
     inkscape:pageshadow="2"
     inkscape:window-width="2400"
     inkscape:window-height="1284"
     id="namedview1145"
     showgrid="false"
     inkscape:zoom="1.1569609"
     inkscape:cx="461.44339"
     inkscape:cy="333.33334"
     inkscape:window-x="2391"
     inkscape:window-y="-9"
     inkscape:window-maximized="1"
     inkscape:current-layer="g1151" /><g
     id="g1151"
     inkscape:groupmode="layer"
     inkscape:label="ink_ext_XXXXXX"
     transform="matrix(1.3333333,0,0,-1.3333333,0,666.66667)"><g
   id="g1153"
   transform="matrix(0.1,0,0,0.1,9.0221894,-47.757246)"><path
     d="m 2712.0886,1836.405 c -680.4434,0 -1232.0538,77.9191 -1232.0538,174.0366 0,96.1175 551.6104,174.0366 1232.0538,174.0366 680.4436,0 1232.054,-77.9191 1232.054,-174.0366 0,-96.1175 -551.6104,-174.0366 -1232.054,-174.0366"
     style="fill:#eae3d7;fill-opacity:1;fill-rule:nonzero;stroke:none;stroke-width:1.03823531"
     id="path1349"
     inkscape:connector-curvature="0" /><path
     d="m 2728.171,2296.9385 c 15.9177,-29.2052 31.671,-68.8199 8.6477,-92.5951 -8.1028,-8.3655 -19.4345,-12.4223 -30.3342,-16.2171 -25.2134,-8.7742 -50.4371,-17.5484 -75.6505,-26.3224 -17.6865,-6.1535 -39.0952,-17.9468 -36.7713,-36.8578 2.1903,-17.779 23.527,-24.6139 40.8843,-27.4967 82.7149,-13.6906 172.6586,-26.2281 246.0366,15.0116 28.1954,15.8396 51.9177,38.7132 78.7148,56.9114 73.7071,50.0872 171.0131,65.4971 228.8025,133.9291 68.3189,80.907 51.0541,213.5991 -20.2365,291.8014 -71.2907,78.2022 -182.3654,107.9002 -287.0032,103.4659 -81.522,-3.4593 -180.9464,-43.5039 -222.8591,-119.1274 -43.887,-79.156 31.0439,-211.4815 69.7689,-282.5029"
     style="fill:#b99874;fill-opacity:1;fill-rule:nonzero;stroke:none;stroke-width:1.03823531"
     id="path1351"
     inkscape:connector-curvature="0" /><path
     d="m 1807.0791,2538.8308 c 9.0386,-81.127 9.0386,-162.9876 9.0283,-244.6493 -0.011,-74.2292 -0.021,-148.4584 -0.031,-222.6982 0,-9.728 -0.051,-19.7287 -3.4961,-28.8174 -12.9768,-34.2161 -67.8974,-43.179 -69.3781,-79.8376 -1.3984,-34.803 45.1004,-46.0302 79.2599,-45.3593 55.815,1.0693 111.6094,2.1385 167.4142,3.2183 22.5501,0.4402 47.9383,2.1594 62.6839,19.5506 7.815,9.2144 11.198,21.3745 14.3548,33.1153 26.0977,96.7569 52.1955,193.5138 78.2932,290.2707 21.3368,79.1458 42.7044,158.4172 56.8639,239.2087 10.2004,58.1905 16.6375,117.817 8.6376,176.3534 -11.2804,82.5422 -50.4372,158.1026 -91.0337,230.4345 -74.2933,132.3882 -233.4092,194.1322 -374.6845,143.9298 -4.761,-1.6878 -9.7996,-3.8053 -12.4525,-8.1766 -2.5193,-4.1512 -2.3033,-9.3927 -1.9949,-14.2672 4.3085,-68.537 10.7044,-134.1179 23.3831,-201.6066 18.1903,-96.7883 42.2109,-192.5705 53.1518,-290.6691"
     style="fill:#b99874;fill-opacity:1;fill-rule:nonzero;stroke:none;stroke-width:1.03823531"
     id="path1353"
     inkscape:connector-curvature="0" /><path
     d="m 2933.8988,3182.1857 c -9.9332,-26.2491 -23.9075,-50.8734 -32.1645,-77.7201 5.707,-3.5851 12.6684,1.8661 17.0797,7.0131 50.1697,58.6098 79.9384,134.6735 84.5658,212.2362 -8.4423,0.9016 -16.7919,2.3587 -25.0078,4.7697 -12.6376,3.711 -24.3189,9.4241 -35.4449,16.2694 13.1723,-53.4626 10.4474,-111.087 -9.0283,-162.5683"
     style="fill:#cba781;fill-opacity:1;fill-rule:nonzero;stroke:none;stroke-width:1.03823531"
     id="path1355"
     inkscape:connector-curvature="0" /><path
     d="m 3706.5482,2131.4978 c -9.234,14.8858 -24.0926,25.5678 -32.7507,40.8098 -21.4396,37.7069 2.0874,84.5654 2.8689,128.1426 1.234,68.3064 -54.0155,124.9873 -64.0927,192.5389 -7.0128,46.9424 12.6171,87.0499 16.5863,132.5037 2.8996,33.3145 -2.6531,66.7862 -0.2881,100.583 6.6839,95.8449 2.8484,192.0148 -32.8637,282.2515 -43.5683,110.0387 -137.8203,204.1434 -252.8849,221.9853 -29.1208,4.518 -59.0438,4.235 -87.4758,12.1076 -50.18,13.9004 -74.4371,60.5073 -122.9617,75.0784 -41.491,12.4642 -86.5708,1.6247 -129.306,6.2163 -4.6274,-77.5627 -34.3961,-153.6264 -84.5658,-212.2362 -4.4113,-5.147 -11.3727,-10.5982 -17.0797,-7.0131 8.257,26.8467 22.2313,51.471 32.1645,77.7201 19.4757,51.4813 22.2006,109.1057 9.0283,162.5683 -44.4731,27.3919 -79.7637,73.8309 -129.2753,91.9663 -25.4396,9.3088 -52.9873,10.4514 -79.2598,16.8985 -117.2136,28.7334 -192.4836,156.4462 -310.1394,183.2719 -129.8923,29.6142 -248.3296,-72.0907 -367.6717,-132.1471 -147.5479,-74.2606 -345.1215,-102.0297 -508.3609,-90.3414 -89.5838,6.4156 -178.4888,22.6221 -264.7307,48.1898 -53.1415,15.7453 -192.566,43.7975 -220.6895,95.6563 -6.4473,11.8876 -9.4704,25.3475 -14.3239,38.0004 -8.5347,22.2237 -23.64,42.6337 -44.7096,53.0328 -21.07971,10.399 -48.43196,8.9943 -65.85099,-6.9606 -11.11573,-10.1789 -17.18254,-24.8339 -21.71732,-39.3527 -22.06685,-70.7385 -14.26222,-150.6074 21.06952,-215.507 31.90751,-58.5887 79.07469,-90.3727 135.08509,-121.1084 56.9359,-31.2391 110.6327,-69.0193 169.7177,-98.3505 135.0337,-67.0274 279.0441,-115.2906 426.8286,-142.6299 49.9949,-9.2459 101.8408,-16.6363 145.4913,-43.137 59.5374,-36.1345 94.4269,-101.6524 131.1571,-161.5516 131.6609,-214.7836 323.98,-393.5061 553.2864,-490.9968 229.3063,-97.4907 495.528,-109.9653 726.9628,-17.8314 -3.9587,-79.1666 34.026,-159.2347 97.3576,-205.2337 13.8818,-10.0845 29.8613,-19.8545 35.4756,-36.2707 10.6017,-30.9978 -21.09,-58.2743 -46.0257,-79.0513 -24.9358,-20.7875 -45.9435,-63.0858 -19.9178,-82.4163 13.1003,-9.7177 31.1569,-6.6673 46.9512,-3.0506 82.5195,18.8482 164.2883,41.1348 245.0392,66.7864 36.6375,11.6359 74.4782,24.813 101.7995,52.2887 27.3215,27.486 40.5966,73.5268 20.0721,106.5897"
     style="fill:#d7b28b;fill-opacity:1;fill-rule:nonzero;stroke:none;stroke-width:1.03823531"
     id="path1357"
     inkscape:connector-curvature="0" /><path
     d="m 3230.5473,2744.1379 c 0,0 -100.1853,-128.6039 -63.0748,-249.6497 37.1004,-121.0457 58.324,-182.6326 58.324,-182.6326 l -30.8997,-11.5311 c 0,0 -179.5479,239.5546 35.6505,443.8134"
     style="fill:#cba781;fill-opacity:1;fill-rule:nonzero;stroke:none;stroke-width:1.03823531"
     id="path1359"
     inkscape:connector-curvature="0" /><path
     d="m 1713.1047,3017.1432 c 0,0 215.0749,-44.7513 363.4968,0 0,0 -40.0309,-57.5718 -227.8051,-61.2618 0,0 -42.0772,43.0742 -135.6917,61.2618"
     style="fill:#cba781;fill-opacity:1;fill-rule:nonzero;stroke:none;stroke-width:1.03823531"
     id="path1361"
     inkscape:connector-curvature="0" /><path
     d="m 3679.4942,3006.2201 c -88.977,-106.0342 -289.6047,-70.9899 -237.7692,98.0987 1.2958,4.2247 2.8895,8.5541 6.0977,11.5312 3.27,3.0191 7.7328,4.2142 12.0103,5.3044 34.3754,8.7846 69.4501,8.5435 90.5812,40.5058 32.0927,48.5671 33.2958,118.2259 -2.1491,164.2981 -35.4447,46.0723 -107.1364,60.3708 -153.954,26.4482 -8.9871,-6.5098 -17.2031,-14.6026 -27.6196,-18.2506 -10.4268,-3.6481 -24.2365,-0.8806 -28.5657,9.4555 -4.7916,11.4788 4.4423,23.8065 13.6351,32.0671 61.2546,55.077 152.6995,71.7028 229.6457,43.7555 76.9359,-27.9474 136.9463,-98.5075 155.4245,-179.6239 18.4782,-81.106 -4.2469,-170.3153 -57.3369,-233.59"
     style="fill:#d7b28b;fill-opacity:1;fill-rule:nonzero;stroke:none;stroke-width:1.03823531"
     id="path1363"
     inkscape:connector-curvature="0" /><path
     d="m 991.76628,3557.7347 c -3.73262,-7.1284 -9.99489,-12.999 -16.97688,-17.0139 -9.96406,-5.7341 -21.33683,-8.2604 -32.52449,-10.724 -1.93314,-0.4192 -4.16448,-0.7861 -5.70693,0.4718 -0.9152,0.7443 -1.38817,1.908 -1.77894,3.0295 -9.94343,28.7127 -4.97685,61.9014 14.56042,85.2258 5.30597,6.3422 13.6864,12.2126 21.10034,8.7323 3.45505,-1.6354 5.79949,-4.9689 7.82519,-8.2501 5.67611,-9.1305 10.27255,-18.9529 13.66584,-29.1843 2.4062,-7.2541 4.22622,-14.959 3.08482,-22.5172 -0.52441,-3.4488 -1.65546,-6.7299 -3.24937,-9.7699"
     style="fill:#3c3a3e;fill-opacity:1;fill-rule:nonzero;stroke:none;stroke-width:1.03823531"
     id="path1365"
     inkscape:connector-curvature="0" /><path
     d="m 933.41143,3399.4118 c 4.50388,-5.2415 10.12853,-10.6717 16.95633,-10.4305 8.0412,0.283 13.52192,8.1242 17.69668,15.1372 30.33425,50.9992 25.67616,122.5659 -50.68387,114.4731 -3.04371,-0.3145 -6.18,-0.9017 -8.69928,-2.6837 -2.66323,-1.8659 -4.32905,-4.8535 -5.69666,-7.8411 -16.22627,-35.6104 7.14653,-81.5673 30.4268,-108.655"
     style="fill:#3c3a3e;fill-opacity:1;fill-rule:nonzero;stroke:none;stroke-width:1.03823531"
     id="path1367"
     inkscape:connector-curvature="0" /><path
     d="m 935.03616,3620.8939 c 2.49865,7.0235 4.49352,14.1729 5.38817,21.5842 -9.8715,6.3003 -23.33169,3.8367 -32.7816,-3.0924 -22.21084,-16.2799 -34.01549,-65.3608 -24.31882,-91.4526 3.527,-9.4975 15.57844,-16.3009 23.7944,-10.5562 7.22882,5.0526 7.18764,15.6299 8.06174,24.5194 2.03596,20.7351 12.89457,39.3841 19.85611,58.9976"
     style="fill:#3c3a3e;fill-opacity:1;fill-rule:nonzero;stroke:none;stroke-width:1.03823531"
     id="path1369"
     inkscape:connector-curvature="0" /><path
     d="m 1548.22,3414.4022 c 0,0 111.5066,-120.3433 267.1779,-96.8722 155.6919,23.4712 253.5531,132.0319 388.8131,155.503 135.2599,23.471 231.003,9.183 331.3529,107.2816 l -73.9539,44.3217 -913.39,-210.2341"
     style="fill:#cba781;fill-opacity:1;fill-rule:nonzero;stroke:none;stroke-width:1.03823531"
     id="path1371"
     inkscape:connector-curvature="0" /><path
     d="m 1388.1888,4090.7677 c -20.1955,-61.0103 -35.7328,-126.2243 -80.2058,-174.5608 -8.3086,-9.0258 -18.2622,-20.1271 -14.036,-31.3963 4.8432,-12.9462 23.7531,-14.1414 38.1696,-11.8456 86.0363,13.7221 159.3012,66.1889 221.471,123.7399 60.1853,55.727 107.2188,114.6092 128.7303,191.8471 4.5759,16.4056 2.1799,35.5892 -10.6118,47.5711 -9.7995,9.1725 -23.9075,12.7578 -37.3575,15.8188 -67.1568,15.3363 -128.4218,13.0825 -179.3525,-38.6819 -33.4601,-33.9959 -52.3908,-78.9045 -66.8073,-122.4923"
     style="fill:#3c3a3e;fill-opacity:1;fill-rule:nonzero;stroke:none;stroke-width:1.03823531"
     id="path1373"
     inkscape:connector-curvature="0" /><path
     d="m 1558.2662,4217.0129 c -38.9306,-43.1895 -57.594,-100.9291 -75.198,-156.7713 -21.2649,-67.4154 -42.5297,-134.8413 -63.7842,-202.2566 -11.3625,-36.0401 -22.8485,-72.8245 -22.6942,-110.6887 0.1954,-48.4622 19.4654,-94.6813 41.666,-137.5352 37.8201,-72.9713 86.2418,-141.8437 151.1468,-191.1866 64.8947,-49.3428 147.846,-77.5838 227.7948,-64.606 89.3987,14.5083 163.3217,76.5669 246.0878,113.9383 80.0002,36.124 167.9902,48.9236 254.8181,59.9726 54.7455,6.9606 113.9847,15.4727 153.0079,55.2447 35.085,35.757 45.7894,89.1673 49.7689,139.59 1.3882,17.5587 2.1182,35.5159 -2.5091,52.4876 -10.6631,39.1221 -46.8073,64.5955 -68.8433,98.4133 -42.7868,65.6857 -16.7918,142.6299 -51.6609,213.4103 -35.383,71.8287 -93.2854,130.8577 -153.7174,181.1755 -38.5194,32.0671 -79.5169,62.1215 -125.9232,80.3093 -102.9204,40.3066 -207.0235,15.6509 -307.8771,-14.8751 -88.5658,-26.7944 -186.4065,-43.7871 -252.0829,-116.6221"
     style="fill:#d7b28b;fill-opacity:1;fill-rule:nonzero;stroke:none;stroke-width:1.03823531"
     id="path1375"
     inkscape:connector-curvature="0" /><path
     d="m 1976.3442,4193.1015 c 20.6787,-57.8549 16.1851,-121.3392 16.4114,-182.9156 0.2468,-61.5869 7.0746,-127.3459 45.1209,-175.1898 11.342,-14.2462 28.7405,-27.3393 45.9744,-22.056 18.5809,5.6817 25.1414,28.2827 35.815,44.7933 38.0977,58.9557 133.0799,41.9526 183.2189,90.6559 29.1311,28.2933 36.329,72.1642 41.9537,112.7747 2.1286,15.3994 4.1543,31.6898 -1.7789,45.9989 -34.0566,82.081 -164.4629,172.8732 -248.0622,198.4408 -87.8767,26.8781 -153.553,-14.7809 -118.6532,-112.5022"
     style="fill:#3c3a3e;fill-opacity:1;fill-rule:nonzero;stroke:none;stroke-width:1.03823531"
     id="path1377"
     inkscape:connector-curvature="0" /><path
     d="m 1556.261,3454.971 c 49.9951,-26.6266 118.972,-23.9534 155.3115,20.0223 31.4037,38.0213 29.8818,95.9706 8.6169,140.7011 -21.2751,44.7409 -58.725,78.978 -96.1749,110.8249 -18.9307,16.0911 -38.4474,32.0986 -61.1826,41.7953 -22.7353,9.6966 -49.4706,12.4116 -71.7843,1.7087 -140.0826,-67.1848 -23.4859,-267.7955 65.2134,-315.0523"
     style="fill:#211d1d;fill-opacity:1;fill-rule:nonzero;stroke:none;stroke-width:1.03823531"
     id="path1379"
     inkscape:connector-curvature="0" /><path
     d="m 1375.2633,3786.4289 c -13.5631,-30.4318 -20.3496,-64.0083 -19.0951,-97.4173 2.2108,-59.0395 29.5116,-116.6639 73.5015,-155.1361 6.2724,-5.493 13.676,-10.8812 21.9228,-10.357 16.4114,1.0168 22.3034,22.2656 24.1749,38.9124 6.4062,56.964 7.8355,104.5771 27.9898,159.8847 12.3188,7.2228 22.4576,-12.1915 25.0695,-26.4167 9.4292,-51.4081 35.8458,-100.6357 77.5425,-131.0885 122.1699,-89.1881 251.0853,15.5462 195.8873,156.499 -17.8612,45.6213 -49.2135,84.3136 -81.8202,120.5006 -38.6119,42.8644 -68.432,95.8134 -113.8922,132.0736 -80.9668,64.5746 -95.517,2.0966 -133.481,-65.3397 -13.3369,-23.7018 -36.2675,-39.814 -55.2187,-59.1234 -17.7892,-18.1459 -32.1748,-39.6358 -42.5811,-62.9916"
     style="fill:#3c3a3e;fill-opacity:1;fill-rule:nonzero;stroke:none;stroke-width:1.03823531"
     id="path1381"
     inkscape:connector-curvature="0" /><path
     d="m 1481.2173,3775.5268 c 2.7249,-6.3003 6.2622,-13.1875 11.0848,-17.7895 3.2598,-3.1134 7.0951,-5.1681 11.671,-5.3043 6.4268,-0.1886 12.2057,3.7214 17.4808,7.4743 21.3882,15.2105 51.7122,45.8835 51.9486,74.1977 0.1029,11.5941 -4.4318,22.7584 -10.2622,32.6962 -6.6839,11.4053 -15.1877,21.6785 -25.0798,30.3269 -1.8303,1.6039 -3.9486,3.2286 -6.3547,3.1658 -2.6221,-0.064 -4.7404,-2.1071 -6.5913,-4.0045 -12.9254,-13.3762 -25.8612,-26.7523 -38.7867,-40.1284 -20.9563,-21.6681 -16.4834,-54.3222 -5.1105,-80.6342"
     style="fill:#211d1d;fill-opacity:1;fill-rule:nonzero;stroke:none;stroke-width:1.03823531"
     id="path1383"
     inkscape:connector-curvature="0" /><path
     d="m 1525.0836,3823.402 c 8.1647,-5.2415 16.175,-15.7347 11.2803,-26.0814 -4.2057,-8.9209 -13.5219,-5.5349 -18.653,-12.6213 -2.5604,-3.5433 -2.1594,-9.3927 -6.0257,-11.3426 -2.5398,-1.2684 -5.7584,0.084 -7.5064,2.3587 -1.7378,2.2748 -2.3446,5.2205 -2.7662,8.0824 -2.2929,15.1162 -2.7042,56.513 23.671,39.6042"
     style="fill:#3c3a3e;fill-opacity:1;fill-rule:nonzero;stroke:none;stroke-width:1.03823531"
     id="path1385"
     inkscape:connector-curvature="0" /><path
     d="m 1696.5082,3687.5439 c 0,9.5394 -7.5888,17.2863 -16.9564,17.2863 -9.3574,0 -16.9357,-7.7469 -16.9357,-17.2863 0,-9.5394 7.5783,-17.2756 16.9357,-17.2756 9.3676,0 16.9564,7.7362 16.9564,17.2756"
     style="fill:#211d1d;fill-opacity:1;fill-rule:nonzero;stroke:none;stroke-width:1.03823531"
     id="path1387"
     inkscape:connector-curvature="0" /><path
     d="m 1769.6086,3662.3013 c 0,9.5394 -7.5784,17.2757 -16.9357,17.2757 -9.3574,0 -16.9564,-7.7363 -16.9564,-17.2757 0,-9.5394 7.599,-17.2758 16.9564,-17.2758 9.3573,0 16.9357,7.7364 16.9357,17.2758"
     style="fill:#211d1d;fill-opacity:1;fill-rule:nonzero;stroke:none;stroke-width:1.03823531"
     id="path1389"
     inkscape:connector-curvature="0" /><path
     d="m 1696.5082,3607.3605 c 0,9.5394 -7.5888,17.2758 -16.9564,17.2758 -9.3574,0 -16.9357,-7.7364 -16.9357,-17.2758 0,-9.5395 7.5783,-17.2757 16.9357,-17.2757 9.3676,0 16.9564,7.7362 16.9564,17.2757"
     style="fill:#211d1d;fill-opacity:1;fill-rule:nonzero;stroke:none;stroke-width:1.03823531"
     id="path1391"
     inkscape:connector-curvature="0" /><path
     d="m 1870.5651,3977.2381 c 0,55.5907 -44.2057,100.6461 -98.7251,100.6461 -54.5297,0 -98.715,-45.0554 -98.715,-100.6461 0,-55.5801 44.1853,-100.6459 98.715,-100.6459 54.5194,0 98.7251,45.0658 98.7251,100.6459"
     style="fill:#3c3a3e;fill-opacity:1;fill-rule:nonzero;stroke:none;stroke-width:1.03823531"
     id="path1393"
     inkscape:connector-curvature="0" /><path
     d="m 1848.7964,3977.2381 c 0,43.3257 -34.4575,78.4644 -76.9564,78.4644 -42.5091,0 -76.9565,-35.1387 -76.9565,-78.4644 0,-43.3362 34.4474,-78.4538 76.9565,-78.4538 42.4989,0 76.9564,35.1176 76.9564,78.4538"
     style="fill:#211d1d;fill-opacity:1;fill-rule:nonzero;stroke:none;stroke-width:1.03823531"
     id="path1395"
     inkscape:connector-curvature="0" /><path
     d="m 1814.966,3999.2312 c 0,12.1393 -9.6452,21.9827 -21.5527,21.9827 -11.9178,0 -21.5733,-9.8434 -21.5733,-21.9827 0,-12.1497 9.6555,-21.9931 21.5733,-21.9931 11.9075,0 21.5527,9.8434 21.5527,21.9931"
     style="fill:#ffffff;fill-opacity:1;fill-rule:nonzero;stroke:none;stroke-width:1.03823531"
     id="path1397"
     inkscape:connector-curvature="0" /></g><text
   xml:space="preserve"
   style="font-style:normal;font-variant:normal;font-weight:normal;font-stretch:normal;font-size:300px;line-height:1.25;font-family:Norwester;-inkscape-font-specification:Norwester;letter-spacing:0px;word-spacing:0px;fill:#000000;fill-opacity:1;stroke:none;stroke-width:0.75"
   x="99.182274"
   y="-65.473244"
   id="text3992"
   transform="scale(1,-1)"><tspan
     sodipodi:role="line"
     id="tspan3990"
     x="99.182274"
     y="212.02676"
     style="stroke-width:0.75" /></text>

</g></svg>