<?xml version="1.0" encoding="UTF-8" standalone="no"?>
<!-- Created with Inkscape (http://www.inkscape.org/) -->

<svg
   xmlns:dc="http://purl.org/dc/elements/1.1/"
   xmlns:cc="http://creativecommons.org/ns#"
   xmlns:rdf="http://www.w3.org/1999/02/22-rdf-syntax-ns#"
   xmlns:svg="http://www.w3.org/2000/svg"
   xmlns="http://www.w3.org/2000/svg"
   xmlns:sodipodi="http://sodipodi.sourceforge.net/DTD/sodipodi-0.dtd"
   xmlns:inkscape="http://www.inkscape.org/namespaces/inkscape"
   width="600mm"
   height="300mm"
   viewBox="0 0 600 300"
   version="1.1"
   id="svg5436"
   inkscape:export-filename="C:\Users\jesus\Desktop\dogfinder_favicon.png"
   inkscape:export-xdpi="538.81799"
   inkscape:export-ydpi="538.81799"
   inkscape:version="0.92.3 (2405546, 2018-03-11)"
   sodipodi:docname="dogfinder_favicon.svg">
  <defs
     id="defs5430">
    <marker
       inkscape:stockid="SquareL"
       orient="auto"
       refY="0.0"
       refX="0.0"
       id="SquareL"
       style="overflow:visible"
       inkscape:isstock="true">
      <path
         id="path5864"
         d="M -5.0,-5.0 L -5.0,5.0 L 5.0,5.0 L 5.0,-5.0 L -5.0,-5.0 z "
         style="fill-rule:evenodd;stroke:#000000;stroke-width:1.0pt"
         transform="scale(0.8)" />
    </marker>
    <marker
       inkscape:stockid="Arrow1Lstart"
       orient="auto"
       refY="0.0"
       refX="0.0"
       id="Arrow1Lstart"
       style="overflow:visible"
       inkscape:isstock="true">
      <path
         id="path5794"
         d="M 0.0,0.0 L 5.0,-5.0 L -12.5,0.0 L 5.0,5.0 L 0.0,0.0 z "
         style="fill-rule:evenodd;stroke:#000000;stroke-width:1.0pt"
         transform="scale(0.8) translate(12.5,0)" />
    </marker>
  </defs>
  <sodipodi:namedview
     id="base"
     pagecolor="#ffffff"
     bordercolor="#666666"
     borderopacity="1.0"
     inkscape:pageopacity="0.0"
     inkscape:pageshadow="2"
     inkscape:zoom="0.43942712"
     inkscape:cx="874.8307"
     inkscape:cy="560"
     inkscape:document-units="mm"
     inkscape:current-layer="layer1"
     showgrid="false"
     inkscape:window-width="1920"
     inkscape:window-height="1013"
     inkscape:window-x="-9"
     inkscape:window-y="-9"
     inkscape:window-maximized="1"
     inkscape:measure-start="1106.46,754.148"
     inkscape:measure-end="1763.19,128.82"
     showguides="false" />
  <metadata
     id="metadata5433">
    <rdf:RDF>
      <cc:Work
         rdf:about="">
        <dc:format>image/svg+xml</dc:format>
        <dc:type
           rdf:resource="http://purl.org/dc/dcmitype/StillImage" />
        <dc:title />
      </cc:Work>
    </rdf:RDF>
  </metadata>
  <g
     inkscape:label="Layer 1"
     inkscape:groupmode="layer"
     id="layer1"
     transform="translate(0,3)">
    <flowRoot
       xml:space="preserve"
       id="flowRoot6011"
       style="fill:black;fill-opacity:1;stroke:none;font-family:sans-serif;font-style:normal;font-weight:normal;font-size:96px;line-height:1.25;letter-spacing:0px;word-spacing:0px;"><flowRegion
         id="flowRegion6013"
         style="font-size:96px;"><rect
           id="rect6015"
           width="1704.4919"
           height="457.41373"
           x="282.18558"
           y="118.90044"
           style="font-size:96px;" /></flowRegion><flowPara
         id="flowPara6017" /></flowRoot>    <text
       xml:space="preserve"
       style="font-style:normal;font-weight:normal;font-size:70.55555725px;line-height:1.25;font-family:Tahoma;letter-spacing:0px;word-spacing:0px;fill:#000000;fill-opacity:0;stroke:none;stroke-width:0.26458332;-inkscape-font-specification:Tahoma;font-stretch:normal;font-variant:normal;"
       x="128.24936"
       y="65.187759"
       id="text6021"><tspan
         sodipodi:role="line"
         id="tspan6019"
         x="128.24936"
         y="129.55774"
         style="font-size:70.55555725px;fill:#000000;fill-opacity:0;stroke-width:0.26458332;-inkscape-font-specification:Tahoma;font-family:Tahoma;font-weight:normal;font-style:normal;font-stretch:normal;font-variant:normal;" /><tspan
         sodipodi:role="line"
         x="128.24936"
         y="217.75218"
         style="font-size:70.55555725px;fill:#000000;fill-opacity:0;stroke-width:0.26458332;-inkscape-font-specification:Tahoma;font-family:Tahoma;font-weight:normal;font-style:normal;font-stretch:normal;font-variant:normal;"
         id="tspan6023" /></text>
    <text
       xml:space="preserve"
       style="font-style:normal;font-weight:normal;font-size:10.58333302px;line-height:1.25;font-family:sans-serif;letter-spacing:0px;word-spacing:0px;fill:#000000;fill-opacity:1;stroke:none;stroke-width:0.26458332"
       x="137.28101"
       y="132.62405"
       id="text6027"><tspan
         sodipodi:role="line"
         id="tspan6025"
         x="137.28101"
         y="142.27956"
         style="font-size:123.472229px;stroke-width:0.26458332" /></text>
    <flowRoot
       xml:space="preserve"
       id="flowRoot4605"
       style="fill:black;fill-opacity:1;stroke:none;font-family:Norwester;font-style:normal;font-weight:normal;font-size:40px;line-height:1.25;letter-spacing:0px;word-spacing:0px;-inkscape-font-specification:Norwester;font-stretch:normal;font-variant:normal"><flowRegion
         id="flowRegion4607"><rect
           id="rect4609"
           width="500.65186"
           height="202.53642"
           x="380.04025"
           y="669.61749" /></flowRegion><flowPara
         id="flowPara4611" /></flowRoot>    <path
       d="m 77.845925,188.11228 c 0,0 -1.1629,-15.01197 -9.80807,-23.35155 -8.64609,-8.3401 -11.80531,-5.00417 -13.13479,-1.48304 -1.32949,3.52112 -0.83157,9.08136 0,15.93841 0.83108,6.85706 -3.99033,11.86122 -2.99311,17.79184 0.99771,5.93009 4.98802,7.22744 5.32075,10.56337 0,0 14.79655,-17.60612 20.61522,-19.45903"
       style="fill:#545252;fill-opacity:1;fill-rule:nonzero;stroke:#e0ffff;stroke-width:0.04872203;stroke-opacity:1"
       id="path140"
       inkscape:connector-curvature="0"
       inkscape:export-xdpi="538.81799"
       inkscape:export-ydpi="538.81799"
       inkscape:export-filename="C:\Users\jesus\rect4922.png" />
    <path
       d="m 67.371955,193.23989 c 6.38904,-6.37246 1.84957,-22.11542 -3.19476,-26.42565 -5.04339,-4.31126 -6.87219,3.17955 -6.87219,3.17955 0.0589,2.72996 0.39639,5.8874 0.82002,9.37665 0.84081,6.93472 -4.03553,11.99496 -3.02631,17.99243 0.18874,1.1204 0.48269,2.07769 0.8394,2.91568 6.89068,2.54067 11.43384,-7.03866 11.43384,-7.03866"
       style="fill:#706c6c;fill-opacity:1;fill-rule:nonzero;stroke:#e0ffff;stroke-width:0.04872203;stroke-opacity:1"
       id="path142"
       inkscape:connector-curvature="0"
       inkscape:export-xdpi="538.81799"
       inkscape:export-ydpi="538.81799"
       inkscape:export-filename="C:\Users\jesus\rect4922.png" />
    <path
       d="m 101.1409,188.11228 c 0,0 1.16291,-15.01197 9.80856,-23.35155 8.64562,-8.3401 11.80484,-5.00417 13.13434,-1.48304 1.33041,3.52112 0.83202,9.08136 0,15.93841 -0.83112,6.85706 3.99033,11.86122 2.99262,17.79184 -0.99772,5.93009 -4.98756,7.22744 -5.32027,10.56337 0,0 -14.79657,-17.60612 -20.61525,-19.45903"
       style="fill:#545252;fill-opacity:1;fill-rule:nonzero;stroke:#e0ffff;stroke-width:0.04872203;stroke-opacity:1"
       id="path144"
       inkscape:connector-curvature="0"
       inkscape:export-xdpi="538.81799"
       inkscape:export-ydpi="538.81799"
       inkscape:export-filename="C:\Users\jesus\rect4922.png" />
    <path
       d="m 111.61443,193.23989 c -6.38813,-6.37246 -1.84911,-22.11542 3.1952,-26.42565 5.04388,-4.31126 6.87314,3.17955 6.87314,3.17955 -0.06,2.72996 -0.39778,5.8874 -0.82096,9.37665 -0.84033,6.93472 4.03556,11.99496 3.02723,17.99243 -0.18919,1.1204 -0.48314,2.07769 -0.83984,2.91568 -6.89115,2.54067 -11.43477,-7.03866 -11.43477,-7.03866"
       style="fill:#706c6c;fill-opacity:1;fill-rule:nonzero;stroke:#e0ffff;stroke-width:0.04872203;stroke-opacity:1"
       id="path146"
       inkscape:connector-curvature="0"
       inkscape:export-xdpi="538.81799"
       inkscape:export-ydpi="538.81799"
       inkscape:export-filename="C:\Users\jesus\rect4922.png" />
    <path
       d="m 124.76261,205.21377 c -7.14401,-19.14008 -35.350415,-18.87568 -35.350415,-18.87568 0,0 -29.68772,-0.2644 -35.35132,18.87568 -6.92988,23.41846 2.37563,40.7319 11.28753,45.70006 8.91236,4.96711 13.07112,8.27786 24.06379,8.27786 10.991275,0 15.150515,-3.31075 24.062885,-8.27786 8.91187,-4.96816 19.78642,-22.93235 11.28753,-45.70006"
       style="fill:#ffffff;fill-opacity:1;fill-rule:nonzero;stroke:#e0ffff;stroke-width:0.04872203;stroke-opacity:1"
       id="path148"
       inkscape:connector-curvature="0"
       inkscape:export-xdpi="538.81799"
       inkscape:export-ydpi="538.81799"
       inkscape:export-filename="C:\Users\jesus\rect4922.png" />
    <path
       d="m 115.20927,250.24871 c 0.01,-0.11579 0.7785,-10.43478 -6.09002,-15.5403 -6.90865,-5.1343 -13.558435,-9.82982 -12.893455,-17.6756 0.66498,-7.84522 3.62301,-24.42615 8.960825,-28.55273 l 0.007,-7.9e-4 c 8.24645,2.28142 17.34847,6.99544 20.23035,16.73473 6.65208,22.47914 -1.65529,39.32652 -10.21511,45.03491"
       style="fill:#545252;fill-opacity:1;fill-rule:nonzero;stroke:#e0ffff;stroke-width:0.04872203;stroke-opacity:1"
       id="path150"
       inkscape:connector-curvature="0"
       inkscape:export-xdpi="538.81799"
       inkscape:export-ydpi="538.81799"
       inkscape:export-filename="C:\Users\jesus\rect4922.png" />
    <path
       d="m 63.777115,250.24871 c -0.01,-0.11579 -0.77851,-10.43478 6.09,-15.5403 6.90821,-5.1343 13.55844,-9.82982 12.89392,-17.6756 -0.66497,-7.84522 -3.62391,-24.42615 -8.9608,-28.55273 l -0.007,-7.9e-4 c -8.24646,2.28146 -17.34802,6.99549 -20.23035,16.7348 -6.65207,22.47911 1.65574,39.32649 10.21508,45.0349"
       style="fill:#545252;fill-opacity:1;fill-rule:nonzero;stroke:#e0ffff;stroke-width:0.04872203;stroke-opacity:1"
       id="path152"
       inkscape:connector-curvature="0"
       inkscape:export-xdpi="538.81799"
       inkscape:export-ydpi="538.81799"
       inkscape:export-filename="C:\Users\jesus\rect4922.png" />
    <path
       d="m 113.0519,219.98656 c 0,3.49901 -2.54408,6.33444 -5.68253,6.33444 -3.13938,0 -5.68253,-2.83543 -5.68253,-6.33444 0,-3.49899 2.54315,-6.33441 5.68253,-6.33441 3.13845,0 5.68253,2.83542 5.68253,6.33441"
       style="fill:#000000;fill-opacity:1;fill-rule:nonzero;stroke:#e0ffff;stroke-width:0.04872203;stroke-opacity:1"
       id="path154"
       inkscape:connector-curvature="0"
       inkscape:export-xdpi="538.81799"
       inkscape:export-ydpi="538.81799"
       inkscape:export-filename="C:\Users\jesus\rect4922.png" />
    <path
       d="m 107.12433,217.03281 c 0,0.91104 -0.66267,1.64869 -1.47901,1.64869 -0.81726,0 -1.47855,-0.73765 -1.47855,-1.64869 0,-0.90997 0.66129,-1.64764 1.47855,-1.64764 0.81634,0 1.47901,0.73767 1.47901,1.64764"
       style="fill:#f1edec;fill-opacity:1;fill-rule:nonzero;stroke:#e0ffff;stroke-width:0.04872203;stroke-opacity:1"
       id="path156"
       inkscape:connector-curvature="0"
       inkscape:export-xdpi="538.81799"
       inkscape:export-ydpi="538.81799"
       inkscape:export-filename="C:\Users\jesus\rect4922.png" />
    <path
       d="m 76.294005,219.98656 c 0,3.49901 -2.54362,6.33444 -5.68208,6.33444 -3.13891,0 -5.68299,-2.83543 -5.68299,-6.33444 0,-3.49899 2.54408,-6.33441 5.68299,-6.33441 3.13846,0 5.68208,2.83542 5.68208,6.33441"
       style="fill:#000000;fill-opacity:1;fill-rule:nonzero;stroke:#e0ffff;stroke-width:0.04872203;stroke-opacity:1"
       id="path158"
       inkscape:connector-curvature="0"
       inkscape:export-xdpi="538.81799"
       inkscape:export-ydpi="538.81799"
       inkscape:export-filename="C:\Users\jesus\rect4922.png" />
    <path
       d="m 70.366425,217.03281 c 0,0.91104 -0.66267,1.64869 -1.47947,1.64869 -0.81589,0 -1.47856,-0.73765 -1.47856,-1.64869 0,-0.90997 0.66267,-1.64764 1.47856,-1.64764 0.8168,0 1.47947,0.73767 1.47947,1.64764"
       style="fill:#f1edec;fill-opacity:1;fill-rule:nonzero;stroke:#e0ffff;stroke-width:0.04872203;stroke-opacity:1"
       id="path160"
       inkscape:connector-curvature="0"
       inkscape:export-xdpi="538.81799"
       inkscape:export-ydpi="538.81799"
       inkscape:export-filename="C:\Users\jesus\rect4922.png" />
    <path
       d="m 89.133935,226.43997 c 0,0 -6.68485,-0.2073 -7.98435,3.93265 0,0 0.37102,7.65903 7.98435,7.65903 7.61424,0 7.98619,-7.65903 7.98619,-7.65903 -1.30089,-4.13995 -7.98619,-3.93265 -7.98619,-3.93265"
       style="fill:#000000;fill-opacity:1;fill-rule:nonzero;stroke:#e0ffff;stroke-width:0.04872203;stroke-opacity:1"
       id="path162"
       inkscape:connector-curvature="0"
       inkscape:export-xdpi="538.81799"
       inkscape:export-ydpi="538.81799"
       inkscape:export-filename="C:\Users\jesus\rect4922.png" />
    <path
       d="m 102.77496,240.16628 c -0.0411,0.30043 -1.06135,7.34576 -6.507615,7.34576 -4.97695,0 -6.29493,-5.93318 -6.51873,-7.19194 7.9e-4,-0.008 0.003,-0.0181 0.003,-0.0195 l -0.007,-0.001 c -0.0194,-0.10705 -0.0299,-0.18005 -0.0332,-0.20525 l -0.57867,0.1003 -0.57733,-0.1003 c -0.004,0.0253 -0.0148,0.0983 -0.0328,0.20525 l -0.007,0.001 c 0,0.001 7.9e-4,0.0113 0.003,0.0195 -0.22288,1.25876 -1.54129,7.19194 -6.51778,7.19194 -5.44627,0 -6.46657,-7.04533 -6.50717,-7.34576 l -1.19614,0.1996 c 0.0122,0.0849 1.21043,8.49441 7.70331,8.49441 4.25197,0 6.25429,-3.63789 7.13201,-6.17134 0.8791,2.53345 2.88095,6.17134 7.13339,6.17134 6.492875,0 7.691325,-8.40955 7.702845,-8.49441 l -1.19516,-0.1996"
       style="fill:#000000;fill-opacity:1;fill-rule:nonzero;stroke:#e0ffff;stroke-width:0.04872203;stroke-opacity:1"
       id="path164"
       inkscape:connector-curvature="0"
       inkscape:export-xdpi="538.81799"
       inkscape:export-ydpi="538.81799"
       inkscape:export-filename="C:\Users\jesus\rect4922.png" />
    <rect
       style="opacity:0.425;fill:#ffffff;fill-opacity:1;stroke:#ffffff;stroke-width:0.35504836;stroke-linecap:round;stroke-linejoin:miter;stroke-miterlimit:0;stroke-dasharray:none;stroke-dashoffset:0;stroke-opacity:1"
       id="rect4922-9-5"
       width="134.51723"
       height="7.8418436"
       x="155.75282"
       y="-178.86591"
       rx="20.646238"
       transform="matrix(-0.31416662,0.94936786,-0.99980373,-0.01981168,0,0)"
       inkscape:export-xdpi="538.81799"
       inkscape:export-ydpi="538.81799"
       inkscape:export-filename="C:\Users\jesus\rect4922.png" />
    <rect
       style="opacity:0.425;fill:#ffffff;fill-opacity:1;stroke:#ffffff;stroke-width:14.14986229;stroke-linecap:round;stroke-linejoin:miter;stroke-miterlimit:0;stroke-dasharray:none;stroke-dashoffset:0;stroke-opacity:1"
       id="rect4922-9"
       width="134.51723"
       height="7.8418436"
       x="146.81158"
       y="-153.60014"
       rx="20.646238"
       transform="matrix(-0.31416662,0.94936786,-0.99980373,-0.01981168,0,0)"
       inkscape:export-xdpi="538.81799"
       inkscape:export-ydpi="538.81799"
       inkscape:export-filename="C:\Users\jesus\rect4922.png" />
    <ellipse
       style="opacity:1;fill:#9cffff;fill-opacity:0.23444974;stroke:#3b3b3b;stroke-width:18.10072136;stroke-linecap:round;stroke-linejoin:round;stroke-miterlimit:4;stroke-dasharray:none;stroke-dashoffset:0;stroke-opacity:1"
       id="path4613"
       cx="88.208107"
       cy="207.45737"
       rx="71.701332"
       ry="72.022934"
       inkscape:export-xdpi="538.81799"
       inkscape:export-ydpi="538.81799"
       inkscape:export-filename="C:\Users\jesus\rect4922.png" />
  </g>
  <g
     inkscape:groupmode="layer"
     id="layer2"
     inkscape:label="Layer 2" />
</svg>
