<?xml version="1.0" encoding="UTF-8" standalone="no"?>
<svg
   xmlns:dc="http://purl.org/dc/elements/1.1/"
   xmlns:cc="http://creativecommons.org/ns#"
   xmlns:rdf="http://www.w3.org/1999/02/22-rdf-syntax-ns#"
   xmlns:svg="http://www.w3.org/2000/svg"
   xmlns="http://www.w3.org/2000/svg"
   xmlns:sodipodi="http://sodipodi.sourceforge.net/DTD/sodipodi-0.dtd"
   xmlns:inkscape="http://www.inkscape.org/namespaces/inkscape"
   width="200px"
   height="200px"
   viewBox="0 0 100 100"
   preserveAspectRatio="xMidYMid"
   class="lds-magnify"
   style="background: none;"
   version="1.1"
   id="svg14"
   sodipodi:docname="loading.svg"
   inkscape:version="0.92.3 (2405546, 2018-03-11)">
  <metadata
     id="metadata20">
    <rdf:RDF>
      <cc:Work
         rdf:about="">
        <dc:format>image/svg+xml</dc:format>
        <dc:type
           rdf:resource="http://purl.org/dc/dcmitype/StillImage" />
      </cc:Work>
    </rdf:RDF>
  </metadata>
  <defs
     id="defs18" />
  <sodipodi:namedview
     pagecolor="#ffffff"
     bordercolor="#666666"
     borderopacity="1"
     objecttolerance="10"
     gridtolerance="10"
     guidetolerance="10"
     inkscape:pageopacity="0"
     inkscape:pageshadow="2"
     inkscape:window-width="2400"
     inkscape:window-height="1284"
     id="namedview16"
     showgrid="false"
     inkscape:zoom="1.18"
     inkscape:cx="-144.91525"
     inkscape:cy="201.69492"
     inkscape:window-x="2391"
     inkscape:window-y="-9"
     inkscape:window-maximized="1"
     inkscape:current-layer="layer2" />
  <g
     inkscape:groupmode="layer"
     id="layer2"
     inkscape:label="Below layer">
    <path
       d="m 65.126726,76.650977 c 0.663278,0.674435 1.371197,1.323947 2.03824,1.998048 0.939502,0.949738 1.8978,1.925392 2.427218,3.113003 0.341029,0.76562 0.50216,1.614029 1.027804,2.285108 1.007155,1.285513 2.975879,1.504301 4.698919,1.462527 1.188007,-0.02845 2.48687,-0.173648 3.31176,-0.959348 0.730926,-0.695169 0.909899,-1.725807 0.996335,-2.688521 0.0996,-1.115103 0.100533,-2.313439 -0.559012,-3.254233 -0.517196,-0.737155 -1.366037,-1.208823 -2.149102,-1.710618 -0.772743,-0.495407 -1.526223,-1.06504 -1.971081,-1.828 -1.697683,-2.910711 2.267493,-7.210129 3.566818,-9.672488 1.289462,-2.444227 2.257621,-5.159466 1.83015,-7.846648 C 78.893714,48.43184 67.92456,51.87336 63.490582,56.647026 c -2.882864,3.08981 -3.261953,7.431948 -2.512704,11.289467 0.381446,1.963933 1.068676,3.933032 1.932086,5.760596 0.522838,1.107333 1.329867,2.05283 2.216762,2.953888"
       style="fill:#b99874;fill-opacity:1;fill-rule:nonzero;stroke:none;stroke-width:0.04502392"
       id="path128"
       inkscape:connector-curvature="0" />
    <path
       d="m 35.990414,65.16127 c 0.925877,1.49744 1.475955,3.091114 1.035807,5.137889 -0.664231,3.082909 -3.000794,5.936658 -6.267894,7.019352 -0.58155,0.193374 -1.20773,0.349118 -1.65258,0.743069 -1.33222,1.178961 -0.0991,3.217165 -0.27622,4.908758 -0.13012,1.238115 -1.11378,2.328271 -2.35561,2.824015 -1.24194,0.496266 -2.6943,0.440986 -3.9639,0.0086 -1.59659,-0.544675 -2.9607,-1.705127 -3.5479,-3.174042 -0.58681,-1.468911 -0.33582,-3.224415 0.74813,-4.431541 0.97746,-1.089112 2.64103,-1.886598 2.70543,-3.297307 0.0216,-0.474252 -0.15702,-0.935131 -0.34605,-1.37703 -1.58832,-3.712973 -2.67759,-6.808389 -1.8511,-10.875205 0.74718,-3.675408 2.87173,-7.136766 6.04305,-9.502464 0.33508,-0.24986 0.69971,-0.495839 1.12577,-0.556683 2.65273,-0.378039 3.5537,3.854489 4.0662,5.455065 0.86389,2.696684 3.05481,4.719729 4.536867,7.117793"
       style="fill:#b99874;fill-opacity:1;fill-rule:nonzero;stroke:none;stroke-width:0.04502392"
       id="path130"
       inkscape:connector-curvature="0" />
    <path
       d="m 76.056885,46.759637 c -0.166763,0.807825 -0.528937,1.580285 -0.605504,2.399778 -0.09771,1.043888 0.27481,2.068788 0.538331,3.088072 0.510157,1.972568 0.620076,4.043518 0.208097,6.035497 -0.575913,2.784721 -2.137361,5.314387 -3.892347,7.645563 -4.056304,5.387747 -9.528903,10.15495 -16.321033,12.151249 -7.153364,2.102361 -18.862854,0.286877 -24.788762,-4.043086 -4.64452,-3.394045 -6.98117,-8.959157 -7.19603,-14.408187 -0.0694,-1.759379 0.0633,-3.54077 0.60904,-5.22894 0.72867,-2.254356 2.76565,-3.964117 3.44059,-6.167547 0.47258,-1.543182 -0.0953,-3.440652 1.09217,-4.6153 0.81972,-0.810432 2.21065,-0.94722 3.04446,-1.744703 0.46224,-0.442331 0.69946,-1.036548 0.92823,-1.611803 1.3961,-3.508396 2.972583,-7.040965 5.620107,-9.876171 7.393409,-7.918289 38.223639,-14.48371 37.519007,2.18919 -0.09347,2.207759 -0.911318,4.341275 -0.969092,6.539535 -0.06714,2.565919 1.303085,5.081781 0.772736,7.646853"
       style="fill:#d7b28b;fill-opacity:1;fill-rule:nonzero;stroke:none;stroke-width:0.04502392"
       id="path132"
       inkscape:connector-curvature="0" />
    <path
       d="m 36.019071,76.498634 -2.083814,-0.827258 c 0,0 -1.35148,-2.208175 -1.31061,-5.465429 0.0414,-3.25724 -2.78797,-5.977223 -3.17035,-9.635803 -0.38191,-3.658586 1.54924,-6.670292 1.54924,-6.670292 l 5.015534,22.598782"
       style="fill:#cba781;fill-opacity:1;fill-rule:nonzero;stroke:none;stroke-width:0.04502392"
       id="path134"
       inkscape:connector-curvature="0" />
    <path
       d="m 44.109597,57.887701 c 0,0 3.723245,2.70574 4.361632,10.334907 0.141868,1.694639 -0.04839,4.027539 -0.851658,6.644374 -0.969565,3.159346 -0.791997,3.929553 -0.791997,3.929553 l -2.16461,-0.259741 -0.553367,-20.649093"
       style="fill:#cba781;fill-opacity:1;fill-rule:nonzero;stroke:none;stroke-width:0.04502392"
       id="path136"
       inkscape:connector-curvature="0" />
    <path
       d="m 61.252684,76.07227 -2.123269,0.851 c 0,0 -2.184349,-3.640455 -1.831094,-7.143678 0.353257,-3.503224 0.918366,-9.96638 5.158336,-12.188363 4.239971,-2.222852 -1.203973,18.481041 -1.203973,18.481041"
       style="fill:#cba781;fill-opacity:1;fill-rule:nonzero;stroke:none;stroke-width:0.04502392"
       id="path138"
       inkscape:connector-curvature="0" />
    <path
       d="m 76.131578,30.267543 v 5.459383 c 0,0 -5.81646,11.62347 -20.423373,13.274968 -14.6069,1.651502 -23.083558,-7.686984 -23.083558,-7.686984 l 1.38341,-3.217969 42.123521,-7.829398"
       style="fill:#cba781;fill-opacity:1;fill-rule:nonzero;stroke:none;stroke-width:0.04502392"
       id="path140"
       inkscape:connector-curvature="0" />
    <path
       d="m 25.864127,19.77557 c -0.9347,-5.773556 8.66912,-8.52763 8.66912,-8.52763 5.00755,-2.033396 5.719214,-1.341217 10.449144,-3.2015752 4.729455,-1.8603648 4.545772,-2.2539225 9.73323,-4.7365594 0,0 8.797503,-4.4836792 12.700192,0.1225615 3.903161,4.6057945 15.722568,17.2554671 9.209946,29.1305311 -0.425119,0.77504 -0.866223,1.500014 -1.316706,2.18832 -5.658158,8.641982 -12.946809,10.586493 -12.946809,10.586493 0,0 -7.919071,4.385284 -19.907113,0.665004 C 42.05021,45.877135 41.657497,45.739467 41.273236,45.59361 28.629887,40.798801 26.771367,25.378652 25.864127,19.77557"
       style="fill:#d7b28b;fill-opacity:1;fill-rule:nonzero;stroke:none;stroke-width:0.04502392"
       id="path142"
       inkscape:connector-curvature="0" />
    <path
       d="m 68.031191,38.552639 c 0,0 -0.683027,4.890617 -7.046733,7.39398 -6.364191,2.502916 -10.756354,-0.390977 -10.756354,-0.390977 l 6.435586,-8.879327 11.367501,1.876324"
       style="fill:#211d1d;fill-opacity:1;fill-rule:nonzero;stroke:none;stroke-width:0.04502392"
       id="path144"
       inkscape:connector-curvature="0" />
    <path
       d="m 51.398248,31.118539 c 0.93198,-0.765123 2.555916,-1.725295 4.347077,-1.770177 0,0 15.731962,-1.39559 15.705654,5.858993 -0.02392,6.383747 -9.998648,6.641801 -13.967577,3.232237 -0.05305,4.991581 -7.141156,11.444798 -12.186272,7.054328 -5.732849,-4.988569 6.101118,-14.37538 6.101118,-14.37538"
       style="fill:#3c3a3e;fill-opacity:1;fill-rule:nonzero;stroke:none;stroke-width:0.04502392"
       id="path146"
       inkscape:connector-curvature="0" />
    <path
       d="m 61.392203,1.3911842 c 0,0 7.855178,-4.6053766 10.808503,-1.55095183 2.953793,3.05486453 2.634833,6.96632473 7.260937,10.98350463 4.626117,4.017189 1.123642,6.800184 -4.917819,4.117309 C 68.502829,12.257304 51.726603,8.6759761 61.392203,1.3911842"
       style="fill:#3c3a3e;fill-opacity:1;fill-rule:nonzero;stroke:none;stroke-width:0.04502392"
       id="path148"
       inkscape:connector-curvature="0" />
    <path
       d="m 30.837717,12.870955 c 0,0 2.03072,1.358916 -0.33729,6.318149 -2.36801,4.959673 1.51213,15.918572 -0.98037,17.713762 -2.49273,1.795211 -9.77021,-8.499141 -10.66898,-12.521063 -1.52336,-6.81874 2.73319,-12.844728 11.98664,-11.510848"
       style="fill:#3c3a3e;fill-opacity:1;fill-rule:nonzero;stroke:none;stroke-width:0.04502392"
       id="path150"
       inkscape:connector-curvature="0" />
    <path
       d="m 51.212692,33.927849 c 0.11227,-2.196534 2.867832,-3.113549 2.867832,-3.113549 0,0 2.624497,-1.199243 4.43258,0.242096 1.408307,1.123719 -0.372984,3.898078 -1.460456,4.669677 -1.380601,0.979581 -5.939066,0.142403 -5.839956,-1.798224"
       style="fill:#211d1d;fill-opacity:1;fill-rule:nonzero;stroke:none;stroke-width:0.04502392"
       id="path152"
       inkscape:connector-curvature="0" />
    <path
       d="m 57.359391,32.62762 0.04032,0.0061 0.100526,-0.04012 c 0.155483,-0.09578 0.456598,-0.364651 0.649664,-0.17002 0.197298,0.19894 0.0077,0.625734 -0.08548,0.84193 -0.117431,0.272301 -0.498869,0.942911 -0.893464,0.740956 -0.13716,-0.06997 -0.233466,-0.190748 -0.31897,-0.311578 -0.284182,-0.404348 -0.491823,-0.854017 -0.611604,-1.32223 -0.02491,-0.09713 -0.03575,-0.22052 0.05495,-0.275319 0.05068,-0.03142 0.116976,-0.0285 0.176628,-0.01687 0.328829,0.06691 0.540674,0.354719 0.825825,0.519567 l 0.06151,0.02802"
       style="fill:#3c3a3e;fill-opacity:1;fill-rule:nonzero;stroke:none;stroke-width:0.04502392"
       id="path154"
       inkscape:connector-curvature="0" />
    <path
       d="m 53.245305,34.245886 -0.02339,0.03022 -0.100527,0.03925 c -0.182732,0.03755 -0.60222,0.05175 -0.582491,0.315017 0.02073,0.268853 0.487602,0.43628 0.722009,0.523464 0.295942,0.110458 1.087482,0.319766 1.200693,-0.08196 0.03945,-0.139391 0.01084,-0.286979 -0.02577,-0.42722 -0.122137,-0.46779 -0.332576,-0.916161 -0.619134,-1.319213 -0.05914,-0.08331 -0.148911,-0.175636 -0.255067,-0.153628 -0.05914,0.01225 -0.102875,0.05823 -0.134346,0.10618 -0.17428,0.264525 -0.09442,0.604158 -0.161606,0.907094 l -0.02016,0.0608"
       style="fill:#3c3a3e;fill-opacity:1;fill-rule:nonzero;stroke:none;stroke-width:0.04502392"
       id="path156"
       inkscape:connector-curvature="0" />
    <path
       d="m 61.131032,25.682456 c -1.042387,-2.235792 0.08642,-4.824598 2.520204,-5.782178 2.434244,-0.957587 5.252283,0.07902 6.294671,2.3152 1.041903,2.236232 -0.08644,4.825026 -2.520682,5.782175 -2.433788,0.957579 -5.251817,-0.07903 -6.294193,-2.315197"
       style="fill:#3c3a3e;fill-opacity:1;fill-rule:nonzero;stroke:none;stroke-width:0.04502392"
       id="path158"
       inkscape:connector-curvature="0" />
    <path
       d="m 62.10247,25.300541 c -0.812676,-1.743404 0.06713,-3.761281 1.964964,-4.507844 1.89779,-0.746132 4.094357,0.0618 4.907014,1.805122 0.812201,1.742979 -0.06713,3.76128 -1.964964,4.507847 -1.897325,0.746555 -4.094348,-0.06177 -4.907014,-1.805125"
       style="fill:#211d1d;fill-opacity:1;fill-rule:nonzero;stroke:none;stroke-width:0.04502392"
       id="path160"
       inkscape:connector-curvature="0" />
    <path
       d="m 63.200268,23.822092 c -0.227837,-0.488495 0.01873,-1.054241 0.550554,-1.263541 0.532222,-0.20887 1.14761,0.01722 1.375438,0.506199 0.227352,0.488493 -0.01873,1.053807 -0.550554,1.263107 -0.531757,0.209302 -1.147592,-0.01722 -1.375438,-0.505765"
       style="fill:#ffffff;fill-opacity:1;fill-rule:nonzero;stroke:none;stroke-width:0.04502392"
       id="path162"
       inkscape:connector-curvature="0" />
    <path
       d="m 36.334275,35.435649 c -1.04191,-2.236241 0.08642,-4.82503 2.52068,-5.782611 2.433779,-0.957161 5.251818,0.07939 6.294195,2.315625 1.042376,2.235797 -0.08642,4.825028 -2.520214,5.782182 -2.434255,0.957576 -5.252284,-0.07902 -6.294661,-2.315196"
       style="fill:#3c3a3e;fill-opacity:1;fill-rule:nonzero;stroke:none;stroke-width:0.04502392"
       id="path164"
       inkscape:connector-curvature="0" />
    <path
       d="m 37.305714,35.053734 c -0.812192,-1.743417 0.06722,-3.761715 1.964974,-4.507853 1.89779,-0.746554 4.094823,0.06129 4.907013,1.804695 0.812676,1.743412 -0.06722,3.761714 -1.964488,4.508274 -1.8978,0.746131 -4.094823,-0.06214 -4.907499,-1.805116"
       style="fill:#211d1d;fill-opacity:1;fill-rule:nonzero;stroke:none;stroke-width:0.04502392"
       id="path166"
       inkscape:connector-curvature="0" />
    <path
       d="m 38.403997,33.57485 c -0.227828,-0.488495 0.01883,-1.053811 0.550554,-1.262682 0.531747,-0.209727 1.147125,0.01724 1.374952,0.505338 0.227828,0.488497 -0.01882,1.054244 -0.550544,1.263111 -0.531756,0.209728 -1.1476,-0.01719 -1.374962,-0.505767"
       style="fill:#ffffff;fill-opacity:1;fill-rule:nonzero;stroke:none;stroke-width:0.04502392"
       id="path168"
       inkscape:connector-curvature="0" />
    <path
       d="m 67.267376,34.202313 c -0.159713,-0.342211 0.01321,-0.738805 0.385668,-0.885091 0.372984,-0.146721 0.804213,0.01225 0.963927,0.35473 0.159713,0.342204 -0.01321,0.738784 -0.386134,0.885511 -0.372509,0.146728 -0.804214,-0.01248 -0.963461,-0.35515"
       style="fill:#211d1d;fill-opacity:1;fill-rule:nonzero;stroke:none;stroke-width:0.04502392"
       id="path170"
       inkscape:connector-curvature="0" />
    <path
       d="m 65.63687,37.898 c -0.159722,-0.342211 0.0136,-0.738801 0.386144,-0.885517 0.372974,-0.146731 0.804214,0.01221 0.963927,0.354722 0.159238,0.342216 -0.01321,0.738801 -0.386143,0.885518 -0.37251,0.146289 -0.804214,-0.01218 -0.963928,-0.354723"
       style="fill:#211d1d;fill-opacity:1;fill-rule:nonzero;stroke:none;stroke-width:0.04502392"
       id="path172"
       inkscape:connector-curvature="0" />
    <path
       d="m 63.635738,35.317405 c -0.159712,-0.342653 0.01321,-0.738799 0.385659,-0.885088 0.372994,-0.146719 0.804689,0.01225 0.963927,0.354291 0.159723,0.342648 -0.01321,0.7388 -0.385668,0.885517 -0.372975,0.146715 -0.80467,-0.0125 -0.963918,-0.35472"
       style="fill:#211d1d;fill-opacity:1;fill-rule:nonzero;stroke:none;stroke-width:0.04502392"
       id="path174"
       inkscape:connector-curvature="0" />
    <path
       d="m 47.393151,42.019619 c -0.159247,-0.342216 -0.590943,-0.501028 -0.963462,-0.354721 -0.372984,0.146712 -0.545371,0.542868 -0.386134,0.885523 0.159714,0.342196 0.591419,0.501005 0.963937,0.354274 0.372975,-0.146295 0.545372,-0.542442 0.385659,-0.885076"
       style="fill:#211d1d;fill-opacity:1;fill-rule:nonzero;stroke:none;stroke-width:0.04502392"
       id="path176"
       inkscape:connector-curvature="0" />
    <path
       d="m 51.429728,43.486414 c -0.159723,-0.342651 -0.591427,-0.501458 -0.964402,-0.354724 -0.372518,0.14672 -0.545381,0.543302 -0.385668,0.885519 0.159713,0.342639 0.590943,0.501016 0.963927,0.35472 0.372509,-0.146725 0.545381,-0.543309 0.386143,-0.885513"
       style="fill:#211d1d;fill-opacity:1;fill-rule:nonzero;stroke:none;stroke-width:0.04502392"
       id="path178"
       inkscape:connector-curvature="0" />
    <path
       d="m 50.777717,40.374597 c -0.159257,-0.342209 -0.590953,-0.501021 -0.963472,-0.354298 -0.372984,0.146726 -0.545371,0.543315 -0.386134,0.885515 0.159723,0.342636 0.590953,0.501011 0.963928,0.354294 0.372985,-0.146289 0.545381,-0.542868 0.385678,-0.885511"
       style="fill:#211d1d;fill-opacity:1;fill-rule:nonzero;stroke:none;stroke-width:0.04502392"
       id="path180"
       inkscape:connector-curvature="0" />
    <path
       d="m 61.118804,58.716687 c 1.708955,-2.605637 4.580067,-3.018619 7.494867,-4.272223 1.416308,-0.609345 2.512247,-1.393881 4.144623,-1.495288 0.936687,-0.05784 1.949936,0.222668 2.485458,0.878178 0.11087,0.135507 0.0076,0.04882 -0.160187,0.131617 1.420058,3.226615 0.4566,6.835567 -0.80093,10.110508 -0.485715,1.265278 -1.015128,2.523198 -1.321403,3.827744 -0.278563,1.185005 -0.370638,2.396766 -0.654374,3.580049 -0.651073,2.711771 -2.283449,5.184053 -3.115383,7.859213 -0.553368,1.780911 -0.744086,3.626595 -0.932932,5.461438 -0.297349,2.894378 -0.492289,3.513681 1.624411,5.795947 1.059748,1.143581 2.65738,1.99165 3.193831,3.373932 0.746442,1.9232 -1.078542,4.041623 -3.346499,4.665318 -2.268436,0.623881 -4.750591,0.116827 -6.972514,-0.617956 -0.457538,-0.15104 -0.926828,-0.32116 -1.255172,-0.630956 -0.404932,-0.381999 -0.534581,-0.9162 -0.61304,-1.425799 -0.186012,-1.210472 -0.173794,-2.442897 0.03708,-3.650329 0.105223,-0.602998 0.255543,-1.237308 -0.0057,-1.804756 -0.127293,-0.277117 -0.34527,-0.517834 -0.48572,-0.790223 -0.345735,-0.669751 -0.187439,-1.439102 -0.04003,-2.15889 1.032052,-5.033977 1.242024,-7.66973 -0.217482,-12.626814 -0.391782,-1.33172 -0.90381,-2.64316 -1.127881,-4.002932 -0.196357,-1.190622 -0.168642,-2.398485 -0.112745,-3.60033 0.138111,-2.960784 0.483371,-6.019085 2.181049,-8.607448"
       style="fill:#d7b28b;fill-opacity:1;fill-rule:nonzero;stroke:none;stroke-width:0.04502392"
       id="path182"
       inkscape:connector-curvature="0" />
    <path
       d="m 45.128954,58.716687 c -1.70943,-2.605637 -4.580076,-3.018619 -7.494885,-4.272223 -1.416759,-0.609345 -2.512694,-1.393881 -4.145072,-1.495288 -0.93575,-0.05784 -1.949,0.222668 -2.48453,0.877316 -0.2189,0.267551 -0.23064,0.820783 -0.32976,1.137113 -1.02218,3.2594 0.0907,5.982404 1.29042,9.105872 0.48525,1.26528 1.01465,2.523198 1.3214,3.827744 0.27809,1.185005 0.37063,2.396766 0.65436,3.580049 0.6506,2.711771 2.283468,5.184053 3.115387,7.859212 0.553369,1.780914 0.744097,3.626598 0.932466,5.461441 0.297816,2.894378 0.492765,3.513673 -1.623935,5.795947 -1.060232,1.143581 -2.657378,1.991643 -3.193838,3.373932 -0.74644,1.92319 1.07808,4.041623 3.346507,4.665318 2.268426,0.623881 4.750124,0.116827 6.972048,-0.617956 0.457538,-0.15104 0.926817,-0.32116 1.255648,-0.630956 0.404921,-0.381999 0.534095,-0.9162 0.612544,-1.425799 0.186497,-1.210472 0.174289,-2.442897 -0.0367,-3.650329 -0.105214,-0.602998 -0.256009,-1.237315 0.0047,-1.804756 0.127301,-0.277117 0.345744,-0.517834 0.486195,-0.790223 0.345745,-0.669751 0.187438,-1.439102 0.03993,-2.15889 -1.032032,-5.033977 -1.242013,-7.66973 0.217503,-12.626814 0.391771,-1.33172 0.903323,-2.64316 1.127405,-4.002932 0.196356,-1.190622 0.169098,-2.398485 0.113201,-3.60033 -0.138568,-2.960784 -0.483371,-6.019085 -2.18105,-8.607448"
       style="fill:#d7b28b;fill-opacity:1;fill-rule:nonzero;stroke:none;stroke-width:0.04502392"
       id="path184"
       inkscape:connector-curvature="0" />
  </g>
  <g
     inkscape:groupmode="layer"
     id="layer1"
     inkscape:label="Main layer">
    <g
       style="background:none"
       transform="translate(50,50)"
       id="g12">
      <g
         ng-attr-transform="scale({{config.scale}})"
         id="g10"
         transform="scale(1)">
        <g
           transform="translate(-50,-50)"
           id="g8">
          <g
             transform="translate(1.51887 -20)"
             id="g6">
            <animateTransform
               attributeName="transform"
               type="translate"
               calcMode="linear"
               values="-20 -20;20 -20;0 20;-20 -20"
               keyTimes="0;0.33;0.66;1"
               dur="1.5s"
               begin="0s"
               repeatCount="indefinite" />
            <path
               ng-attr-fill="{{config.glass}}"
               d="M44.19,26.158c-4.817,0-9.345,1.876-12.751,5.282c-3.406,3.406-5.282,7.934-5.282,12.751 c0,4.817,1.876,9.345,5.282,12.751c3.406,3.406,7.934,5.282,12.751,5.282s9.345-1.876,12.751-5.282 c3.406-3.406,5.282-7.934,5.282-12.751c0-4.817-1.876-9.345-5.282-12.751C53.536,28.033,49.007,26.158,44.19,26.158z"
               id="path2"
               fill="#b7c5c6" />
            <path
               ng-attr-fill="{{config.frame}}"
               d="M78.712,72.492L67.593,61.373l-3.475-3.475c1.621-2.352,2.779-4.926,3.475-7.596c1.044-4.008,1.044-8.23,0-12.238 c-1.048-4.022-3.146-7.827-6.297-10.979C56.572,22.362,50.381,20,44.19,20C38,20,31.809,22.362,27.085,27.085 c-9.447,9.447-9.447,24.763,0,34.21C31.809,66.019,38,68.381,44.19,68.381c4.798,0,9.593-1.425,13.708-4.262l9.695,9.695 l4.899,4.899C73.351,79.571,74.476,80,75.602,80s2.251-0.429,3.11-1.288C80.429,76.994,80.429,74.209,78.712,72.492z M56.942,56.942 c-3.406,3.406-7.934,5.282-12.751,5.282s-9.345-1.876-12.751-5.282c-3.406-3.406-5.282-7.934-5.282-12.751 c0-4.817,1.876-9.345,5.282-12.751c3.406-3.406,7.934-5.282,12.751-5.282c4.817,0,9.345,1.876,12.751,5.282 c3.406,3.406,5.282,7.934,5.282,12.751C62.223,49.007,60.347,53.536,56.942,56.942z"
               id="path4"
               fill="#2986B2" />
          </g>
        </g>
      </g>
    </g>
  </g>
</svg>
