<?xml version="1.0" encoding="UTF-8" standalone="no"?>
<!-- Created with Inkscape (http://www.inkscape.org/) -->

<svg
   xmlns:dc="http://purl.org/dc/elements/1.1/"
   xmlns:cc="http://creativecommons.org/ns#"
   xmlns:rdf="http://www.w3.org/1999/02/22-rdf-syntax-ns#"
   xmlns:svg="http://www.w3.org/2000/svg"
   xmlns="http://www.w3.org/2000/svg"
   xmlns:sodipodi="http://sodipodi.sourceforge.net/DTD/sodipodi-0.dtd"
   xmlns:inkscape="http://www.inkscape.org/namespaces/inkscape"
   version="1.1"
   id="svg1143"
   xml:space="preserve"
   width="666.66669"
   height="666.66669"
   viewBox="0 0 666.66669 666.66669"
   sodipodi:docname="not_found.svg"
   inkscape:version="0.92.3 (2405546, 2018-03-11)"><metadata
     id="metadata1149"><rdf:RDF><cc:Work
         rdf:about=""><dc:format>image/svg+xml</dc:format><dc:type
           rdf:resource="http://purl.org/dc/dcmitype/StillImage" /><dc:title /></cc:Work></rdf:RDF></metadata><defs
     id="defs1147" /><sodipodi:namedview
     pagecolor="#ffffff"
     bordercolor="#666666"
     borderopacity="1"
     objecttolerance="10"
     gridtolerance="10"
     guidetolerance="10"
     inkscape:pageopacity="0"
     inkscape:pageshadow="2"
     inkscape:window-width="1920"
     inkscape:window-height="1013"
     id="namedview1145"
     showgrid="false"
     inkscape:zoom="1.1569609"
     inkscape:cx="461.44339"
     inkscape:cy="342.12037"
     inkscape:window-x="-9"
     inkscape:window-y="-9"
     inkscape:window-maximized="1"
     inkscape:current-layer="g1151" /><g
     id="g1151"
     inkscape:groupmode="layer"
     inkscape:label="ink_ext_XXXXXX"
     transform="matrix(1.3333333,0,0,-1.3333333,0,666.66667)"><text
   xml:space="preserve"
   style="font-style:normal;font-variant:normal;font-weight:normal;font-stretch:normal;font-size:300px;line-height:1.25;font-family:Norwester;-inkscape-font-specification:Norwester;letter-spacing:0px;word-spacing:0px;fill:#000000;fill-opacity:1;stroke:none;stroke-width:0.75"
   x="99.182274"
   y="-65.473244"
   id="text3992"
   transform="scale(1,-1)"><tspan
     sodipodi:role="line"
     id="tspan3990"
     x="99.182274"
     y="212.02676"
     style="stroke-width:0.75" /></text>


<text
   xml:space="preserve"
   style="font-style:normal;font-variant:normal;font-weight:normal;font-stretch:normal;font-size:144px;line-height:1.25;font-family:Lato;-inkscape-font-specification:Lato;letter-spacing:0px;word-spacing:0px;fill:#2986b2;fill-opacity:1;stroke:none;stroke-width:1.70078743;stroke-miterlimit:4;stroke-dasharray:none"
   x="53.156506"
   y="-359.77881"
   id="text851"
   transform="scale(1,-1)"><tspan
     sodipodi:role="line"
     id="tspan849"
     x="53.156506"
     y="-359.77881"
     style="font-style:normal;font-variant:normal;font-weight:bold;font-stretch:normal;font-size:144px;font-family:Lato;-inkscape-font-specification:'Lato Bold';fill:#2986b2;fill-opacity:1;stroke-width:1.70078743;stroke-miterlimit:4;stroke-dasharray:none">UPS...</tspan></text>


<path
   d="m 355.37728,8.7044876 c -18.89575,0 -37.48227,4.0721184 -50.27857,16.8822084 -5.62901,5.636734 -9.96678,12.83125 -17.1599,16.437025 -5.02523,2.51911 -10.78963,2.94657 -16.50883,2.94657 -1.29557,0 -2.58893,-0.025 -3.87159,-0.0474 -25.53246,-0.48198 -51.06282,-0.96351 -76.59526,-1.44525 -6.21123,-0.11613 -12.46546,-0.22641 -18.7218,-0.22641 -22.99513,0 -46.03753,1.48826 -67.27089,9.61069 -27.008481,10.32922 -50.630961,34.23503 -50.770621,62.307459 -0.0903,18.33513 9.5908,36.19478 6.88801,54.341 -0.44478,2.97314 -0.41468,3.74135 0.20408,3.74135 0.33089,0 0.82931,-0.22 1.51684,-0.44022 0.68535,-0.21776 1.55978,-0.43787 2.63615,-0.43787 1.08929,0 2.38911,0.22444 3.91453,0.89895 30.867141,13.64494 64.817341,20.70827 98.754651,20.70827 8.71421,0 17.42198,-0.46495 26.0825,-1.40349 l -60.34854,-14.46713 c 48.23541,11.07665 96.47297,22.15124 144.71058,33.22576 26.12758,5.99827 53.19618,11.74313 80.23696,11.74313 3.20116,0 6.39811,-0.081 9.59715,-0.2512 39.43526,-2.099 41.92539,-9.098 45.38867,-43.78544 1.5856,-15.88931 11.21938,-29.77096 17.89897,-44.36888 C 442.82449,110.32156 437.43185,46.548331 417.65731,26.091124 407.7829,15.876312 392.64472,12.425178 378.32732,10.424522 370.87424,9.3839196 363.10106,8.7027166 355.37728,8.7027166"
   style="fill:#eae3d7;fill-opacity:1;fill-rule:nonzero;stroke:none;stroke-width:0.21120401"
   id="path1275"
   inkscape:connector-curvature="0" /><path
   d="m 332.96445,277.49882 c 10.86267,-6.67301 15.94379,-19.20512 20.20424,-30.942 10.27618,-28.31345 19.97654,-57.38683 37.94423,-81.85713 3.86294,-5.26114 8.24152,-10.40402 14.08107,-13.53077 5.84169,-3.12472 13.44946,-3.86801 19.06341,-0.37374 9.65526,6.0128 8.51442,19.60166 8.07613,30.69491 -0.78204,19.82794 4.38075,39.88422 0.56516,59.38202 -4.74168,24.2524 -24.2906,45.23679 -48.75316,52.33328 -6.15104,1.78354 -12.62658,2.77596 -18.30715,5.67432 -5.56671,2.83822 -10.05485,7.35398 -15.55709,10.31056 -12.72116,6.83078 -28.53389,4.29779 -42.44528,0.16848 -1.61781,-0.47964 -2.02602,-0.39254 -1.63714,-1.98071 0.38671,-1.59042 1.54262,-2.88595 2.66191,-4.11094 9.87877,-10.83163 11.49224,-18.02366 24.10378,-25.76796"
   style="fill:#b99874;fill-opacity:1;fill-rule:nonzero;stroke:none;stroke-width:0.21120401"
   id="path1277"
   inkscape:connector-curvature="0" /><path
   d="m 358.34011,124.08458 c 3.41176,10.2877 5.66548,20.93453 6.71179,31.6915 0.17198,1.78138 -0.33074,4.27281 -2.17851,4.21473 -4.7138,-9.4261 -9.42541,-18.85009 -14.13913,-28.27615 -2.74794,-5.49778 -5.80089,-11.25308 -9.74119,-16.01179 1.01838,0.25953 2.02813,0.58558 3.02932,0.99869 1.94438,0.80559 3.93172,1.92674 6.02003,1.60907 2.99718,-0.45496 4.56335,-3.78086 4.21105,-6.74357 0.3545,0.46316 0.73044,0.91349 1.057,1.39933 2.28601,3.40291 3.74698,7.25222 5.02964,11.11819"
   style="fill:#cba781;fill-opacity:1;fill-rule:nonzero;stroke:none;stroke-width:0.21120401"
   id="path1279"
   inkscape:connector-curvature="0" /><path
   d="m 349.36161,51.970921 c -1.08068,-0.40725 -1.75105,-1.44272 -2.2645,-2.44996 -2.50947,-4.8978 -3.10674,-10.40957 -3.24424,-15.924596 l 0.29845,-0.06018 c 1.87353,-0.51261 3.48921,-1.579815 5.00602,-2.786704 -0.0428,0.939189 -0.0648,1.873526 -0.0611,2.802859 0.0371,6.143571 0.82284,12.297641 0.2616,18.418371"
   style="fill:#cba781;fill-opacity:1;fill-rule:nonzero;stroke:none;stroke-width:0.21120401"
   id="path1281"
   inkscape:connector-curvature="0" /><path
   d="m 386.1585,49.643231 c -1.77681,-0.57674 -1.93576,-2.90419 -1.80039,-4.71279 0.60352,-8.225372 0.36303,-16.507662 -0.69607,-24.689987 1.78107,0.67243 3.56642,1.316276 5.46566,1.451012 1.45885,0.104465 2.8833,-0.101934 4.29267,-0.440807 -0.45736,4.132323 -1.00548,8.257967 -1.66293,12.36411 -0.89804,5.630942 -2.07974,11.456642 -5.59894,16.028262"
   style="fill:#cba781;fill-opacity:1;fill-rule:nonzero;stroke:none;stroke-width:0.21120401"
   id="path1283"
   inkscape:connector-curvature="0" /><path
   d="m 427.58327,50.862421 c -0.7133,0.83274 -2.23656,1.53685 -2.75219,0.57733 -0.19577,-0.36959 -0.0968,-0.81593 0.009,-1.2206 2.0282,-7.81094 3.40962,-15.775367 4.1766,-23.793921 2.23016,1.185715 4.46239,2.375634 6.70974,3.471225 -0.69397,2.661711 -1.39437,5.321988 -2.15495,7.962722 -1.32771,4.604874 -2.83816,9.320184 -5.98777,13.003194"
   style="fill:#cba781;fill-opacity:1;fill-rule:nonzero;stroke:none;stroke-width:0.21120401"
   id="path1285"
   inkscape:connector-curvature="0" /><path
   d="m 326.29127,53.068981 c 0.0119,-0.2965 0.0119,-0.59356 0.0295,-0.89041 0.47081,-7.40551 3.54719,-16.086571 11.02814,-17.76212 2.13126,-0.474972 4.3829,-0.311356 6.50123,-0.820086 0.0704,2.797248 0.26159,5.595366 0.75842,8.312936 -2.866,0.48438 -5.76645,0.83942 -8.44347,1.90434 -4.47316,1.78597 -7.59273,5.16377 -9.87654,9.25534"
   style="fill:#b99874;fill-opacity:1;fill-rule:nonzero;stroke:none;stroke-width:0.21120401"
   id="path1287"
   inkscape:connector-curvature="0" /><path
   d="m 392.09905,31.292366 c 0.50059,-3.338978 0.94961,-6.686068 1.32132,-10.041425 2.53089,-0.60819 5.01457,-1.662459 7.56908,-2.241489 9.78627,-2.22636 18.87867,2.548951 28.02681,7.415834 -0.37998,3.978057 -0.91308,7.944065 -1.60058,11.884048 -2.63404,-1.720934 -5.13054,-3.668247 -8.02242,-4.935158 -8.37041,-3.670722 -18.18679,-0.953024 -27.29421,-2.08181"
   style="fill:#b99874;fill-opacity:1;fill-rule:nonzero;stroke:none;stroke-width:0.21120401"
   id="path1289"
   inkscape:connector-curvature="0" /><path
   d="m 462.33699,48.799071 c -0.16735,2.90834 -1.75957,5.53687 -3.3108,8.03474 -0.36526,0.58963 -0.72832,1.17681 -1.09356,1.76647 -1.74885,-4.96841 -4.32489,-9.51097 -8.81087,-12.28042 -4.90715,-3.02755 -11.09479,-3.26197 -16.51107,-5.30247 0.34152,-1.05119 0.65527,-2.108036 0.9604,-3.158115 0.76057,-2.640762 1.4609,-5.30104 2.15493,-7.962765 1.87556,0.918071 3.76408,1.77124 5.6676,2.497885 4.50538,1.72099 9.31798,2.781938 13.48811,5.167934 4.16807,2.381241 7.72171,6.562761 7.45526,11.236741"
   style="fill:#b99874;fill-opacity:1;fill-rule:nonzero;stroke:none;stroke-width:0.21120401"
   id="path1291"
   inkscape:connector-curvature="0" /><path
   d="m 349.36161,40.828221 c -0.11796,-2.424813 -0.24912,-4.849811 -0.26158,-7.275723 -0.009,-0.929291 0.0173,-1.863586 0.0611,-2.802887 0.76698,-0.609765 1.51251,-1.253822 2.25371,-1.884775 7.96229,-6.789056 18.53497,-12.737864 28.72727,-9.857915 1.19245,0.338423 2.35689,0.790646 3.52351,1.233533 0.391,3.016275 0.62947,6.047762 0.79707,9.083439 -2.49004,-0.8718 -4.9737,-1.738017 -7.60342,-1.866975 -10.41799,-0.514958 -17.60461,10.158966 -27.49406,13.371303"
   style="fill:#b99874;fill-opacity:1;fill-rule:nonzero;stroke:none;stroke-width:0.21120401"
   id="path1293"
   inkscape:connector-curvature="0" /><path
   d="m 457.93263,58.600281 c -7.77962,12.53855 -15.55928,25.07459 -23.33891,37.61097 17.54663,5.798889 26.15342,26.359759 23.27443,44.063729 -2.87678,17.70393 -14.50223,32.85415 -26.88603,46.18969 -12.38594,13.33978 -26.0932,25.93414 -34.74938,41.77986 -7.03841,12.89129 -10.48458,27.52453 -18.70681,39.74305 -7.352,10.92306 -18.08804,19.26318 -28.92057,27.02417 -18.17398,13.01999 -38.98409,25.48147 -61.56245,24.11735 -26.00514,-1.57168 -47.68107,-21.94567 -57.23537,-45.37166 -9.55214,-23.42399 -9.15677,-49.44114 -7.19951,-74.54889 2.15709,-27.62411 7.95151,-66.44328 32.45701,-85.0317 10.38139,-7.87514 22.68573,-5.46668 34.40138,-1.87066 9.22337,2.82987 16.37134,4.99536 26.18778,4.13162 7.73663,-0.67887 15.72465,-2.68454 23.33887,-0.73494 3.9403,4.75871 6.99325,10.51401 9.74119,16.01179 4.71372,9.42606 9.42533,18.85005 14.13913,28.27615 1.84771,0.059 2.35041,-2.43335 2.17851,-4.21473 -1.04631,-10.75697 -3.30003,-21.4038 -6.71179,-31.6915 -1.28266,-3.86597 -2.74363,-7.71528 -5.02964,-11.11819 -0.3263,-0.48552 -0.7025,-0.93635 -1.057,-1.39933 -0.0487,-0.42554 -0.13956,-0.84299 -0.27291,-1.24364 -1.04414,-3.19534 -3.7684,-5.55398 -6.20263,-7.94366 -13.14867,-12.897299 -20.36538,-31.228859 -19.48672,-49.310779 2.28388,-4.09157 5.40348,-7.46937 9.87656,-9.25534 2.67698,-1.06492 5.57745,-1.42017 8.44354,-1.90434 0.48113,2.63912 1.25041,5.19949 2.48574,7.61166 0.51338,1.00724 1.18382,2.0428 2.26451,2.44996 0.3415,-3.70541 0.1827,-7.4225 0,-11.1427 9.88945,-3.212337 17.07609,-13.886205 27.49404,-13.371303 2.62973,0.12893 5.11336,0.995175 7.60346,1.866975 0.28536,5.201101 0.27958,10.414308 -0.10098,15.606548 -0.13524,1.8086 0.0261,4.13622 1.80042,4.71279 3.5192,-4.57161 4.70081,-10.39728 5.59892,-16.028209 0.12243,-0.772157 0.22534,-1.548264 0.34153,-2.322656 9.10733,1.128786 18.92372,-1.588912 27.29418,2.08181 2.89183,1.266911 5.3884,3.214224 8.02245,4.935158 -0.69831,4.001567 -1.55336,7.974787 -2.57609,11.909857 -0.1053,0.40433 -0.20416,0.85085 -0.009,1.22064 0.51587,0.95944 2.03895,0.25564 2.75221,-0.57734 2.42993,-2.84194 3.88021,-6.29928 5.02746,-9.84505 5.41626,2.0405 11.60389,2.27492 16.51103,5.30247 4.48603,2.76947 7.06206,7.31205 8.81092,12.28042"
   style="fill:#d7b28b;fill-opacity:1;fill-rule:nonzero;stroke:none;stroke-width:0.21120401"
   id="path1295"
   inkscape:connector-curvature="0" /><path
   d="m 271.23448,316.60031 c 6.99327,-8.62879 16.15435,-15.60699 26.46917,-20.1643 11.55021,-5.10128 26.04381,-8.57481 30.65875,-20.00645 4.95867,-12.283 -4.96945,-25.23654 -6.44757,-38.34368 -0.71976,-6.39065 0.61231,-12.80826 1.43089,-19.18854 5.137,-40.01499 -11.31601,-82.04193 -42.5699,-108.75251 0,0 -18.55636,-5.35042 -32.13259,9.78108 l 22.59125,196.6744"
   style="fill:#cba781;fill-opacity:1;fill-rule:nonzero;stroke:none;stroke-width:0.21120401"
   id="path1297"
   inkscape:connector-curvature="0" /><path
   d="m 35.630559,269.95795 c -13.72446,-9.01086 -17.29308,-27.29611 -15.430353,-43.22695 1.867024,-15.93297 7.895649,-31.30738 8.568115,-47.3275 0.41894,-9.99911 -1.265442,-19.9795 -1.190257,-29.9869 0.01936,-2.55377 0.472662,-5.60171 2.857485,-6.70003 1.30197,-0.59794 2.82739,-0.41312 4.24323,-0.15372 16.7667,3.08939 30.67807,15.03184 39.53838,29.13148 8.86032,14.09753 13.36351,30.29834 17.41554,46.32264 3.75553,14.84908 15.045781,47.16349 -2.96061,57.5591 -12.84143,7.41836 -41.74271,1.80425 -53.04153,-5.61823"
   style="fill:#3c3a3e;fill-opacity:1;fill-rule:nonzero;stroke:none;stroke-width:0.21120401"
   id="path1299"
   inkscape:connector-curvature="0" /><path
   d="m 48.392499,256.34206 c -6.89016,-12.73555 -8.38336,-27.52864 -8.55739,-41.90029 -0.51132,-42.04139 11.95627,-88.06711 47.79068,-111.90634 C 109.609,87.910731 137.24911,83.755801 163.92028,82.857231 c 35.80434,-1.2084 73.91828,3.57752 101.91508,25.178119 18.31788,14.13288 30.74248,34.40721 38.61452,55.74249 11.7844,31.94055 13.89421,67.82393 1.90788,99.69192 -11.98638,31.86793 -38.99053,58.99999 -72.76248,68.19976 -36.27911,9.88073 -75.27394,-11.03305 -106.56217,-26.80406 -26.83443,-13.52659 -63.448751,-20.45285 -78.640611,-48.5234"
   style="fill:#d7b28b;fill-opacity:1;fill-rule:nonzero;stroke:none;stroke-width:0.21120401"
   id="path1301"
   inkscape:connector-curvature="0" /><path
   d="m 275.80431,226.50883 c 4.09495,-8.47308 6.93736,-17.57108 12.21185,-25.413 5.2724,-7.8398 13.79324,-14.49827 23.46997,-14.42764 -6.43257,14.75985 -7.16946,31.76411 -2.04536,46.9953 3.21629,9.561 8.6111,18.32476 11.94336,27.8525 12.49766,35.7298 -21.21833,41.9003 -46.94203,53.77833 -19.75945,9.125 -34.82248,19.86952 -57.7209,15.83745 -45.04065,-7.92911 -16.31124,-30.77376 4.99736,-46.75653 21.34507,-16.00975 42.43665,-33.75315 54.08575,-57.86641"
   style="fill:#3c3a3e;fill-opacity:1;fill-rule:nonzero;stroke:none;stroke-width:0.21120401"
   id="path1303"
   inkscape:connector-curvature="0" /><path
   d="m 202.44027,65.937621 c 12.75121,3.20596 26.88388,8.40312 31.72653,20.24568 4.17237,10.19823 -0.50914,22.300529 -8.8453,29.741729 -8.33603,7.44123 -19.60909,10.99363 -30.74249,13.11554 -14.46568,2.75715 -29.94758,3.35304 -43.50661,-2.24859 -10.89491,-4.49918 -19.69507,-12.62967 -27.91941,-20.87231 -16.08351,-16.128099 -25.998711,-37.726599 2.64261,-44.200879 25.23383,-5.6992 51.905,-1.9969 76.64467,4.21883"
   style="fill:#211d1d;fill-opacity:1;fill-rule:nonzero;stroke:none;stroke-width:0.21120401"
   id="path1305"
   inkscape:connector-curvature="0" /><path
   d="m 137.90655,87.487401 c 2.70707,1.69841 6.13603,-0.53789 8.58315,-2.57491 8.6025,-7.15491 18.1589,-13.23757 28.35987,-18.04614 3.87584,-1.82564 8.05465,-3.5069 12.34943,-3.1355 -11.20429,6.93024 -21.52127,15.20026 -30.6437,24.55384 -0.99687,1.02506 -1.91643,2.83361 -0.709,3.61464 0.54788,0.35258 1.27405,0.24478 1.9186,0.11614 9.99901,-1.99089 19.63919,-5.60979 29.76282,-6.8781 8.88824,-1.11536 18.61008,-0.1 25.8182,4.80355 -0.49635,3.07526 -0.59926,6.24359 -1.60707,9.20015 -2.51155,7.364349 -10.00972,11.884329 -17.08464,15.542569 -10.81327,5.59343 -22.26679,10.72995 -34.50236,11.53761 -16.9837,1.1191 -36.57132,-9.87666 -38.77351,-26.330679 -0.42327,-3.15166 -0.20841,-6.50897 0.78849,-10.01362 1.42658,-5.03258 4.18092,-9.5587 7.65716,-13.57246 2.03245,2.99576 4.06491,5.99425 6.09952,8.99004 0.55433,0.81595 1.13439,1.65951 1.98304,2.19315"
   style="fill:#d24b5d;fill-opacity:1;fill-rule:nonzero;stroke:none;stroke-width:0.21120401"
   id="path1307"
   inkscape:connector-curvature="0" /><path
   d="m 223.49105,68.150951 c -0.49393,6.7809 -7.00187,11.66808 -9.26424,18.10696 -0.42083,1.19628 -0.68107,2.43312 -0.88089,3.68278 -7.20812,-4.90343 -16.92996,-5.91886 -25.8182,-4.80356 -10.12363,1.26837 -19.76381,4.88718 -29.76282,6.87811 -0.64455,0.12893 -1.37074,0.2367 -1.9186,-0.11613 -1.20743,-0.78112 -0.28786,-2.58967 0.709,-3.61474 9.12243,-9.35359 19.43941,-17.62357 30.6437,-24.55381 -4.29478,-0.37137 -8.47359,1.3099 -12.34943,3.13555 -10.20097,4.80848 -19.75737,10.89122 -28.35987,18.04609 -2.44712,2.03721 -5.87608,4.27328 -8.58315,2.57495 -0.84865,-0.5338 -1.42874,-1.37717 -1.98304,-2.19314 -2.03461,-2.99578 -4.06707,-5.99425 -6.09952,-8.99004 2.57601,-2.97727 5.5495,-5.67243 8.68413,-8.07628 17.4542,-13.39165 46.41564,-22.60409 68.45899,-16.73874 8.32748,2.21325 17.12765,8.33421 16.52394,16.66167"
   style="fill:#f4687a;fill-opacity:1;fill-rule:nonzero;stroke:none;stroke-width:0.21120401"
   id="path1309"
   inkscape:connector-curvature="0" /><path
   d="m 61.889209,119.9342 c -1.72737,-21.150439 17.43274,-48.149869 38.629591,-53.771849 3.55356,-0.94077 7.45521,-1.40791 10.83906,-0.003 2.79516,1.16304 4.89206,3.45332 6.81923,5.73078 7.2898,8.61802 13.52682,18.06956 18.54135,28.0932 25.38854,-4.93523 50.7792,-9.86877 76.16774,-14.80368 9.40169,-1.82651 19.26105,-3.63921 28.45007,-0.98627 18.85505,5.44428 27.24054,29.268749 19.84118,46.889639 -9.04507,21.53458 -32.17772,30.30251 -54.18023,33.72613 -21.55565,3.35379 -48.52115,7.99416 -66.09999,21.13458 -8.81088,6.58783 -17.64541,15.83949 -28.71221,14.61861 -10.12361,-1.11902 -16.676451,-10.58245 -21.688851,-19.1573 -5.72568,-9.79977 -11.30742,-19.68257 -16.73662,-29.63802 -5.41416,-9.93269 -10.77675,-20.25355 -11.83595,-31.43406 l -0.0343,-0.39841"
   style="fill:#3c3a3e;fill-opacity:1;fill-rule:nonzero;stroke:none;stroke-width:0.21120401"
   id="path1311"
   inkscape:connector-curvature="0" /><path
   d="m 93.007729,161.35898 c -3.42682,-17.13503 9.423191,-11.64965 19.712261,-20.158 2.73285,-2.26102 5.11765,-5.38576 8.67123,-5.93385 3.71473,-0.57087 7.22961,2.02221 9.26852,5.07638 2.04321,3.04998 3.10456,6.62519 5.03817,9.74161 3.19049,5.13868 9.15035,3.89495 12.18616,7.98305 1.9766,2.65969 1.61135,6.43425 0,9.31608 -1.61136,2.87968 -4.25614,5.06179 -6.84291,7.1775 -9.17827,7.49927 -14.22288,13.71551 -26.14478,9.13328 -12.96174,-4.9767 -19.099951,-8.39416 -21.888651,-22.33605"
   style="fill:#211d1d;fill-opacity:1;fill-rule:nonzero;stroke:none;stroke-width:0.21120401"
   id="path1313"
   inkscape:connector-curvature="0" /><path
   d="m 137.30497,158.91945 c -1.29339,4.53031 -8.35541,9.49453 -13.31194,10.39361 -1.50823,0.27429 -3.29362,0.025 -4.17234,-1.19389 -0.44257,-0.61453 -0.58655,-1.38272 -0.65529,-2.13224 -0.49629,-5.4086 2.69418,-10.96453 7.70659,-13.42278 1.54904,0.42373 0.92169,2.71361 1.55978,4.13997 1.04846,2.33574 6.69464,1.22286 8.8732,2.21533"
   style="fill:#3c3a3e;fill-opacity:1;fill-rule:nonzero;stroke:none;stroke-width:0.21120401"
   id="path1315"
   inkscape:connector-curvature="0" /><path
   d="m 102.42663,152.48941 c 1.2053,-0.96547 3.5987,-0.75163 4.81259,-0.20774 2.00239,0.89073 2.2731,0.53146 3.58151,-0.90734 0.41681,-0.4608 1.10647,-0.82006 1.66723,-0.53967 0.38026,0.19076 0.56503,0.61041 0.69394,1.007 1.01193,3.18696 -0.36735,9.78315 -4.99951,9.43849 -2.94339,-0.22 -3.66744,-3.01052 -5.00379,-5.00159 -0.48982,-0.72675 -1.53615,-1.36827 -1.48459,-2.32329 0.0363,-0.65408 0.3137,-1.13161 0.73262,-1.46589"
   style="fill:#3c3a3e;fill-opacity:1;fill-rule:nonzero;stroke:none;stroke-width:0.21120401"
   id="path1317"
   inkscape:connector-curvature="0" /><path
   d="m 195.10538,207.03176 c 0,12.51339 -10.49958,22.65994 -23.44844,22.65994 -12.951,0 -23.45061,-10.14655 -23.45061,-22.65994 0,-12.51543 10.49961,-22.65992 23.45061,-22.65992 12.94886,0 23.44844,10.14449 23.44844,22.65992"
   style="fill:#3c3a3e;fill-opacity:1;fill-rule:nonzero;stroke:none;stroke-width:0.21120401"
   id="path1319"
   inkscape:connector-curvature="0" /><path
   d="m 189.934,207.03176 c 0,9.75619 -8.18139,17.66448 -18.27706,17.66448 -10.09784,0 -18.28138,-7.90829 -18.28138,-17.66448 0,-9.75615 8.18354,-17.66659 18.28138,-17.66659 10.09567,0 18.27706,7.91044 18.27706,17.66659"
   style="fill:#211d1d;fill-opacity:1;fill-rule:nonzero;stroke:none;stroke-width:0.21120401"
   id="path1321"
   inkscape:connector-curvature="0" /><path
   d="m 181.90085,211.98148 c 0,2.73436 -2.29241,4.9497 -5.12411,4.9497 -2.82738,0 -5.1198,-2.21534 -5.1198,-4.9497 0,-2.73439 2.29242,-4.94972 5.1198,-4.94972 2.8317,0 5.12411,2.21533 5.12411,4.94972"
   style="fill:#ffffff;fill-opacity:1;fill-rule:nonzero;stroke:none;stroke-width:0.21120401"
   id="path1323"
   inkscape:connector-curvature="0" /><path
   d="m 84.312829,181.17453 c 0,9.75404 -8.18353,17.66242 -18.27921,17.66242 -10.09568,0 -18.27921,-7.90838 -18.27921,-17.66242 0,-9.75832 8.18353,-17.66662 18.27921,-17.66662 10.09568,0 18.27921,7.9083 18.27921,17.66662"
   style="fill:#3c3a3e;fill-opacity:1;fill-rule:nonzero;stroke:none;stroke-width:0.21120401"
   id="path1325"
   inkscape:connector-curvature="0" /><path
   d="m 80.284459,181.17453 c 0,7.60516 -6.38098,13.76736 -14.25084,13.76736 -7.86986,0 -14.24868,-6.1622 -14.24868,-13.76736 0,-7.60732 6.37882,-13.77165 14.24868,-13.77165 7.86986,0 14.25084,6.16433 14.25084,13.77165"
   style="fill:#211d1d;fill-opacity:1;fill-rule:nonzero;stroke:none;stroke-width:0.21120401"
   id="path1327"
   inkscape:connector-curvature="0" /><path
   d="m 74.021649,185.03213 c 0,2.13019 -1.78968,3.85761 -3.99402,3.85761 -2.20647,0 -3.99401,-1.72742 -3.99401,-3.85761 0,-2.13022 1.78754,-3.8576 3.99401,-3.8576 2.20434,0 3.99402,1.72738 3.99402,3.8576"
   style="fill:#ffffff;fill-opacity:1;fill-rule:nonzero;stroke:none;stroke-width:0.21120401"
   id="path1329"
   inkscape:connector-curvature="0" /><path
   d="m 183.84308,247.3915 c 6.88587,-1.05474 13.83188,-2.49771 19.94428,-5.73871 6.11026,-3.24305 11.35899,-8.5291 13.03264,-15.06921 0.99688,-3.89293 0.56274,-8.3485 -2.13127,-11.40054 -4.98661,-5.64734 -14.20356,-3.92199 -21.73826,-2.48526 -8.69703,1.65891 -17.69054,2.25062 -26.43483,0.8492 -5.90401,-0.94678 -11.6383,-2.79047 -17.57882,-3.51716 -5.93624,-0.7246 -12.36017,-0.19324 -17.22217,3.17662 -4.52256,3.13096 -7.17375,8.6184 -6.7591,13.9792 0.80353,10.35421 9.41676,13.99584 17.59384,18.70884 11.634,6.7083 28.38565,3.47772 41.29369,1.49702"
   style="fill:#cba781;fill-opacity:1;fill-rule:nonzero;stroke:none;stroke-width:0.21120401"
   id="path1331"
   inkscape:connector-curvature="0" /><path
   d="m 92.960459,203.02467 c 2.57172,-5.21959 -1.85843,-11.42753 -7.24036,-13.94601 -5.38193,-2.51847 -11.59961,-2.77382 -17.21574,-4.7566 -6.13603,-2.16551 -11.44492,-6.4425 -14.75357,-11.88433 -1.15372,-1.89558 -2.08616,-3.94685 -3.60515,-5.5871 -1.5168,-1.63813 -3.82642,-2.8278 -6.03935,-2.31505 -3.06373,0.70806 -4.44949,4.12136 -5.02958,7.11737 -2.42134,12.4843 1.28479,26.34933 11.00449,34.90334 9.72184,8.5541 25.55825,10.57217 36.37368,3.34896 3.06802,-2.04925 0.29432,0.17238 2.99497,-2.31083 2.70064,-2.48522 1.90785,-1.31632 3.51061,-4.56975"
   style="fill:#cba781;fill-opacity:1;fill-rule:nonzero;stroke:none;stroke-width:0.21120401"
   id="path1333"
   inkscape:connector-curvature="0" /><path
   d="m 229.88274,133.43797 c -0.92601,2.76554 0.6467,5.73244 3.50848,6.62732 2.86177,0.89275 5.93194,-0.62496 6.85576,-3.39048 0.926,-2.76555 -0.64453,-5.73249 -3.5063,-6.62521 -2.8639,-0.89486 -5.93194,0.62285 -6.85794,3.38837"
   style="fill:#211d1d;fill-opacity:1;fill-rule:nonzero;stroke:none;stroke-width:0.21120401"
   id="path1335"
   inkscape:connector-curvature="0" /><path
   d="m 215.10335,105.79719 c -0.9238,2.76555 0.64459,5.7325 3.50636,6.62522 2.86177,0.89487 5.93195,-0.62285 6.85577,-3.38837 0.926,-2.7676 -0.6424,-5.73244 -3.50417,-6.62731 -2.86175,-0.89276 -5.93193,0.62495 -6.85796,3.39046"
   style="fill:#211d1d;fill-opacity:1;fill-rule:nonzero;stroke:none;stroke-width:0.21120401"
   id="path1337"
   inkscape:connector-curvature="0" /><path
   d="m 75.102349,93.370981 c -0.92601,2.76553 0.64452,5.7304 3.50629,6.62529 2.86393,0.894809 5.9341,-0.62286 6.8558,-3.38839 0.92599,-2.76553 -0.64241,-5.73459 -3.50418,-6.62507 -2.86391,-0.89524 -5.93192,0.62288 -6.85791,3.38817"
   style="fill:#211d1d;fill-opacity:1;fill-rule:nonzero;stroke:none;stroke-width:0.21120401"
   id="path1339"
   inkscape:connector-curvature="0" /><path
   d="m 96.509739,98.634271 c -0.92599,2.765529 0.64454,5.730319 3.506311,6.625199 2.86177,0.89486 5.93193,-0.62284 6.85578,-3.3884 0.92601,-2.765509 -0.64454,-5.730349 -3.50631,-6.625229 -2.86178,-0.89488 -5.929791,0.62289 -6.855781,3.38843"
   style="fill:#211d1d;fill-opacity:1;fill-rule:nonzero;stroke:none;stroke-width:0.21120401"
   id="path1341"
   inkscape:connector-curvature="0" /><path
   d="m 96.965209,75.803681 c -0.92599,2.76568 0.6467,5.73078 3.508461,6.62545 2.86178,0.89272 5.9298,-0.62457 6.8558,-3.39029 0.92597,-2.76552 -0.6467,-5.73226 -3.50847,-6.62525 -2.86177,-0.89439 -5.929801,0.62537 -6.855791,3.39009"
   style="fill:#211d1d;fill-opacity:1;fill-rule:nonzero;stroke:none;stroke-width:0.21120401"
   id="path1343"
   inkscape:connector-curvature="0" /><path
   d="m 202.23403,127.1657 c -0.92599,2.76554 0.64454,5.73248 3.50631,6.62521 2.86175,0.89282 5.93193,-0.62286 6.85577,-3.38838 0.92599,-2.76758 -0.64453,-5.73244 -3.50631,-6.62731 -2.86176,-0.89482 -5.92979,0.62496 -6.85577,3.39048"
   style="fill:#211d1d;fill-opacity:1;fill-rule:nonzero;stroke:none;stroke-width:0.21120401"
   id="path1345"
   inkscape:connector-curvature="0" /><path
   d="m 449.45476,201.79968 c 5.44635,-0.15761 10.66929,-0.81597 14.9791,-3.89498 4.62786,-3.30741 7.03841,-8.74095 8.75939,-14.04775 0.46831,-1.44086 1.13656,-3.11846 2.65337,-3.4652 2.17207,-0.50023 3.68458,2.21119 3.55573,4.3663 -0.45737,7.5201 -1.15162,15.06509 -4.11647,22.12841 -3.98973,9.50078 -12.0938,16.93568 -21.13032,22.30692 -10.2546,6.09163 -29.08598,16.5454 -41.30009,17.13297 -0.77132,0.0412 -1.62211,-0.006 -2.20004,-0.50438 -0.61015,-0.5273 -0.7348,-1.39106 -0.80997,-2.18208 -0.8744,-9.08766 -2.97135,-17.08526 1.91215,-25.40882 4.804,-8.18241 13.44087,-14.40067 23.13263,-15.84574 4.70728,-0.69762 9.72401,-0.44436 14.56452,-0.58559"
   style="fill:#b99874;fill-opacity:1;fill-rule:nonzero;stroke:none;stroke-width:0.21120401"
   id="path1347"
   inkscape:connector-curvature="0" /></g></svg>